<svg width="1404" height="1872" viewBox="0 0 1404 1872" xmlns="http://www.w3.org/2000/svg" xmlns:xlink="http://www.w3.org/1999/xlink"  version="1.2" baseProfile="tiny"><title>tilda notes</title>
<g><path fill="none" stroke="#000000" stroke-width="4" stroke-linecap="butt" stroke-linejoin="round" d="M255.914 108.754 L255.753 108.105 L256.027 108.235 L255.741 108.243 L255.887 109.083 L255.117 109.756 L252.93 114.101 L246.972 131.847 L246.969 133.11 L246.431 134.624 L246.749 134.962 L247.076 134.647 L246.92 133.97 L248.508 131.612 L249.609 128.235 L253.51 113.21 L255.373 106.785 L255.861 106.182 L255.949 105.773 L255.686 105.709 L256.165 104.426 L256.046 105.834 L257.392 107.628 L257.635 108.402 L257.49 109.156 L257.899 111.886 L259.672 119.244 L260.323 124.743 L261.307 126.874 L262.901 134 L263.407 134.372 L263.288 134.766 L263.765 135.307 L263.71 136.549 L264.119 136.308 L263.509 136.773 L263.242 136.558 "/></g><g><path fill="none" stroke="#000000" stroke-width="4" stroke-linecap="butt" stroke-linejoin="round" d="M248.757 126.703 L247.201 126.406 L247.548 126.613 L247.176 126.875 L248.314 126.647 L248.075 126.783 L248.379 126.922 L248.493 126.554 L250.898 126.713 L252.179 126.378 L253.42 126.461 L259.067 125.433 L267.51 125.657 "/></g><g><path fill="none" stroke="#000000" stroke-width="4" stroke-linecap="butt" stroke-linejoin="round" d="M243.985 179.37 L243.669 179.045 L243.714 177.555 L244.149 177.318 L243.985 177.833 L244.526 178.14 L243.969 178.392 L243.824 178.882 L244.433 179.467 L245.054 182.257 L245.238 187.82 L245.913 191.966 L245.881 195.842 L246.407 198.386 L246.58 198.102 L246.649 198.431 L246.638 200.854 L247.57 203.037 L248.09 202.992 L248.521 202.446 "/></g><g><path fill="none" stroke="#000000" stroke-width="4" stroke-linecap="butt" stroke-linejoin="round" d="M244.319 180.1 L243.162 178.974 L243.556 179.246 L244.092 178.42 L244.451 178.841 L244.635 178.458 L247.66 177.874 L251.346 178.399 L254.19 179.657 L256.512 181.026 L258.943 183.303 L260.383 185.725 L261.471 186.857 L262.717 190.765 L262.771 194.174 L261.143 200.093 L258.901 203.197 L254.516 207.753 L251.439 209.171 L249.269 209.755 L248.311 209.797 L245.869 209.148 L244.508 207.358 L244.347 204.906 L244.741 203.829 L246.606 201.802 "/></g><g><path fill="none" stroke="#000000" stroke-width="4" stroke-linecap="butt" stroke-linejoin="round" d="M244.66 241.145 L244.218 240.194 L243.346 239.654 L243.569 239.161 L243.068 238.239 L243.224 237.812 L243.777 237.703 L243.551 238.47 L243.235 238.586 L243.73 239.171 L244.939 252.335 L245.3 254.707 L246.48 257.363 L248.22 256.249 L249.537 254.735 L252.653 249.001 L253.904 247.977 L254.2 246.884 L254.234 247.084 L255.264 246.873 L257.534 249.073 L257.952 250.484 L262.384 257.801 L263.931 259.051 L264.212 258.987 L264.463 259.474 L265.469 259.457 L267.835 254.853 L267.708 251.923 L268.044 251.47 L268.251 248.298 L267.98 246.338 L269.016 244.03 "/></g><g><path fill="none" stroke="#000000" stroke-width="4" stroke-linecap="butt" stroke-linejoin="round" d="M254.335 287.612 L254.883 287.389 L255.044 286.454 L254.646 286.819 L254.399 286.575 L253.272 286.966 L252.848 286.726 L251.044 287.278 L247.917 289.961 L246.557 292.027 L245.984 292.348 L245.515 294.253 L245.553 296.609 L246.8 297.848 L247.729 299.54 L250.863 302.228 L254.716 304.447 L256.304 306.547 L261.208 311.27 L261.834 313.406 L261.852 314.698 L261.06 317.881 L260.45 318.01 L259.2 319.336 L258.426 319.449 L257.437 320.54 L253.916 322.863 L248.787 323.97 L248.013 324.858 L247.026 324.979 L246.089 324.441 L243.368 324.61 L239.854 324.239 L237.645 323.647 L234.58 321.704 L234.768 317.948 "/></g><g><path fill="none" stroke="#000000" stroke-width="4" stroke-linecap="butt" stroke-linejoin="round" d="M243.602 353.398 L243.408 351.224 L243.726 351.228 L243.714 350.808 L243.658 351.085 L243.993 350.923 L243.675 351.198 L244.132 351.175 L243.824 351.388 L243.833 352.058 L243.702 351.884 L244.143 352.555 L244.047 354.738 L244.554 355.978 L244.343 356.841 L244.748 364.286 L244.496 366.645 L244.747 369.18 L244.79 378.012 L244.594 377.706 L244.874 377.618 L244.543 377.3 L244.983 375.815 L244.879 375.136 "/></g><g><path fill="none" stroke="#000000" stroke-width="4" stroke-linecap="butt" stroke-linejoin="round" d="M243.692 354.616 L243.209 354.01 L242.973 354.16 L242.938 353.701 L242.774 353.851 L242.994 353.479 L243.253 353.655 L243.069 353.133 L243.175 353.606 L243.49 353.479 L244.588 352.157 L246.589 351.215 L249.258 350.862 L251.106 350.785 L253.508 351.447 L256.161 353.623 L257.395 356.224 L257.827 358.104 L255.616 364.647 L250.318 369.718 L247.327 371.065 L245.614 371.237 L246.639 370.905 L246.236 371.151 L248.38 371.157 L251.678 373.054 L253.203 374.63 L255.389 375.595 L256.618 377.76 L258.012 378.911 L258.984 380.402 L259.914 380.431 L261.855 382.244 L263.071 382.387 L264.494 383.047 L265.421 382.984 L266.385 383.457 L267.802 383.385 L268.551 383.726 "/></g><g><path fill="none" stroke="#000000" stroke-width="4" stroke-linecap="butt" stroke-linejoin="round" d="M230.673 422.879 L230.458 421.923 L230.696 421.972 L230.717 421.63 L231.007 421.555 L230.689 422.504 L231.131 422.709 L230.488 422.71 L230.437 429.919 L230.137 431.068 L230.048 435.4 L229.397 442.095 L229.764 442.988 L229.343 443.533 L229.35 445.746 L229.043 446.055 L229.123 445.34 L228.837 445.947 L228.54 444.919 "/></g><g><path fill="none" stroke="#000000" stroke-width="4" stroke-linecap="butt" stroke-linejoin="round" d="M215.779 423.388 L215.149 422.68 L215.365 422.963 L215.625 422.343 L215.892 422.553 L215.545 422.402 L215.881 421.968 L216.202 422.149 L216.524 421.913 L216.915 422.392 L217.095 421.943 L218.385 421.129 L219.131 421.671 L219.503 421.539 L220.361 421.98 L222.821 422.005 L223.469 422.415 L224.843 422.27 L227.847 422.86 L230.738 422.724 L233.729 423.296 L235.992 422.62 L237.405 422.769 L238.615 422.095 L240.63 421.661 L240.904 420.891 L241.426 420.742 L241.7 421.235 L241.663 420.92 L242.663 420.12 L243.598 418.795 L243.376 418.494 L243.319 418.894 L243.37 418.434 L242.927 423.671 L243.017 426.059 L243.331 426.343 L243.38 427.286 L242.744 429.313 L242.988 434.041 L242.623 435.144 L242.769 437.162 L242.325 437.698 L242.276 438.67 L242.758 437.678 L242.44 437.821 L242.378 432.845 L243.797 425.805 L244.126 425.705 L244.983 423.235 L247.094 419.572 L247.615 419.638 L247.666 419.272 L248.467 418.897 L250.277 420.319 L251.679 423.508 L254.252 441.055 L253.937 443.676 L254.169 444.139 L253.399 443.532 L253.067 443.879 "/></g><g><path fill="none" stroke="#000000" stroke-width="4" stroke-linecap="butt" stroke-linejoin="round" d="M242.232 435.393 L241.305 435.339 L241.615 435.761 L242.137 435.59 L242.1 435.175 L242.749 435.355 L243.525 434.917 L244.618 435.07 L248.529 433.95 L249.8 434.429 L250.175 434.036 L251.124 434.083 L252.194 433.296 L252.966 434.271 L254.34 434.296 L255.428 433.761 L255.819 434.353 L257.435 434.76 L257.945 434.529 "/></g><g><path fill="none" stroke="#000000" stroke-width="4" stroke-linecap="butt" stroke-linejoin="round" d="M265.163 420.087 L265.094 419.615 L264.654 419.402 L264.708 419.069 L265.048 419.182 L264.955 418.692 L265.279 419.45 L264.96 420.485 L264.926 419.843 L264.754 419.989 L264.987 422.389 L264.594 423.834 L264.663 429.714 L264.436 430.017 L264.159 436.843 L264.483 437.451 L264.133 441.557 L264.514 441.393 L264.629 441.942 L264.786 441.725 L264.702 442.37 L264.546 441.658 L264.842 441.192 "/></g><g><path fill="none" stroke="#000000" stroke-width="4" stroke-linecap="butt" stroke-linejoin="round" d="M264.315 421.865 L263.446 420.573 L263.877 420.878 L263.744 420.628 L264.119 420.129 L263.826 420.508 L263.765 420.191 L264.166 419.274 L264.728 419.207 L264.841 417.739 L265.249 417.543 L265.779 416.152 L266.568 415.951 L268.887 413.787 L272.125 413.56 L272.2 412.937 L272.375 413.113 L274.221 416.452 L273.896 417.192 L274.022 420.827 L273.52 421.987 L272.906 425.78 L273.167 428.728 L272.79 429.639 L273.141 430.94 L273.735 431.088 L273.67 431.559 L274.284 431.793 L274.772 432.634 L274.871 432.356 L275.273 432.677 L275.599 433.502 L275.947 433.374 L276.98 433.988 L277.174 433.618 L277.429 434.881 L278.835 435.885 L279.775 437.812 L279.405 440.197 L278.801 441.526 L278.181 442.348 L277.297 442.776 L275.045 445.644 L269.725 447.465 L269.088 446.812 L268.343 447.153 L268.169 446.649 L268.193 446.989 L267.288 446.758 L267.155 446.462 "/></g><g><path fill="none" stroke="#000000" stroke-width="4" stroke-linecap="butt" stroke-linejoin="round" d="M223.725 488.469 L224.306 486.143 L224.316 485.814 L224.095 486.067 L224.66 485.675 L224.369 485.303 L224.33 485.655 L224.455 484.958 L224.369 484.518 L224.185 484.656 L224.349 485.066 L224.517 484.605 L224.392 484.866 L224.971 484.803 L224.572 485.023 L224.774 485.232 L224.366 485.909 L224.509 485.038 L224.15 487.776 L224.51 488.361 L225.258 492.774 L225.313 496.17 L226.842 503.645 L227.521 505.344 L227.713 505.609 L227.694 505.077 L227.885 506.433 L228.346 507.049 L229.025 507.054 L229.263 506.729 L228.588 506.648 L228.688 506.159 L228.996 506.317 L231.779 504.851 L233.455 502.049 L235.586 499.826 L236.832 496.851 "/></g><g><path fill="none" stroke="#000000" stroke-width="4" stroke-linecap="butt" stroke-linejoin="round" d="M219.869 487.307 L218.99 486.736 L219.124 487.069 L219.485 487.002 L219.301 486.268 L219.816 486.237 L219.691 485.866 L220.147 485.871 L220.37 485.175 L221.839 484.084 L222.936 482.403 L226.233 480.038 L226.737 479.221 L227.365 478.867 L228.116 479.344 L230.499 478.242 L232.429 478.156 L233.644 478.654 L234.247 478.427 L234.888 478.849 L235.58 478.252 L235.68 479.223 "/></g><g><path fill="none" stroke="#000000" stroke-width="4" stroke-linecap="butt" stroke-linejoin="round" d="M226.506 494.45 L225.615 494.775 L226.54 494.412 L226.793 493.212 L226.863 493.622 L227.427 493.648 L229.776 490.803 L230.756 490.423 L231.151 489.619 L232.303 488.797 L232.985 488.757 L235.156 487.163 L238.518 486.179 L240.353 486.228 "/></g><g><path fill="none" stroke="#000000" stroke-width="4" stroke-linecap="butt" stroke-linejoin="round" d="M253.219 477.757 L254.625 474.823 L254.319 474.565 L254.758 474.816 L254.888 474.519 L254.862 474.88 L253.972 475.95 L253.189 475.904 L253.099 475.458 L252.795 475.727 L252.548 476.472 L251.958 476.722 L251.25 477.938 L249.676 479.323 L249.157 480.785 L248.746 480.718 L248.194 481.412 L247.961 483.048 L247.31 484.204 L247.302 486.277 L248.123 486.77 L248.853 488.242 L249.497 488.432 L250.304 489.518 L251.144 489.812 L253.382 492.777 L253.843 492.736 L255.216 493.617 L255.482 494.31 L256.427 494.813 L257.161 496.174 L257.528 495.882 L257.955 496.426 L259.111 500.781 L259.06 501.684 L258.735 503.337 L257.573 505.009 L256.218 506.185 L254.032 507.197 L253.33 508.276 L252.98 507.418 L251.315 506.645 L251.013 507.257 L249.426 506.08 L248.899 504.754 L249.479 503.372 "/></g><g><path fill="none" stroke="#000000" stroke-width="4" stroke-linecap="butt" stroke-linejoin="round" d="M276.117 475.823 L275.501 474.706 L275.564 473.989 L275.784 473.786 L275.946 474.023 L275.531 472.971 L275.842 473.057 L275.682 472.651 L275.266 472.584 L275.574 473.18 L275.223 472.956 L275.104 473.151 L275.097 472.917 L272.76 475.12 L270.544 479.994 L268.971 487.77 L269.596 493.231 L269.767 492.811 L270.233 493.134 L270.18 495.389 L270.63 496.377 L271.27 496.468 L271.56 496.978 L273.816 498.626 L273.95 498.319 L275.572 498.609 L276.02 498.364 L277.416 498.937 L279.365 498.279 L285.151 495.239 L293.006 488.551 "/></g><g><path fill="none" stroke="#000000" stroke-width="4" stroke-linecap="butt" stroke-linejoin="round" d="M319.801 107.505 L319.554 106.931 L320.035 106.871 L320.166 106.329 L319.853 106.07 L319.672 106.684 L319.266 106.887 L319.371 107.145 L318.807 107.054 L317.522 107.688 L316.469 109.136 L315.904 110.916 L314.871 112.482 L314.217 118.576 L314.504 125.439 L315.27 128.669 L316.695 131.799 L317.217 132.346 L318.453 132.609 L321.031 132.38 L322.773 131.628 L325.433 127.665 L327.522 123.411 L328.885 119.794 L329.455 115.401 L329.049 113.069 L328.273 111.936 L327.873 109.827 L326.666 108.038 L324.247 105.904 L323.372 105.984 L323.578 105.837 L322.635 105.464 L322.662 105.84 L323.012 105.675 L324.185 106.253 L325.149 107.548 "/></g><g><path fill="none" stroke="#000000" stroke-width="4" stroke-linecap="butt" stroke-linejoin="round" d="M341.927 124.353 L341.03 123.24 L340.551 123.38 L340.422 123.852 L341.229 123.644 L343.163 123.864 "/></g><g><path fill="none" stroke="#000000" stroke-width="4" stroke-linecap="butt" stroke-linejoin="round" d="M354.836 105.841 L354.781 105.011 L355.104 105.016 L355.76 104.184 L356.93 101.965 L359.062 100.424 L359.854 100.223 L361.747 100.671 L363.117 102 L363.901 104.963 L363.928 107.719 L361.536 115.827 L358.624 122.092 L357.474 123.693 L357.068 125.037 L356.329 125.454 L358.393 121.653 L360.309 120.177 L361.862 119.854 L363.544 120.142 L365.819 121.715 L366.488 122.892 L367.633 123.71 L367.949 124.403 L369.421 125.335 L370.375 125.755 L371.671 125.82 "/></g><g><path fill="none" stroke="#000000" stroke-width="4" stroke-linecap="butt" stroke-linejoin="round" d="M382.894 103.098 L382.201 102.313 L382.433 101.982 L382.36 102.274 L381.637 102.124 L381.347 102.741 L380.723 102.74 L379.293 103.548 L378.367 104.57 L377.788 106.246 L378.389 107.027 L378.724 108.388 L380.316 110.176 L382.391 111.721 L382.927 112.537 L383.96 112.727 L386.162 114.197 L386.333 115.075 L387.147 115.724 L387.485 116.846 L388.089 117.183 L388.386 118.218 L388.125 120.305 L385.979 124.082 L385.222 124.657 L381.967 126.275 L381.08 126.356 L379.764 125.5 "/></g><g><path fill="none" stroke="#000000" stroke-width="4" stroke-linecap="butt" stroke-linejoin="round" d="M381.211 101.525 L380.867 100.959 L382.818 98.7487 L384.779 97.4897 L387.744 96.536 L394.462 96.433 L404.036 97.3651 "/></g><g><path fill="none" stroke="#000000" stroke-width="4" stroke-linecap="butt" stroke-linejoin="round" d="M321.45 178.644 L320.829 178.091 L321.139 178.105 L321.066 177.829 L319.934 176.864 L319.557 177.263 L319.205 176.936 L318.596 177.057 L316.004 179.62 L315.167 181.474 L314.047 185.725 L313.819 188.066 L313.624 194.718 L314.499 198.933 L316.782 201.145 L317.65 201.502 L319.793 201.6 L321.507 201.085 L325.229 197.841 L327.062 193.47 L327.563 191.058 L326.91 186.365 L324.914 183.158 L324.165 183.143 L325.295 184.249 "/></g><g><path fill="none" stroke="#000000" stroke-width="4" stroke-linecap="butt" stroke-linejoin="round" d="M340.604 205.583 L339.107 204.578 L339.841 204.378 L339.497 204.521 L338.982 204.055 L338.748 203.141 L338.988 203.371 L338.874 203.057 L339.49 202.31 "/></g><g><path fill="none" stroke="#000000" stroke-width="4" stroke-linecap="butt" stroke-linejoin="round" d="M357.25 180.531 L357.286 180.225 L356.808 180.355 L357.231 180.061 L357.02 179.322 L357.672 178.022 L358 176.319 L360.739 171.782 L364.401 168.951 L366.146 169.437 L366.874 171.024 L367.025 175.174 L366.039 179.686 L364.178 184.699 L363.931 186.446 L361.353 190.887 L360.973 192.668 L359.547 195.264 L359.069 195.345 L358.01 196.567 L357.243 196.777 L357.545 196.292 L357.664 196.474 L357.852 195.665 L357.756 195.979 L358.126 195.596 L358.459 195.71 L359.03 195.141 L359.693 195.117 L360.401 194.603 L362.294 194.624 L365.363 194.068 L366.327 194.434 L367.515 193.959 L371.865 194.022 L376.41 192.835 "/></g><g><path fill="none" stroke="#000000" stroke-width="4" stroke-linecap="butt" stroke-linejoin="round" d="M383.239 177.13 L383.358 176.835 L382.867 175.942 L383.447 174.876 L383.454 172.901 L383.156 174.095 L381.539 176.009 L380.517 178.207 L380.057 180.053 L380.42 182.286 L381.09 183.493 L383.947 185.717 L386.822 186.369 L387.768 186.966 L388.251 186.836 L391.677 188.226 L392.797 190.112 L392.411 192.368 L389.051 195.412 L385.503 196.303 L383.506 195.873 L382.818 195.317 "/></g><g><path fill="none" stroke="#000000" stroke-width="4" stroke-linecap="butt" stroke-linejoin="round" d="M383.233 171.322 L381.988 170.418 L382.872 170.549 L382.88 170.157 L383.26 170.329 L390.686 166.82 L406.466 162.322 "/></g><g><path fill="none" stroke="#000000" stroke-width="4" stroke-linecap="butt" stroke-linejoin="round" d="M329.632 242.404 L329.03 241.506 L327.916 241.193 L325.661 241.23 L324.872 241.691 L324.609 241.473 L321.837 243.715 L320.42 246.018 L319.932 247.469 L318.601 253.077 L318.189 257.572 L318.334 261.774 L319.177 264.298 L319.913 265.133 L320.001 265.987 L320.952 267.013 L322.283 267.77 L323.641 267.98 L325.152 267.676 L326.922 266.094 L329.111 262.895 L330.071 260.036 L330.54 257.987 L330.257 254.935 L329.903 254.522 L329.893 252.56 L328.532 250.083 L328.545 249.382 L327.322 247.716 L326.383 246.877 L325.772 247.162 L327.437 250.224 "/></g><g><path fill="none" stroke="#000000" stroke-width="4" stroke-linecap="butt" stroke-linejoin="round" d="M340.406 265.165 L339.593 263.937 L339.899 264.549 L340.113 263.883 L339.503 262.947 L339.322 261.985 L338.865 262.171 L339.153 261.841 L338.65 261.587 L338.462 262.129 L338.241 261.124 "/></g><g><path fill="none" stroke="#000000" stroke-width="4" stroke-linecap="butt" stroke-linejoin="round" d="M357.561 242.582 L356.673 242.251 L356.454 241.085 L358.145 237.341 L361.523 233.708 L362.467 233.429 L364.003 234.403 L365.153 236.814 L365.363 239.962 L364.173 249.868 L363.56 251.88 L360.579 258.349 L355.566 263.753 L353.397 264.747 L351.932 264.754 L351.873 263.466 L352.243 263.497 L352.803 262.639 L355.573 260.936 L358.298 260.082 L362.003 260.003 L365.061 260.403 L367.853 261.914 L368.941 261.977 L370.23 262.704 L371.184 262.83 L371.802 262.29 L372.332 263.12 L373.388 263.005 L376.122 261.552 L379.481 258.234 "/></g><g><path fill="none" stroke="#000000" stroke-width="4" stroke-linecap="butt" stroke-linejoin="round" d="M387.436 246.768 L387.977 244.214 L387.747 243.305 L385.871 243.403 L383.331 245.168 L381.664 247.685 L379.797 253.809 L379.53 256.347 L380.966 261.374 L382.008 262.845 L383.878 264.245 L385.961 264.491 L389.536 263.589 L392.179 260.987 L392.892 259.667 L394.757 257.607 L395.194 255.23 L395.145 253.166 L393.211 248.933 L390.723 245.603 L386.997 243.674 L385.834 243.785 "/></g><g><path fill="none" stroke="#000000" stroke-width="4" stroke-linecap="butt" stroke-linejoin="round" d="M321.22 303.218 L320.795 302.753 L320.48 302.848 L321.034 302.645 L320.537 301.863 L320.403 300.895 L320.132 301.083 L319.821 300.674 L318.89 300.504 L318.495 300.942 L318.005 300.711 L317.32 301.492 L316.672 301.55 L315.382 304.316 L314.326 308.035 L313.892 310.91 L313.818 315.042 L314.488 319.454 L315.375 322.017 L316.533 323.672 L317.753 324.521 L318.366 324.809 L318.868 324.414 L319.174 324.985 L320.111 325.166 L322.749 323.76 L324.613 321.013 L324.923 319.867 L325.048 316.171 L324.867 313.38 L323.712 311.204 L323.521 310.018 L323.226 310.245 L322.122 309.228 L322.765 309.392 "/></g><g><path fill="none" stroke="#000000" stroke-width="4" stroke-linecap="butt" stroke-linejoin="round" d="M335.763 325.559 L334.393 324.657 L335.169 324.795 L335.201 324.386 L334.431 324.471 L333.95 323.352 L334.257 323.382 L333.938 323.165 L333.9 322.25 L333.803 323.013 L334.033 322.142 "/></g><g><path fill="none" stroke="#000000" stroke-width="4" stroke-linecap="butt" stroke-linejoin="round" d="M357.345 298.207 L357.012 297.609 L357.22 297.511 L357.005 297.612 L357.235 297.352 L357.285 297.694 L356.882 299.017 L356.408 304.253 L355.283 309.154 L354.84 317.089 L355.524 319.503 L355.521 321.093 L356.157 321.692 L356.292 322.351 L357.377 322.181 "/></g><g><path fill="none" stroke="#000000" stroke-width="4" stroke-linecap="butt" stroke-linejoin="round" d="M376.912 299.944 L376.429 299.175 L376.825 298.377 L376.243 296.897 L376.202 297.244 L375.652 297.25 L375.192 297.683 L374.23 297.575 L374.082 298.068 L373.309 298.324 L372.976 299.213 L371.901 299.834 L371.25 300.949 L371.063 301.864 L371.499 304.163 L372.572 306 L374.013 307.279 L374.758 307.366 L375.489 308.203 L381.266 310.967 L382.643 311.912 L384.468 314.178 L384.594 315.916 L383.7 317.524 L381.723 319.025 L378.221 319.388 L375.133 317.848 L372.887 315.088 L371.975 313.094 "/></g><g><path fill="none" stroke="#000000" stroke-width="4" stroke-linecap="butt" stroke-linejoin="round" d="M374.093 297.588 L373.674 296.335 L374.371 295.682 L374.381 294.835 L374.757 294.277 L376.217 292.926 L379.223 291.856 L383.301 291.452 L389.062 291.602 L393.981 292.185 "/></g><g><path fill="none" stroke="#000000" stroke-width="4" stroke-linecap="butt" stroke-linejoin="round" d="M317.252 364.525 L318.645 361.242 L318.866 360.336 L318.663 359.876 L318.733 360.455 L318.386 360.479 L317.899 361.507 L316.848 362.064 L315.551 363.771 L314.874 365.982 L314.441 369.27 L314.557 371.713 L314.25 372.51 L314.379 377.947 L314.816 381.397 L315.711 384.189 L316.103 384.649 L316.745 384.729 L318.086 386.333 L318.573 386.051 L319.416 386.615 L320.507 386.045 L320.982 386.226 L323.647 383.719 L325.514 380.29 L325.984 375.957 L325.919 372.008 L324.676 365.581 L324.046 365.598 L322.988 363.283 L322.043 362.483 L321.739 361.555 L320.919 362.143 L320.651 362.093 L320.664 361.699 L320.596 363.869 L321.138 364.885 "/></g><g><path fill="none" stroke="#000000" stroke-width="4" stroke-linecap="butt" stroke-linejoin="round" d="M338.179 379.453 L337.705 379.354 L337.371 379.598 L337.494 379.808 L337.738 379.138 L338.101 379.021 L338.09 379.353 L337.752 379.404 L337.723 378.765 L337.789 379.231 L338.016 379.052 L337.848 379.537 L338.124 378.731 L338.746 379.11 "/></g><g><path fill="none" stroke="#000000" stroke-width="4" stroke-linecap="butt" stroke-linejoin="round" d="M358.409 357.975 L357.664 357.343 L357.383 357.512 L357.661 357.361 L357.592 357.671 L357.864 357.612 L357.641 357.74 L357.492 357.37 L357.767 360.419 L357.327 363.455 L357.382 367.911 L357.068 369.668 L357.263 376.663 L358.023 380.55 L358.268 380.518 L358.393 381.52 L359.305 382.992 L359.252 382.563 L359.702 382.892 L360.434 382.721 L362.259 381.038 "/></g><g><path fill="none" stroke="#000000" stroke-width="4" stroke-linecap="butt" stroke-linejoin="round" d="M384.051 357.502 L382.99 356.124 L382.967 356.671 L383.436 356.254 L382.664 355.022 L382.077 355.103 L381.689 355.636 L381.524 355.321 L381.072 355.577 L379.817 357.042 L379.015 357.128 L377.486 359.227 L374.251 368.721 L373.599 372.051 L373.662 375.416 L374.375 377.21 L374.4 378.442 L375.545 380.669 L375.725 380.083 L377.55 380.665 L381.21 379.825 L382.61 378.761 L383.85 376.705 L384.335 376.902 L384.933 376.344 L387.452 373.271 L389.349 369.912 L389.463 367.467 L387.726 361.373 L385.856 359.373 L382.972 357.827 L380.304 357.225 L379.136 357.802 "/></g><g><path fill="none" stroke="#000000" stroke-width="4" stroke-linecap="butt" stroke-linejoin="round" d="M327.339 425.305 L326.899 424.186 L327.155 423.044 L326.824 423.088 L326.482 420.985 L326.003 420.661 L325.788 419.551 L325.727 420.344 L325.283 419.137 L324.548 418.843 L323.443 419.141 L323.425 419.622 L323.063 419.339 L321.79 420.479 L321.106 420.395 L320.632 420.771 L320.561 422.423 L319.504 424.473 L318.501 428.76 L318.404 434.612 L318.861 435.317 L319.085 437.891 L319.771 439.677 L322.617 442.877 L323.389 442.843 L324.222 443.241 L324.679 442.975 L325.367 443.515 L326.294 443.393 L330.142 441.005 L331.277 438.599 L331.873 438.064 L332.543 432.783 L332.329 430.309 L330.132 423.977 L328.942 422.28 L328.552 422.577 L328.137 422.365 L327.349 420.267 L326.496 420.584 L328.464 423.852 "/></g><g><path fill="none" stroke="#000000" stroke-width="4" stroke-linecap="butt" stroke-linejoin="round" d="M342.657 444.682 L342.455 445.057 L342.102 444.689 L342.332 443.62 L342.433 443.959 L341.979 443.093 L342.106 443.323 L342.265 442.679 L341.946 443.088 L342.29 443.208 L342.722 442.429 "/></g><g><path fill="none" stroke="#000000" stroke-width="4" stroke-linecap="butt" stroke-linejoin="round" d="M363.238 427.45 L362.683 427.045 L363.033 426.679 L362.674 424.909 L362.289 424.941 L361.984 424.29 L361.662 424.708 L361.114 423.9 L360.585 424.47 L359.721 423.611 L359.785 424.193 L357.752 425.329 L356.508 427.376 L355.317 430.688 L354.882 433.444 L354.917 441.651 L355.905 443.405 L356.164 443.612 L356.267 443.155 L356.796 444.138 L359.619 443.863 L363.074 438.81 L363.469 437.655 L364.305 433.302 L364.121 429.249 L362.271 423.827 L361.717 422.958 L361.55 423.422 L360.904 422.829 L360.925 423.382 L361.164 422.804 "/></g><g><path fill="none" stroke="#000000" stroke-width="4" stroke-linecap="butt" stroke-linejoin="round" d="M376.253 423.559 L375.627 422.703 L375.92 423.191 L376.024 422.845 L375.977 421.951 L375.807 422.269 L375.665 422.104 L376.072 420.501 L375.871 420.036 L376.337 420.272 L377.32 417.766 L378.116 417.074 L378.751 415.668 L379.041 415.848 L380.188 414.283 L381.093 413.866 L382.615 412.052 L385.463 409.982 L388.174 409.339 L388.757 409.737 L389.028 409.318 L389.254 409.535 L389.491 408.886 L387.297 416.708 L387.632 420.404 L391.98 425.684 L393.23 426.347 L395.288 428.922 L395.552 428.537 L395.815 430.678 L395.63 432.432 L393.707 435.928 L390.119 438.784 L388.623 439.221 L387.269 439.192 L386.307 439.856 L384.417 440.304 L382.121 439.297 L381.463 437.614 "/></g><g><path fill="none" stroke="#000000" stroke-width="4" stroke-linecap="butt" stroke-linejoin="round" d="M334.226 487.929 L333.686 484.533 L332.988 484.823 L332.624 483.734 L332.109 484.004 L331.696 483.315 L331.36 484.179 L331.388 483.782 L330.835 483.621 L330.538 484.409 L329.916 484.427 L329.102 485.45 L327.847 487.648 L326.919 491.894 L327.02 498.4 L327.965 501.4 L329.002 502.406 L329.442 502.084 L329.72 502.274 L330.457 503.887 L331.544 504.402 L331.883 504.48 L332.549 503.31 L334.273 502.16 L335.538 500.431 L336.9 496.498 L336.775 490.7 L336.28 488.718 L335.453 487.14 L334.698 485.879 L333.97 485.361 L333.882 484.681 L333.762 484.937 L333.491 484.594 L333.793 485.008 L333.665 484.582 L334.311 483.749 L335.993 484.328 "/></g><g><path fill="none" stroke="#000000" stroke-width="4" stroke-linecap="butt" stroke-linejoin="round" d="M350.523 500.521 L350.112 499.975 L349.734 500.066 L349.63 500.677 L350.344 500.474 L350.294 500.202 L350.093 500.563 L349.948 500.31 L350.244 500.554 L350.17 499.678 L350.09 500.432 L350.249 500.054 L350.313 500.478 L349.983 500.071 L350.346 499.92 L350.253 499.535 L350.98 499.455 "/></g><g><path fill="none" stroke="#000000" stroke-width="4" stroke-linecap="butt" stroke-linejoin="round" d="M370.472 483.478 L369.452 481.919 L369.78 482.596 L370.068 481.883 L369.445 481.042 L369.556 480.028 L368.992 480.413 L368.863 479.939 L368.775 480.272 L367.679 480.707 L367.521 480.494 L367.14 481.065 L366.567 481.088 L365.549 481.78 L363.37 485.731 L362.295 491.717 L362.314 495.235 L361.967 495.055 L361.95 495.587 L362.964 498.301 L364.154 499.933 L365.053 499.777 L365.533 498.937 L365.872 499.245 L366.742 498.472 L367.362 497.106 L367.854 497.024 L368.574 495.85 L370.148 491.77 L371.1 487.423 L371.499 481.675 L371.799 480.834 L371.706 480.222 L371.201 479.791 L370.762 476.216 L370.579 476.516 L370.67 477.304 L371.093 476.03 L371.75 475.623 L373.219 475.426 "/></g><g><path fill="none" stroke="#000000" stroke-width="4" stroke-linecap="butt" stroke-linejoin="round" d="M384.384 479.301 L383.769 478.684 L383.495 478.974 L383.883 478.998 L383.915 477.824 L384.013 478.963 L383.726 478.471 L384.429 477.855 L384.515 478.164 L385.257 475.591 L385.338 475.783 L386.619 474.783 L387.634 473.235 L389.246 472.552 L389.496 472.098 L389.728 472.462 L390.639 472.089 L391.848 472.989 L392.59 474.411 L392.567 475.312 L391.981 478.92 L389.898 484.289 L386.84 489.653 L386.281 491.527 L385.81 491.587 L384.805 493.258 L384.415 493.123 L383.182 496.009 L382.481 496.314 L382.434 496.613 L382.566 495.579 L382.677 496.179 L382.762 495.56 L383.068 495.74 L383.001 496.402 L383.329 496.43 L383.307 495.303 L383.497 495.736 L385.807 496.654 L388.617 498.893 L390.707 499.855 L391.888 500.807 L394.703 501.658 L396.54 501.337 L398.144 502.166 L400.003 502.136 L404.008 500.611 L406.539 499.23 L409.307 497.469 L413.657 493.813 "/></g><g><path fill="none" stroke="#000000" stroke-width="4" stroke-linecap="butt" stroke-linejoin="round" d="M426.79 412.138 L426.623 411.091 L426.882 410.633 L427.044 410.793 L427.024 410.355 L426.887 410.524 L427.237 410.523 L427.276 410.274 L427.374 410.723 L427.224 410.386 L427.538 410.527 L427.578 410.225 L427.967 410.271 L429.18 409.231 L429.719 409.522 L430.17 409.141 L430.563 409.339 L431.761 409.065 L432.108 409.497 L432.709 409.347 L433.675 409.72 L434.283 409.452 L436.507 412.651 L437.176 414.764 L436.985 420.2 L436.151 422.034 L435.566 425.537 L433.765 431.071 L432.647 436.596 L432.478 439.896 L433.279 441.388 L433.592 441.358 L433.998 441.946 L434.458 441.591 L434.622 442.381 L437.417 444.089 L439.273 445.681 L440.123 448.658 L439.642 454.309 L438.761 457.445 L438.429 460.236 L438.766 461.562 L439.593 462.138 L439.685 461.584 L439.915 461.611 L440.031 462.867 L441.67 464.065 L441.805 465.163 L442.002 465.005 L442.39 466.043 L442.134 469.697 L439.629 476.266 L439.001 479.224 L438.517 479.71 L437.794 481.954 L437.115 482.065 L437.056 483.986 L435.752 488.313 L435.783 489.509 L436.283 489.381 L437.863 489.978 L439.77 489.676 "/></g><g><path fill="none" stroke="#000000" stroke-width="4" stroke-linecap="butt" stroke-linejoin="round" d="M486.336 437.29 L486.12 437.145 L486.45 436.468 L486.227 435.397 L486.254 435.69 L486.424 435.558 L485.916 435.849 L485.758 436.896 L485.283 435.765 L484.969 436.702 L483.812 437.917 L481.879 441.19 L481.164 443.262 L480.197 446.398 L479.401 452.061 L479.906 457.952 L480.427 458.094 L481.681 460.361 L482.034 460.186 L484.195 460.809 L485.576 460.648 L487.81 458.232 L489.615 454.107 L490.224 450.035 L489.991 447.969 L489.071 444.949 L487.765 442.064 L486.841 441.4 L486.943 440.685 L487.055 441.459 L488.379 441.164 L489.572 441.929 "/></g><g><path fill="none" stroke="#000000" stroke-width="4" stroke-linecap="butt" stroke-linejoin="round" d="M498.728 460.763 L498.714 460.461 L498.225 460.33 L498.503 460.09 L498.685 460.3 L498.453 459.588 L498.152 459.712 L498.373 459.394 L498.291 459.624 L498.066 459.285 L498.214 459.661 L498.215 459.228 L497.949 459.354 L498.389 459.064 "/></g><g><path fill="none" stroke="#000000" stroke-width="4" stroke-linecap="butt" stroke-linejoin="round" d="M515.978 447.211 L516.07 446.271 L516.513 445.627 L516.21 443.606 L516.104 443.806 L515.743 443.587 L515.692 442.683 L515.782 443.342 L515.498 442.835 L514.936 443.903 L514.837 443.698 L514.658 444.077 L514.541 443.852 L514.134 444.033 L514.15 443.815 L513.479 444.95 L513.43 444.437 L513.209 444.762 L513.167 445.696 L511.511 450.631 L511.49 454.333 L511.968 457.022 L512.755 457.694 L513.03 458.677 L513.669 459.168 L514.188 460.457 L514.474 460.038 L515.473 460.093 L515.744 459.733 L516.198 460.189 L517.216 460.299 L518.465 459.916 L520.13 458.696 L522.493 455.836 L522.803 455.884 L523.971 451.732 L523.508 448.717 L523.238 448.726 L522.442 447.225 L521.897 445.178 L521.125 444.815 L520.469 443.872 L519.557 443.283 L517.96 440.617 L517.47 440.941 L516.734 440.276 L516.352 440.959 L516.209 440.476 L516.022 440.796 L516.39 442.032 "/></g><g><path fill="none" stroke="#000000" stroke-width="4" stroke-linecap="butt" stroke-linejoin="round" d="M533.273 438.515 L534.157 437.321 L534.344 435.783 L534.09 437.098 L533.853 436.884 L533.296 437.092 L533.118 436.493 L532.828 436.54 L532.696 437.198 L531.503 438.188 L530.923 438.204 L530.071 439.391 L529.625 441.212 L530.142 443.11 L530.258 442.613 L530.597 442.649 L531.955 444.256 L532.785 444.375 L536.471 447.087 L537.198 447.986 L538.386 448.566 L539.622 450.139 L539.798 449.872 L540.054 450.069 L540.328 452.787 L538.551 455.679 L537.469 456.579 L537.003 457.748 L534.657 459.12 L534.397 459.873 L534.108 459.946 L533.939 459.316 L532.788 458.724 L531.354 458.688 L531.098 457.91 L530.64 457.58 L530.5 455.896 "/></g><g><path fill="none" stroke="#000000" stroke-width="4" stroke-linecap="butt" stroke-linejoin="round" d="M532.088 437.401 L531.175 436.581 L531.477 436.476 L531.688 435.208 L531.837 435.558 L532.37 435.054 L532.687 435.234 L532.772 434.763 L533.496 435.218 L534.774 434.604 L537.294 434.836 L539.459 434.141 L546.817 433.415 L549.206 432.9 L550.772 432.014 L552.69 432.008 L555.083 431.31 "/></g><g><path fill="none" stroke="#000000" stroke-width="4" stroke-linecap="butt" stroke-linejoin="round" d="M555.962 340.347 L556.164 339.9 L556.235 340.418 L556.439 340.053 L556.465 340.598 L556.467 340.305 L556.863 340.43 L556.466 340.635 L556.761 340.71 L556.802 340.281 L556.674 340.772 L556.982 340.864 L560.868 340.841 L561.761 341.424 L562.863 341.564 L564.833 342.787 L566.227 344.708 L566.658 346.159 L566.744 349.686 L565.41 360.405 L565.513 367.766 L566.986 371.801 L567.338 371.851 L568.637 374.9 L569.13 375.628 L569.65 375.832 L570.317 378.385 L570.816 378.849 L571.942 383.867 L572.19 389.071 L571.951 390.731 L572.206 392.08 L571.991 397.709 L573.184 404.841 L575.008 408.087 L575.868 408.706 L577.075 410.722 L578.067 411.726 L578.43 411.746 L579.042 413.61 L579.759 414.16 L580.213 415.822 L580.696 421.193 L576.779 434.478 L575.712 440.329 L575.678 445.563 L576.01 447.944 L576.403 449.267 L576.642 449.685 L576.936 449.622 L578.248 452.18 L578.544 451.644 L578.995 454.175 L579.578 455.365 L579.842 457.703 L579.519 461.922 L576.825 473.227 L577.139 471.809 L577.416 472.049 L577.876 471.756 L578.802 469.77 "/></g><g><path fill="none" stroke="#000000" stroke-width="4" stroke-linecap="butt" stroke-linejoin="round" d="M612.588 381.677 L612.205 379.335 L612.385 378.775 L612.192 377.991 L611.577 377.484 L611.836 378.352 L611.05 378.638 L611.055 379.059 L610.054 380.123 L608.196 383.389 L607.642 386.629 L607.264 393.871 L607.938 397.86 L608.504 399.754 L608.989 400.406 L611.002 401.575 L612.287 401.234 L612.696 400.458 L613.609 400.373 L614.771 399.612 L616.867 396.094 L617.465 393.693 L617.733 389.28 L616.544 384.403 L616.298 384.745 L615.062 383.121 L614.863 383.29 L614.644 382.701 L614.497 383.032 L615.867 384.399 "/></g><g><path fill="none" stroke="#000000" stroke-width="4" stroke-linecap="butt" stroke-linejoin="round" d="M626.44 401.78 L626.048 401.537 L626.522 401.092 L626.52 401.721 L626.382 400.009 L626.833 399.364 "/></g><g><path fill="none" stroke="#000000" stroke-width="4" stroke-linecap="butt" stroke-linejoin="round" d="M637.145 380.096 L636.838 379.371 L637.144 378.127 L637.199 378.348 L637.531 378.018 L637.362 379.389 L638.021 381.876 L638.309 386.19 L638.432 400.189 L638.662 400.735 L639.825 400.077 L639.991 399.53 "/></g><g><path fill="none" stroke="#000000" stroke-width="4" stroke-linecap="butt" stroke-linejoin="round" d="M653.397 381.25 L652.961 380.845 L653.187 380.227 L652.657 379.673 L652.502 379.816 L652.425 379.211 L652.363 379.791 L652.286 378.648 L651.78 379.567 L651.745 379.172 L651.233 379.771 L651.547 379.475 L651.531 380.043 L651.825 379.651 L653.098 381.84 L653.439 381.881 L654.729 383.539 L655.173 384.512 L655.537 384.499 L658.667 389.298 L659.356 391.427 L659.771 391.44 L659.615 395.242 L658.396 398.476 L657.51 399.182 L657.042 399.049 L656.796 399.67 L656.003 400.115 L653.952 399.955 L652.654 399.121 L651.968 399.054 L650.055 395.111 L649.141 391.08 L649.048 388.122 "/></g><g><path fill="none" stroke="#000000" stroke-width="4" stroke-linecap="butt" stroke-linejoin="round" d="M652.318 376.231 L652.169 373.752 L652.479 372.837 L652.563 373.509 L652.61 372.647 L652.855 372.783 L653.268 372.182 L654.507 371.505 L655.211 371.6 L657.384 370.054 L660.234 369.852 L662.369 368.741 L663.047 369.09 L664.522 368.609 L665.927 368.781 L667.442 367.871 L672.687 366.633 "/></g><g><path fill="none" stroke="#000000" stroke-width="4" stroke-linecap="butt" stroke-linejoin="round" d="M680.232 286.956 L680.033 287.292 L680.118 286.628 L680.284 287.198 L680.431 286.96 L681.113 287.67 L681.329 287.546 L682.842 288.934 L683.935 289.386 L684.272 289.985 L685.513 290.739 L686.067 290.719 L689.522 293.271 L691.796 295.719 L692.659 297.974 L692.597 300.592 L691.824 303.657 L689.859 308.758 L687.624 313.015 L686.414 316.449 L685.613 319.583 L685.48 322.645 L685.925 325.427 L686.553 326.197 L687.183 327.875 L689.928 331.088 L690.689 331.732 L691.039 331.678 L691.802 333.647 L693.163 335.523 L693.537 337.146 L693.514 340.022 L691.655 346.257 L690.045 353.285 L689.594 356.985 L689.935 361.252 L690.585 363.424 L691.731 365.516 L696.916 370.514 L697.847 371.925 L698.243 373.234 L698.224 376.929 L697.542 380.441 L694.706 389.349 L693.641 394.839 L692.795 401.052 L692.689 404.55 L692.726 406.581 L693.934 411.628 L695.185 413.702 L695.476 414.022 L695.925 413.909 L696.603 415.325 L698.334 417.349 L699.096 420.626 L699.994 422.83 L700.148 424.209 L699.42 430.158 L697.906 433.554 L697.009 437.189 L694.543 443.084 L692.798 449.498 L692.576 449.457 L692.318 452.451 L693.018 456.062 L693.38 456.032 L694.478 460.544 L694.626 460.304 L694.863 460.924 L694.951 460.679 L695.005 461.89 L695.185 461.747 L695.711 462.661 L697.288 462.161 "/></g><g><path fill="none" stroke="#000000" stroke-width="4" stroke-linecap="butt" stroke-linejoin="round" d="M731.244 365.338 L730.921 364.673 L731.232 363.794 L730.737 362.852 L730.867 361.502 L730.71 361.687 L730.417 360.716 L729.97 360.71 L729.741 359.894 L729.498 360.511 L729.064 360.452 L728.305 361.278 L727.327 361.699 L724.412 367.498 L723.423 372.584 L723.438 375.694 L724.324 379.315 L725.183 380.99 L725.726 381.487 L726.153 381.255 L726.576 382.12 L727.868 382.743 L728.842 382.695 L730.983 381.882 L733.692 378.588 L736.01 371.812 L736.286 369.442 L735.715 364.794 L734.982 363.424 L734.814 361.821 L733.226 359.491 L732.521 359.382 L732.724 358.525 L733.146 361.405 "/></g><g><path fill="none" stroke="#000000" stroke-width="4" stroke-linecap="butt" stroke-linejoin="round" d="M747.694 384.533 L746.364 381.867 L746.003 382.132 L745.905 381.435 "/></g><g><path fill="none" stroke="#000000" stroke-width="4" stroke-linecap="butt" stroke-linejoin="round" d="M758.913 359.796 L757.597 357.818 L757.618 356.528 L760.302 353.529 L760.819 353.24 L761.23 353.412 L762.315 352.552 L764.348 351.705 L766.235 351.721 L766.396 351.412 L766.707 351.922 L767.747 352.206 L768.137 353.546 L768.232 355.502 L765.106 363.153 L764.957 365.939 L765.092 365.607 L765.311 365.995 L765.306 365.687 L765.734 367.052 L768.342 370.018 L768.648 370.728 L769.41 370.876 L770.506 373.419 L770.755 376.465 L769.056 381.086 L768.133 381.87 L766.886 383.74 L765.906 383.98 L765.025 384.667 L764.504 384.264 L764.311 384.552 L763.195 383.51 L762.776 383.514 L761.743 380.794 L762.529 378.64 L763.726 377.58 "/></g><g><path fill="none" stroke="#000000" stroke-width="4" stroke-linecap="butt" stroke-linejoin="round" d="M785.927 362.936 L786.006 360.579 L785.656 361.073 L784.908 360.492 L783.502 360.915 L783.325 360.428 L782.814 361.826 L781.532 362.897 L780.106 365.532 L778.366 371.016 L777.925 375.344 L778.008 378.276 L778.578 380.702 L779.865 382.798 L781.024 383.783 L783.541 384.752 L785.761 384.251 L788.473 382.313 L789.397 381.396 L791.055 378.396 L792.033 375.497 L792.514 371.766 L792.449 368.68 L791.742 364.393 L789.736 359.834 L789.213 359.333 L788.678 359.5 L786.877 358.593 L785.362 358.461 "/></g><g><path fill="none" stroke="#000000" stroke-width="4" stroke-linecap="butt" stroke-linejoin="round" d="M662.716 166.156 L662.758 165.86 L662.417 165.955 L662.556 165.543 L662.283 165.495 "/></g><g><path fill="none" stroke="#000000" stroke-width="4" stroke-linecap="butt" stroke-linejoin="round" d="M438.655 164.727 L438.791 164.407 L438.456 164.461 L439.032 164.459 L438.831 164.57 L439.176 164.545 L439.164 164.816 L439.179 164.514 L439.252 164.803 L440.853 165.358 L442.542 165.585 L444.101 166.707 L444.743 167.328 L445.705 170.089 L445.71 172.218 L444.647 177.536 L439.509 190.418 L438.774 193.344 L435.744 199.673 L434.881 205.398 L435.864 206.988 L437.237 207.05 L440.488 208.41 L443.004 208.926 L444.234 210.522 L444.777 212.398 L444.426 217.748 L440.527 233.82 L440.597 237.465 L441.491 240.841 L441.684 245.203 L441.419 249.752 L440.814 253.624 L439.811 256.459 L439.162 260.862 L438.493 262.032 L438.576 262.362 L438.764 261.528 L441.138 259.725 "/></g><g><path fill="none" stroke="#000000" stroke-width="4" stroke-linecap="butt" stroke-linejoin="round" d="M501.173 189.978 L500.845 189.021 L501.056 188.432 L500.859 186.344 L500.171 184.779 L500.209 185.314 L499.073 186.53 L497.677 190.208 L496.245 197.657 L496.126 201.635 L496.621 205.397 L497.111 207.057 L497.968 207.867 L498.193 208.905 L499.18 210.119 L502.06 209.91 L503.91 208.503 L505.231 206.969 L506.68 204.172 L507.429 200.084 L507.22 196.223 L506.306 192.79 L505.861 191.764 L505.125 191.654 L504.657 190.095 L503.287 187.916 L501.603 186.351 L501.542 185.893 L501.743 186.063 L501.583 186.305 L501.875 186.086 L503.854 187.054 "/></g><g><path fill="none" stroke="#000000" stroke-width="4" stroke-linecap="butt" stroke-linejoin="round" d="M517.663 215.887 L516.509 215.486 L517.285 215.224 L516.641 214.59 L516.558 212.886 L516.81 211.78 L517.424 210.801 L517.897 210.717 "/></g><g><path fill="none" stroke="#000000" stroke-width="4" stroke-linecap="butt" stroke-linejoin="round" d="M536.714 183.15 L536.207 182.887 L536.442 181.968 L536.277 181.235 L536.152 181.584 L536.077 181.322 L536.043 182.549 L535.723 182.691 L535.533 183.449 L535.25 187.885 L535.959 193.253 L537.236 195.161 L539.572 195.542 L542.264 194.197 L544.811 191.818 L545.482 190.355 L546.944 188.885 L547.187 188.115 L547.341 188.268 L547.097 189.479 L546.893 188.978 L546.848 191.677 L546.38 193.957 L546.302 202.37 L546.908 208.09 L547.564 208.833 L547.735 208.48 "/></g><g><path fill="none" stroke="#000000" stroke-width="4" stroke-linecap="butt" stroke-linejoin="round" d="M563.045 185.714 L562.527 184.765 L562.666 184.042 L561.522 182.942 L561.129 183.35 L560.941 183.139 L559.659 183.323 L558.96 183.987 L558.591 183.946 L557.238 185.616 L557.05 188.605 L557.478 190.238 L558.763 191.738 L559.291 192.949 L560.508 193.553 L561.544 194.679 L562.988 195.246 L564.516 196.473 L565.094 196.475 L565.961 197.994 L565.915 199.576 L564.606 201.551 L560.778 204.87 L558.863 205.638 L558.613 204.504 L559.197 203.053 "/></g><g><path fill="none" stroke="#000000" stroke-width="4" stroke-linecap="butt" stroke-linejoin="round" d="M560.544 183.502 L559.251 182.244 L559.897 182.091 L560.584 180.31 L563.177 177.278 L565.388 175.442 L572.613 171.886 L577.851 170.425 L579.125 170.375 L581.755 169.109 "/></g><g><path fill="none" stroke="#000000" stroke-width="4" stroke-linecap="butt" stroke-linejoin="round" d="M812.845 151.858 L812.88 150.473 L813.268 149.902 L813.504 150.26 L813.693 150.03 L813.261 150.192 L813.599 150.608 L813.543 150.346 L815.086 151.216 L816.917 152.497 L819.679 154.854 L820.162 155.73 L820.532 155.779 L822.115 157.894 L824.125 162.04 L825.275 166.242 L825.849 170.56 L825.585 175.872 L822.787 189.794 L821.564 198.447 L820.915 205.25 L820.799 210.355 L821.623 215.762 L822.826 220.471 L825.427 226.728 L827.952 230.501 L829.914 235.901 L830.803 239.693 L831.057 243.295 L831.099 250.525 L828.175 265.558 L826.415 279.293 L826.287 282.89 L826.644 286.789 L828.064 293.124 L829.658 296.906 L830.496 298.046 L831.295 300.866 L831.951 301.934 L832.638 306.226 L832.627 309.762 L831.281 315.942 L827.022 327.531 L824.452 335.974 L822.828 343.608 L822.157 352.95 L822.536 358.879 L823.076 360.454 L823.55 363.857 L825.439 369.372 L827.465 373.491 L828.936 378.996 L829.427 382.55 L829.045 389.734 L827.945 396.019 L826.315 413.469 L826.715 421.492 L828.222 432.871 L827.929 440.071 L826.93 446.681 L827.009 448.185 L827.11 447.62 L827.5 447.862 L828.934 446.968 "/></g><g><path fill="none" stroke="#000000" stroke-width="4" stroke-linecap="butt" stroke-linejoin="round" d="M875.349 270.379 L874.83 269.082 L874.922 268.054 L874.779 268.22 L874.624 267.799 L874.271 267.971 L874.179 268.612 L872.73 269.653 L870.723 273.255 L869.502 276.837 L868.929 279.345 L868.438 284.315 L868.977 289.758 L869.593 291.598 L871.301 293.509 L871.593 293.211 L873.307 293.368 L874.897 292.899 L875.694 292.283 L878.446 289.103 L880.243 285.139 L880.708 282.427 L880.603 279.9 L879.964 277.328 L879.734 276.839 L879.553 277.018 L878.855 276.65 L878.094 275.242 L877.185 274.967 L876.88 275.125 L876.953 275.442 L877.252 275.187 L878.5 277.343 "/></g><g><path fill="none" stroke="#000000" stroke-width="4" stroke-linecap="butt" stroke-linejoin="round" d="M894.292 295.219 L893.157 293.907 L893.584 293.874 L893.667 293.37 L892.282 291.751 L891.815 291.816 L891.818 290.971 L891.632 291.539 L891.776 291.311 L892.141 291.595 "/></g><g><path fill="none" stroke="#000000" stroke-width="4" stroke-linecap="butt" stroke-linejoin="round" d="M902.833 267.428 L901.715 266.626 L902.092 266.718 L901.757 266.62 L901.797 266.315 L902.189 266.426 L902.521 265.954 L902.85 266.283 L905.809 265.399 L906.594 265.798 L907.959 265.749 L910.1 266.38 L911.23 267.178 L912.019 267.074 L913 267.503 L914.236 268.731 L915.606 271.118 L915.208 274.823 L912.691 281.354 L910.323 289 L910.155 291.927 L911.444 289.388 "/></g><g><path fill="none" stroke="#000000" stroke-width="4" stroke-linecap="butt" stroke-linejoin="round" d="M905.65 280.665 L905.251 280.73 L904.838 280.16 L904.851 280.501 L905.151 280.397 L905.237 280.659 L906.013 280.183 L906.181 279.698 L909.576 278.779 L910.608 278.074 L912.45 277.536 L915.761 277.298 L917.198 277.538 "/></g><g><path fill="none" stroke="#000000" stroke-width="4" stroke-linecap="butt" stroke-linejoin="round" d="M929.629 267.158 L929.142 266.048 L929.492 265.931 L929.727 265.301 L929.525 264.207 L929.471 264.443 L929.161 264.074 L927.631 264.304 L926.141 265.276 L925.487 267.713 L925.818 268.451 L925.969 271.275 L928.2 275.2 L930.901 277.714 L933.035 281.054 L933.965 283.737 L933.594 285.987 L932.762 287.346 L931.006 288.882 L928.86 290.042 L926.053 290.672 L924.744 290.047 L924.341 290.158 L923.585 289.554 L922.786 287.951 L922.655 286.043 "/></g><g><path fill="none" stroke="#000000" stroke-width="4" stroke-linecap="butt" stroke-linejoin="round" d="M925.857 265.421 L924.959 265.021 L925.156 264.452 L926.091 264.891 L926.314 264.227 L927.011 264.383 L934.033 262.546 L936.958 262.076 L944.287 261.652 L947.107 260.993 L948.035 261.215 L951.151 260.885 "/></g><g><path fill="none" stroke="#000000" stroke-width="4" stroke-linecap="butt" stroke-linejoin="round" d="M968.398 90.0817 L968.308 89.4525 L968.846 89.4756 L968.48 89.9349 L971.21 97.5379 L975.082 105.092 L977.662 110.893 L979.699 116.284 L981.293 122.633 L981.604 126.801 L981.403 133.984 L978.995 153.153 L979.279 159.861 L981.276 167.668 L982.328 169.513 L986.749 180.493 L987.246 185.112 L986.996 191.775 L985.998 195.406 L980.607 208.057 L977.592 216.509 L975.621 223.394 L974.595 228.957 L974.004 234.151 L974.037 238.231 L975.703 248.42 L978.158 256.8 L979.207 263.119 L979.036 273.621 L976.473 283.189 L971.71 296.891 L968.046 308.85 L965.827 321.632 L966.034 338.716 L967.034 343.121 L967.895 353.194 L968.273 364.728 L967.544 371.544 L963.795 390.816 L959.192 406.804 L957.96 415.995 L958.095 421.608 L958.822 426.477 L959.806 430.522 L960.834 432.228 L961.39 434.315 L962.333 440.479 L962.503 446.705 L961.289 458.3 L961.466 458.811 L961.571 458.366 L962.284 458.673 L964.207 456.854 "/></g><g><path fill="none" stroke="#000000" stroke-width="4" stroke-linecap="butt" stroke-linejoin="round" d="M1025.62 250.932 L1024.98 250.132 L1025.72 249.818 L1025.67 249.463 L1025.91 249.621 L1025.59 250.567 L1025.97 252.059 L1026.01 256.39 L1025.6 261.191 L1025.04 262.689 L1024.71 265.177 L1024.73 267.978 L1024.34 270.928 L1024.49 274.515 L1024.79 275.474 L1025.68 276.345 L1027.39 276.727 "/></g><g><path fill="none" stroke="#000000" stroke-width="4" stroke-linecap="butt" stroke-linejoin="round" d="M1037.79 277.429 L1037.32 276.912 L1037.68 277.336 L1037.75 276.575 L1037.83 277.202 L1037.37 277.144 L1037.71 277.432 "/></g><g><path fill="none" stroke="#000000" stroke-width="4" stroke-linecap="butt" stroke-linejoin="round" d="M1062.74 259.72 L1062.69 258.755 L1063.13 258.02 L1062.39 256.512 L1059.01 256.157 L1055.92 257.36 L1053.24 260.911 L1051.67 264.373 L1050.57 268.638 L1050.92 270.975 L1051.84 272.009 L1052.09 272.879 L1053.73 273.963 L1055.42 274.265 L1058.71 273.619 L1061.33 271.848 L1062.81 269.629 L1063.38 267.323 L1062.93 264.09 L1062.3 262.755 L1060.88 261.169 L1059.03 260.536 "/></g><g><path fill="none" stroke="#000000" stroke-width="4" stroke-linecap="butt" stroke-linejoin="round" d="M292.535 941.611 L291.889 941.261 L292.545 941.609 L292.265 941.581 L292.596 941.986 L292.226 942.58 L292.528 942.959 L291.742 944.688 L290.587 953.731 L290.585 959.529 L290.799 959.556 L290.599 961.76 L290.745 961.297 L290.864 961.898 L290.931 964.269 L291.394 966.419 L292.755 967.801 L293.625 967.638 L294.01 968.792 L294.175 968.169 L295.461 967.797 L295.777 967.218 L296.292 967.036 L296.663 967.386 L297.414 967.032 L301.342 963.718 L304.178 959.841 L305.008 957.673 "/></g><g><path fill="none" stroke="#000000" stroke-width="4" stroke-linecap="butt" stroke-linejoin="round" d="M285.405 939.067 L284.904 938.498 L285.199 939.067 L285.845 938.378 L285.508 938.451 L285.569 938.175 L287.194 937.571 L287.884 936.367 L289.517 934.65 L292.312 934.401 L294.358 933.474 L297.513 933.908 L297.955 933.475 L299.327 935.197 "/></g><g><path fill="none" stroke="#000000" stroke-width="4" stroke-linecap="butt" stroke-linejoin="round" d="M289.045 954.437 L289.144 955.115 L289.224 954.351 L289.533 954.113 L291.385 953.552 L294.489 951.937 L295.95 951.031 L296.895 949.941 L300.054 947.92 L301.438 947.858 L303.18 946.895 L303.687 946.19 L305.478 946.296 "/></g><g><path fill="none" stroke="#000000" stroke-width="4" stroke-linecap="butt" stroke-linejoin="round" d="M319.139 936.412 L318.672 935.717 L318.658 936.708 L318.628 935.617 L318.103 935.232 L317.87 935.893 L317.804 935.476 L316.666 935.745 L316.278 936.264 L314.626 936.582 L314.5 937.343 L313.996 937.798 L313.506 937.437 L313.237 937.678 L311.961 939.969 L310.896 941 L309.991 944.884 L310.62 947.655 L311.155 948.257 L311.409 948.167 L312.16 950.055 L312.731 950.832 L313.511 951.183 L315.097 954.391 L315.43 953.839 L316.508 954.88 L316.763 954.194 L317.431 956.299 L318.817 957.987 L319.804 960.294 L319.921 962.106 L320.013 961.594 L319.616 963.68 L318.392 965.066 L318.07 964.777 L317.572 966.041 L316.039 967.288 L314.295 967.809 L314.019 968.3 L313.438 968.431 L312.568 967.252 L311.893 967.108 L311.605 966.352 L311.781 964.666 "/></g><g><path fill="none" stroke="#000000" stroke-width="4" stroke-linecap="butt" stroke-linejoin="round" d="M341.416 935.822 L341.354 936.521 L341.431 935.593 L340.895 935.837 L340.768 935.126 L340.991 935.36 L341.011 935.149 L340.885 935.522 L340.259 935.346 L339.943 936.13 L339.944 935.566 L339.641 935.446 L339.204 935.55 L338.86 936.195 L338.459 935.839 L337.798 936.182 L333.928 939.175 L332.09 942.11 L330.389 946.95 L329.227 951.451 L328.269 959.711 L328.283 962.941 L328.772 965.655 L329.181 966.593 L329.364 966.446 L329.614 967.792 L330.391 968.806 L333.106 969.942 L333.606 970.505 L334.25 970.529 L335.017 969.957 L337.276 969.629 L338.857 969.004 L339.732 969.138 L342.625 967.096 L344.179 965.188 L345.814 965.009 L348.505 962.457 "/></g><g><path fill="none" stroke="#000000" stroke-width="4" stroke-linecap="butt" stroke-linejoin="round" d="M447.558 938.416 L447.387 937.881 L447.104 938.1 L447.326 938.523 L447.774 938.576 L447.396 939.324 L447.321 938.477 L447.266 940.227 L446.634 941.348 L446.379 942.615 L445.525 952.003 L445.387 957.918 L445.609 961.538 L445.816 962.117 L445.935 961.067 L446.056 962.552 "/></g><g><path fill="none" stroke="#000000" stroke-width="4" stroke-linecap="butt" stroke-linejoin="round" d="M434.234 939.986 L433.753 939.278 L433.539 939.375 L434.356 939.137 L434.545 939.49 L434.34 939.274 L434.651 938.757 L434.636 939.057 L435.344 938.989 L435.834 939.472 L436.863 937.887 L438.228 937.111 L439.108 937.383 L441.543 937.016 L447.632 938.251 L453.422 941.035 L454.014 941.588 L455.116 941.782 "/></g><g><path fill="none" stroke="#000000" stroke-width="4" stroke-linecap="butt" stroke-linejoin="round" d="M460.056 940.615 L459.667 940.908 L459.416 940.391 L459.947 940.827 L459.528 941.218 L459.005 946.5 L458.691 961.719 L458.778 961.062 L458.827 961.713 L459.124 961.093 L458.833 960.026 L459.006 959.73 L459.086 960.317 L459.335 958.317 L459.987 948.099 L460.666 945.408 L462.851 940.666 L463.492 940.161 L463.791 940.458 L464.132 939.293 L464.696 939.383 L464.991 938.481 L465.541 939.84 L466.197 939.97 L466.675 941.034 L466.965 941.028 L469.016 947.927 L469.388 951.395 L470.536 956.909 L470.5 958.24 L470.808 959.37 L471.36 959.489 L471.416 959.88 L471.342 961.718 L471.726 963.153 L471.535 964.004 L471.113 964.42 L470.929 964.154 "/></g><g><path fill="none" stroke="#000000" stroke-width="4" stroke-linecap="butt" stroke-linejoin="round" d="M458.796 951.88 L458.416 951.521 L458.926 951.484 L458.809 951.3 L459.149 951.67 L460.849 950.335 L463.342 949.762 L464.005 948.979 L464.336 949.222 L465.996 948.907 L466.792 949.503 L468.836 948.313 L469.732 949.133 L470.193 948.679 L471.804 948.836 L472.257 948.314 L472.817 948.353 "/></g><g><path fill="none" stroke="#000000" stroke-width="4" stroke-linecap="butt" stroke-linejoin="round" d="M480.368 940.955 L480.287 940.532 L480.482 940.621 L480 941.437 L480.061 942.588 L479.848 941.612 L479.533 941.737 L479.736 943.545 L479.185 947.581 L479.792 958.556 L480.518 962.682 L480.8 961.847 "/></g><g><path fill="none" stroke="#000000" stroke-width="4" stroke-linecap="butt" stroke-linejoin="round" d="M477.875 942.047 L477.708 942.679 L477.187 941.444 L477.917 940.26 L478.3 940.284 L480.027 936.81 L480.584 936.491 L480.958 936.744 L482.808 934.889 L483.877 934.943 L485.174 934.458 L485.576 934.742 L485.613 935.548 L485.883 935.521 L486.022 934.832 L486.499 935.167 L486.974 936.611 L486.148 940.176 L485.618 940.365 L485.28 942.396 L484.482 943.338 L483.933 945.061 L483.585 945.075 L482.514 946.695 L481.767 948.886 L481.76 950.299 L482.121 949.472 L482.496 950.259 L482.737 950.458 L482.942 949.995 L483.317 951.065 L483.83 951.338 L484.999 951.599 L486.842 952.744 L487.533 952.582 L488.641 953.229 L488.992 953.108 L490.775 955.031 L491.44 956.919 L491.268 959.516 L490.349 960.822 L489.744 962.979 L489.215 963.123 L487.887 964.711 L487.295 964.93 L486.533 965.933 L484.694 967.385 L482.818 967.461 L482.121 967.882 L481.197 967.49 L480.527 966.578 L479.634 966.187 L478.688 963.548 "/></g><g><path fill="none" stroke="#000000" stroke-width="4" stroke-linecap="butt" stroke-linejoin="round" d="M339.379 905.969 L338.965 906.172 L339.114 906.454 L338.414 906.695 L338.387 907.248 L338.138 906.898 L337.714 907.131 L337.509 906.937 L337.401 907.652 L337.082 908.029 L336.946 907.857 L337.204 907.833 L337.143 908.28 L337.404 907.709 L337.719 908.01 L337.793 907.535 L338.045 908.047 L339.29 906.568 L340.403 906.673 L343.232 905.466 L348.646 901.749 L353.592 897.653 L354.906 897.729 L356.254 896.984 L357.698 894.988 L365.719 888.171 L368.858 886.808 L370.553 885.672 L375.078 881.922 L382.992 876.509 L386.192 873.555 L389.121 871.448 L390.815 871.164 L393.239 868.941 L395.188 867.679 L395.622 866.976 L395.814 867.22 L395.515 867.743 L395.041 867.809 L394.402 868.472 "/></g><g><path fill="none" stroke="#000000" stroke-width="4" stroke-linecap="butt" stroke-linejoin="round" d="M412.573 871.939 L412.449 871.534 L411.661 871.529 L411.442 871.256 L411.295 871.696 L411.173 870.893 L410.701 870.357 L409.8 870.088 L409.662 869.066 L409.304 870.246 L409.305 869.142 L409.146 868.718 L409.022 869.16 L408.996 868.757 L409.242 868.572 L409.018 868.919 L409.345 869.746 L409.449 869.255 L409.785 870.393 L413.176 874.302 L414.464 877.2 L414.992 877.18 L423.436 887.834 L426.076 890.438 L426.824 891.87 L427.803 892.889 L428.592 893.153 L430.01 894.696 L433.197 899.263 L434.409 900.142 L438.586 904.696 L439.807 906.913 L441.856 908.825 L444.098 911.712 L448.65 919.01 L448.835 921.434 L448.909 920.285 L448.863 920.645 L448.661 920.366 L448.804 920.839 L449.066 920.833 L448.848 920.829 L448.983 921.221 L449.262 920.918 L449.648 921.13 L450.466 922.149 L452.246 921.795 "/></g><g><path fill="none" stroke="#000000" stroke-width="4" stroke-linecap="butt" stroke-linejoin="round" d="M574.269 851.126 L574.341 850.541 L574.818 850.214 L574.814 851.457 L574.662 851.771 L574.62 850.85 L573.845 857.338 L573.337 867.247 L573.644 870.857 L573.867 870.622 L574.037 871.14 L574.498 869.847 "/></g><g><path fill="none" stroke="#000000" stroke-width="4" stroke-linecap="butt" stroke-linejoin="round" d="M571.287 845.271 L570.922 844.769 L570.958 843.808 L571.449 843.779 L571.887 843.087 L572.385 842.962 L572.839 843.646 L573.205 843.476 L573.172 842.648 L573.931 842.029 L574.454 842.679 L575.617 842.771 L576.154 842.472 L576.387 842.967 L577.638 843.571 L577.882 844.354 L578.315 844.647 L578.667 844.273 L579.687 844.92 L580.284 846.151 L581.091 846.409 L581.491 847.179 L581.748 846.692 L582.11 846.95 L582.432 848.679 L583.596 850.673 L583.787 852.087 L583.45 854.922 L581.59 859.015 L580.233 861.125 L579.085 861.554 L577.93 862.959 L576.569 862.703 L575.919 863.308 L575.337 863.37 L574.357 862.479 L574.299 863.002 L574.213 861.962 L574.348 862.168 L575.884 861.726 L576.371 862.06 L578.707 862.159 L580.207 862.908 L580.706 862.662 L584.807 866.514 L585.743 866.633 L590.746 869.909 L592.838 870.707 L594.123 871.829 L595.539 872.167 L596.671 871.904 L597.222 872.561 L599.233 872.759 L599.618 873.552 L600.188 873.488 L600.758 872.82 L603.562 871.999 L605.749 869.998 L606.391 868.663 "/></g><g><path fill="none" stroke="#000000" stroke-width="4" stroke-linecap="butt" stroke-linejoin="round" d="M407.267 850.897 L407.154 849.807 L406.56 850.305 L406.132 849.835 L405.935 850.432 L405.721 850.152 L404.857 850.898 L404.861 850.567 L404.731 851.261 L404.949 851.41 L404.819 850.394 L405.241 850.845 L405.609 850.112 L405.839 850.101 L405.745 850.367 L407.196 849.7 L407.361 850.107 L407.781 850.087 L408.729 848.713 L412.069 846.545 L417.175 841.485 L420.447 839.158 L422.629 836.711 L426.238 833.431 L428.957 832.07 L431.351 829.377 L442.574 821.154 L443.921 819.768 L454.076 813.619 L468.263 804.203 L470.399 803.544 L471.311 802.572 L474.454 800.362 L475.381 799.132 L476.409 798.409 L477.198 798.475 L477.943 798.14 L484.908 793.23 L485.801 793.227 L486.649 792.075 L486.679 791.149 L486.909 791.121 L486.922 791.674 L487.258 791.618 L487.682 790.919 L487.645 791.559 L487.763 790.44 L487.623 790.927 L487.468 790.284 L487.742 791.167 L487.657 790.716 L487.541 791.517 L487.664 790.219 L487.625 790.955 L487.879 790.428 L488.358 790.298 L488.339 790.867 L489.335 788.79 L489.725 789.02 L490.6 787.954 L490.623 788.725 L490.758 787.557 L490.686 788.246 L490.488 788.563 L490.337 788.302 L490.526 789.183 L489.983 790.489 L489.67 790.488 "/></g><g><path fill="none" stroke="#000000" stroke-width="4" stroke-linecap="butt" stroke-linejoin="round" d="M503.393 788.69 L502.803 788.933 L502.965 788.173 L502.378 786.656 L502.082 787.856 L502.318 786.628 L502.162 787.448 L502.37 787.354 L502.605 787.952 L502.564 787.53 L502.721 788.397 L504.293 789.06 L505.606 790.941 L507.104 792.071 L508.685 792.771 L510.873 795.115 L514.175 797.315 L515.901 798.204 L519.082 800.526 L519.931 800.413 L520.688 800.854 L522.504 803.022 L523.536 803.75 L532.492 808.835 L537.434 812.011 L538.295 812.203 L540.277 814.163 L545.604 817.044 L548.747 819.448 L550.226 821.281 L550.916 821.024 L552.142 821.541 L553.964 823.245 L556.293 824.743 L557.515 826.211 L557.848 827.484 L558.144 826.996 L558.566 827.224 L558.809 829.077 L558.941 828.052 L559.039 828.998 L559.466 828.644 L560.071 829.651 L560.366 829.659 L560.631 829.038 "/></g><g><path fill="none" stroke="#000000" stroke-width="4" stroke-linecap="butt" stroke-linejoin="round" d="M723.846 775.246 L724.006 774.433 L723.556 773.897 L722.947 774.27 L722.734 773.752 L721.439 774.072 L719.884 773.57 L719.218 774.748 L718.97 774.232 L717.937 774.4 L717.565 774.058 L715.949 775.341 L715.657 775.396 L715.381 774.827 L714.878 774.912 L714.317 776.155 L711.743 777.607 L711.363 778.989 L710.879 777.805 L710.96 778.669 L711.241 778.708 L711.23 778.205 L711.447 779.052 L711.827 778.458 L711.99 780.023 L712.31 779.311 L716.853 782.428 L717.392 783.813 L717.89 783.803 L718.567 784.81 L719.352 787.778 L719.517 790.752 L718.274 794.503 L717.037 796.917 L715.667 798.098 L715.241 798.001 L714.828 798.37 L714.195 799.658 L712.256 800.511 L711.468 800.247 L710.161 800.724 L709.674 800.642 L708.795 799.789 L707.779 799.571 L707.478 798.696 L707.042 798.503 L706.659 798.893 L702.591 794.105 L701.94 792.719 L701.974 790.979 "/></g><g><path fill="none" stroke="#000000" stroke-width="4" stroke-linecap="butt" stroke-linejoin="round" d="M513.54 769.085 L513.289 768.896 L513.056 769.108 L512.959 768.769 L513.039 769.376 L512.069 769.746 L511.912 770.148 L511.734 769.914 L511.642 770.391 L511.408 770.277 L511.784 770.814 L511.761 770.003 L511.718 770.583 L511.768 770.281 L512.223 770.833 L512.403 769.76 L512.569 770.183 L512.696 769.822 L514.074 769.332 L514.557 770.035 L515.169 769.93 L515.631 768.656 L517.493 766.969 L518.062 766.048 L518.764 765.731 L519.475 765.88 L522.13 764.157 L527.842 759.596 L535.824 754.401 L540.472 750.788 L544.121 748.969 L545.773 747.793 L549.177 744.488 L563.721 734.671 L565.713 732.595 L567.761 731.612 L569.526 731.526 L572.442 729.033 L574.979 726.452 L576.127 724.693 L577.449 723.601 L578.677 723.436 L583.504 721.243 L588.757 717.273 L590.313 717.199 L590.975 716.3 L592.769 715.141 L593.473 713.828 L593.824 714.147 L594.939 713.832 L595.131 713.288 L594.886 713.282 L594.866 713.881 L594.706 713.025 L594.68 713.804 L594.84 713.416 L594.607 713.4 L594.706 713.754 L594.955 713.524 L594.8 714.047 L594.779 713.023 L594.652 713.703 L594.599 713.462 L594.585 713.778 L594.34 713.616 L595.637 714.377 "/></g><g><path fill="none" stroke="#000000" stroke-width="4" stroke-linecap="butt" stroke-linejoin="round" d="M622.831 714.734 L622.306 714.673 L621.54 714.124 L621.375 713.63 L621.073 713.731 L619.923 712.847 L619.663 713.549 L619.373 713.521 L619.46 712.646 L618.865 712.032 L618.663 712.543 L618.458 711.81 L618.352 712.291 L618.709 711.496 L618.636 712.559 L618.989 712.255 L620.206 713.473 L621.073 713.578 L623.419 716.004 L623.898 717.314 L624.484 717.889 L625.02 717.209 L626.698 718.523 L627.322 718.235 L628.431 720.047 L633.503 724.21 L635.908 725.81 L637.661 727.886 L638.742 728.095 L642.433 730.587 L644.253 732.94 L645.357 733.075 L648.366 735.101 L649.481 735.261 L653.472 739.258 L656.717 741.429 L663.494 747.876 L666.797 749.82 L672.163 754.35 L676.817 757.581 L681.163 759.993 L681.924 760.118 L686.64 763.828 L688.092 764.072 L688.594 764.931 L690.897 766.372 L692.297 768.016 L692.48 767.625 L692.844 768.107 L692.997 767.694 L693.288 768.564 L693.611 768.463 L693.416 769.455 L693.348 767.976 L693.266 768.637 L694.473 768.7 L694.76 768.379 L695.078 769.249 "/></g><g><path fill="none" stroke="#000000" stroke-width="4" stroke-linecap="butt" stroke-linejoin="round" d="M802.763 785.344 L802.44 784.39 L803.822 780.527 L803.306 782.056 L803.552 785.223 L803.239 795.062 L803.37 796.915 L803.558 796.556 L803.734 796.882 L803.95 799.532 L804.577 800.51 L804.674 800.017 L804.875 800.258 L804.952 801.021 L806.347 799.563 L806.654 798.585 L807.283 798.108 L807.835 798.128 L811.21 793.651 L812.897 790.743 L813.845 790.098 L816.064 786.418 L816.758 786.198 L818.537 783.709 L819.012 784.498 L819.189 783.993 L819.186 785.229 L819.196 784.606 L820.2 787.949 L822.157 792.668 L823.61 794.993 L823.738 795.989 L825.582 797.653 L825.994 797.312 L826.54 798.686 L827.468 799.23 L829.196 799.694 L829.838 799.329 L830.028 799.803 L830.358 799.77 L831.57 797.806 L832.58 795.187 L832.758 793.224 L832.565 786.695 L832.181 783.84 L831.658 782.552 L831.251 776.713 L831.727 775.432 L831.808 775.876 L832.158 775.629 L832.364 774.608 L833.4 772.886 "/></g><g><path fill="none" stroke="#000000" stroke-width="4" stroke-linecap="butt" stroke-linejoin="round" d="M974.609 775.236 L975.019 773.161 L975.268 773.33 L975.208 773.09 L975.018 773.624 L975.303 773.598 L974.772 774.101 L974.687 773.898 L974.765 774.965 L972.974 787.04 L973.067 795.059 L973.287 795.801 L973.459 795.514 L973.801 798.412 L973.917 798.767 L974.351 798.76 L974.327 799.089 L974.649 798.287 L974.816 798.687 L975.95 797.754 L977.153 795.418 "/></g><g><path fill="none" stroke="#000000" stroke-width="4" stroke-linecap="butt" stroke-linejoin="round" d="M973.265 772.914 L972.587 771.766 L972.467 772.026 L972.141 771.63 L972.211 770.809 L971.94 770.921 L972.341 770.887 L972.351 770.416 L972.405 770.981 L972.574 770.499 L974.232 771.894 L974.666 771.341 L976.546 771.383 L979.52 772.915 L980.117 772.549 L980.577 772.776 L981.148 773.544 L984.218 775.277 L985.904 776.893 L986.603 777.11 L987.788 778.996 L988.5 778.931 L989.184 779.342 L990.801 780.813 L992.051 783.597 L992.651 784.193 L993.661 787.694 L993.338 790.018 L991.815 793.197 L985.066 799.24 L980.931 801.272 L977.065 802.148 L976.293 803.188 L975.443 803.471 L974.86 802.839 L972.82 802.976 L971.799 802.542 L970.355 803.305 L966.756 801.996 L965.047 801.921 L964.455 801.551 L963.524 800.655 L963.569 797.58 L965.154 795.071 "/></g><g><path fill="none" stroke="#000000" stroke-width="4" stroke-linecap="butt" stroke-linejoin="round" d="M833.117 753.818 L833.159 753.296 L833.04 753.612 L832.773 753.394 L832.785 752.309 L832.988 752.406 L833.37 751.19 L834.667 749.059 L835.995 748.154 L836.735 746.915 L837.954 746.215 L838.94 744.932 L841.024 743.395 L844.387 738.693 L846.191 737.925 L846.968 736.76 L850.869 732.836 L856.633 728.593 L858.258 726.454 L863.532 722.534 L864.864 720.937 L869.762 717.025 L870.542 715.7 L871.037 715.354 L871.237 715.707 L872.645 713.837 L873.054 713.663 L873.11 714.451 L873.319 714.41 L873.341 713.141 L873.126 713.334 L873.109 713.117 L873.255 713.473 L873.304 713.048 L873.056 713.108 L873.072 712.689 L872.924 712.935 L873.029 712.521 L872.912 713.151 L872.964 712.95 L872.582 712.994 L872.952 713.511 L872.565 714.538 "/></g><g><path fill="none" stroke="#000000" stroke-width="4" stroke-linecap="butt" stroke-linejoin="round" d="M895.267 708.403 L893.402 707.37 L892.767 706.656 L892.059 706.525 L891.969 705.727 L891.975 705.998 L891.724 705.946 L891.769 705.496 L892.128 705.736 L892.11 705.306 L892.313 706.331 L892.193 705.766 L892.477 706.437 L892.709 706.191 L893.302 706.462 L899.929 710.383 L902.439 712.647 L905.009 713.455 L905.72 714.43 L912.388 718.575 L915.672 721.37 L916.623 721.932 L918.621 722.387 L920.513 723.656 L921.432 723.904 L924.154 726.592 L928.987 729.481 L933.219 733.465 L935.003 734.204 L937.315 736.181 L938.222 736.048 L939.018 736.58 L940.201 738.553 L942.386 740.49 L943.133 740.783 L944.296 742.365 L946.507 743.96 L947.301 745.218 L949.899 746.616 L950.813 748.179 L951.352 748.295 L952.591 749.376 L953.047 748.947 L953.67 750.283 L956.798 753.069 L958.749 754.358 L958.856 755.06 L959.027 754.75 L958.706 754.809 L958.756 754.157 L959.033 754.094 L958.875 754.943 L958.95 754.208 L958.938 754.574 L962.248 754.316 L962.828 754.616 "/></g><g><path fill="none" stroke="#000000" stroke-width="4" stroke-linecap="butt" stroke-linejoin="round" d="M629.957 688.262 L629.897 687.747 L629.578 687.623 L629.467 688.04 L629.725 688.08 L628.945 688.396 L629.189 688.71 L629.119 688.257 L629.005 688.43 L629.537 688.566 L629.66 687.608 L629.635 688.532 L629.948 688.277 L630.033 688.559 L631.827 686.932 L632.662 687.073 L635.249 685.362 L646.13 679.957 L648.904 678.914 L653.714 675.73 L660.734 671.912 L664.283 669.321 L670.289 665.595 L678.625 660.934 L681.198 659.926 L688.229 656.224 L694.179 652.326 L698.456 650.397 L708.922 643.606 L712.629 642.021 L719.592 637.639 L721.188 636.062 L722.912 634.99 L724.61 634.579 L732.335 630.138 L741.318 625.601 L747.233 622.107 L749.167 621.604 L750.141 620.609 L753.214 618.741 L754.032 617.342 L754.978 616.443 L756.218 617.145 L757.491 616.665 L759.88 614.818 L760.137 615.14 L760.354 614.388 L760.159 615.062 L759.89 614.324 L759.838 614.921 L759.878 614.166 L759.846 614.93 L759.909 614.338 L759.765 614.703 L759.522 614.543 L759.621 615.111 L759.633 614.582 L760.057 614.35 L760.316 615.138 "/></g><g><path fill="none" stroke="#000000" stroke-width="4" stroke-linecap="butt" stroke-linejoin="round" d="M765.235 615.73 L764.561 613.152 L764.785 611.577 L764.571 612.249 L764.896 612.107 L764.961 612.57 L765.037 612.196 L765.082 612.666 L765.244 611.861 L765.445 611.958 L765.63 612.759 L769.147 615.206 L771.696 616.283 L772.791 617.106 L775.977 618.037 L782.282 621.282 L785.554 622.442 L786.436 623.32 L787.339 623.663 L788.228 623.578 L790.934 625.006 L791.907 624.953 L792.896 625.355 L793.777 626.36 L800.15 629.642 L805.978 633.786 L811.795 636.523 L818.474 641.291 L820.942 642.34 L823.487 644.115 L825.55 645.896 L826.608 647.401 L827.861 648.241 L829.171 648.125 L830.373 648.732 L832.612 650.56 L834.667 651.544 L835.659 652.669 L840.325 655.765 L841.331 656.058 L843.301 657.979 L847.774 661.126 L854.83 665.007 L856.585 667.527 L857.71 667.43 L860.364 669.513 L861.303 669.744 L865.139 673.889 L866.744 674.711 L876.014 681.838 L877.703 682.744 L879.982 685.135 L880.411 686.32 L880.632 685.885 L880.548 686.784 L880.553 686.483 L880.198 686.477 L880.494 686.805 L880.545 685.301 L880.732 685.467 L881.106 685.068 L881.568 684.122 "/></g><g><path fill="none" stroke="#000000" stroke-width="4" stroke-linecap="butt" stroke-linejoin="round" d="M594.963 596.708 L594.494 596.493 L594.952 596.296 L594.994 595.911 L594.641 595.973 L595.063 596.373 L594.817 596.459 L594.792 596.078 L592.729 601.528 L589.528 607.116 L584.355 621.031 L584.842 621.039 L584.834 620.382 L584.853 620.795 L585.027 620.618 L585.29 618.42 L585.619 617.946 L585.746 618.814 L586.659 616.815 L588.943 609.165 L592.71 600.241 L593.819 598.828 L595.587 594.764 L597.434 592.952 L597.744 592.789 L597.752 593.024 L598.717 592.234 L599.104 592.53 L599.373 592.286 L599.408 592.9 L599.85 593.114 L600.426 592.865 L601.913 596.747 L602.256 596.657 L602.554 597.1 L603.604 599.739 L605.012 604.629 L606.976 614.499 L607.869 621.617 L607.873 623.088 L607.637 623.034 L607.681 622.402 L606.536 621.138 "/></g><g><path fill="none" stroke="#000000" stroke-width="4" stroke-linecap="butt" stroke-linejoin="round" d="M588.946 604.996 L588.828 604.575 L587.928 604.302 L588.237 604.515 L588.576 604.126 L588.887 604.826 L588.874 604.591 L589.196 604.921 L589.934 604.507 L590.419 605.043 L590.835 604.655 L594.024 603.814 L601.916 602.346 L602.994 602.561 L606.825 601.417 L610.944 601.393 L611.546 600.752 L612.225 600.599 L612.961 601.131 "/></g><g><path fill="none" stroke="#000000" stroke-width="4" stroke-linecap="butt" stroke-linejoin="round" d="M616.132 576.591 L615.932 576.376 L615.915 576.699 L616.182 576.682 L616.114 577.138 L616.345 576.786 L616.372 577.073 L616.383 576.665 L616.305 576.968 L616.815 576.743 L617.463 575.917 L619.569 574.827 L620.911 573.55 L626.37 570.372 L628.433 568.285 L632.474 565.327 L633.744 564.002 L636.382 562.67 L642.553 558.128 L645.701 554.948 L647.493 554.149 L654.922 548.523 L656.443 547.888 L660.638 545.199 L673.813 535.911 L674.578 534.689 L675.44 534.047 L676.223 534.104 L680.328 530.485 L681.987 529.262 L682.177 529.397 L682.946 528.05 L682.809 528.406 L682.313 528.06 L681.568 528.803 L681.452 529.729 "/></g><g><path fill="none" stroke="#000000" stroke-width="4" stroke-linecap="butt" stroke-linejoin="round" d="M690.329 527.024 L689.98 526.715 L689.492 527.066 L689.515 526.763 L688.837 526.679 L689.267 526.553 L689.408 526.846 L689.292 526.393 L689.355 527.098 L689.141 527.053 L689.385 527.48 L689.471 527.248 L689.764 527.423 L690.161 528.666 L690.865 529.411 L691.525 529.596 L693.433 532.368 L693.882 532.314 L695.593 533.6 L696.187 533.634 L697.096 535.024 L698.287 536.065 L701.39 538.189 L705.247 541.872 L708.502 544.272 L709.901 546.422 L715.521 549.469 L716.476 550.937 L718.928 553.553 L725.517 559.377 L731.501 565.328 L735.873 569.006 L737.561 570.039 L740.056 572.598 L742.536 575.904 L744.45 577.562 L747.745 582.125 L748.238 582.009 L748.634 582.323 L749.319 584.529 L752.04 588.354 L752.587 590.293 L752.877 590.264 L753.565 591.219 L753.785 592.429 L754.137 592.626 L754.325 593.963 L754.13 593.784 L754.121 594.037 L754.342 594.373 L754.56 593.798 L754.873 596.502 L755.099 596.207 L755.691 598.538 L755.95 598.6 L755.9 598.044 L756.04 599.361 L756.285 598.947 L756.333 599.37 L756.55 599.209 L756.617 600.005 L756.904 600.099 L757.244 601.107 L757.885 601.58 L758.171 602.39 L758.362 601.889 L759.334 604.059 L760.061 603.051 L760.161 603.62 L760.821 603.701 "/></g>
</svg>