<svg width="1404" height="1872" viewBox="0 0 1404 1872" xmlns="http://www.w3.org/2000/svg" xmlns:xlink="http://www.w3.org/1999/xlink"  version="1.2" baseProfile="tiny"><title>tilda notes</title>
<g><path fill="none" stroke="#000000" stroke-width="4" stroke-linecap="butt" stroke-linejoin="round" d="M269.411 128.495 L269.295 126.702 L268.403 126.472 L268.561 126.188 L266.49 126.756 L266.474 127.078 L264.895 127.936 L263.577 130.017 L262.931 132.6 L261.941 134.418 L261.504 136.451 L260.814 137.96 L260.057 146.711 L261.143 151.106 L262.75 154.01 L264.171 154.866 L266.822 155.519 L268.44 155.212 L270.721 154.012 L275.061 149.467 L277.027 143.467 L277.743 138.124 L276.835 133.163 L275.939 130.556 L275.107 126.398 L272.548 123.143 L271.613 122.396 L268.8 120.911 L266.98 120.906 L266.811 121.033 L267.133 120.891 L267.288 121.202 L267.052 121.224 L267.449 124.169 L268.482 127.44 "/></g><g><path fill="none" stroke="#000000" stroke-width="4" stroke-linecap="butt" stroke-linejoin="round" d="M288.067 152.457 L287.33 152.093 L287.198 151.383 L286.758 151.52 L286.747 150.96 L286.165 150.811 L286.198 150.534 L285.873 150.793 L285.901 150.46 L285.556 150.339 L285.504 150.865 L286.687 151.231 "/></g><g><path fill="none" stroke="#000000" stroke-width="4" stroke-linecap="butt" stroke-linejoin="round" d="M307.267 125.086 L307.236 123.777 L308.173 121.009 L307.877 119.203 L306.858 118.459 L305.75 118.484 L304.023 119.474 L302.902 120.994 L301.504 124.672 L301.057 127.269 L300.77 133.849 L301.323 138.732 L301.162 139.773 L302.528 142.753 L303.496 144.128 L304.991 145.115 L306.223 145.174 L306.883 144.646 L307.349 144.767 L309.269 143.364 L311.181 140.734 L312.264 137.332 L312.636 133.534 L312.26 131.837 L312.228 129.456 L311.529 124.893 L310.787 123.513 L309.262 118.537 L306.573 114.971 L306.161 115.254 L306.411 115.405 L306.691 113.669 L306.166 115.617 L306.806 115.677 L307.754 116.678 L309.282 117.622 L309.718 118.801 L311.003 120.671 "/></g><g><path fill="none" stroke="#000000" stroke-width="4" stroke-linecap="butt" stroke-linejoin="round" d="M324.929 116.975 L324.59 116.81 L324.823 116.707 L324.984 114.958 L324.702 114.99 L325.014 115.137 L324.817 114.991 L324.718 115.971 L323.77 116.443 L323.111 118.025 L321.329 120.538 L319.815 125.541 L319.867 126.975 L318.88 130.085 L318.686 133.324 L318.255 135.194 L318.128 141.355 L318.642 144.312 L319.155 145.086 L319.464 146.54 L320.037 146.632 L321.58 148.679 L323.287 149.408 L325.362 149.523 L329.225 147.713 L331.826 144.247 L332.578 141.284 L331.818 136.429 L330.462 135.761 L327.247 135.758 L325.477 136.419 L322.902 138.505 L318.553 143.091 L317.486 144.826 L316.306 148.104 L316.548 150.231 L317.263 151.535 L318.521 152.605 L319.117 152.701 "/></g><g><path fill="none" stroke="#000000" stroke-width="4" stroke-linecap="butt" stroke-linejoin="round" d="M291.263 197.048 L291.356 196.46 L290.992 196.469 L291.555 196.395 L291.644 195.984 L291.25 195.382 L291.566 195.023 L291.333 194.808 L291.853 194.953 L291.391 194.947 L291.179 196.245 L290.326 204.201 L289.817 205.965 L289.091 215.255 L288.484 218.579 L287.614 233.231 L287.764 234.691 L288.22 235.122 L288.026 235.357 L288.886 234.157 L289.339 234.121 L291.486 232.134 L292.407 229.309 "/></g><g><path fill="none" stroke="#000000" stroke-width="4" stroke-linecap="butt" stroke-linejoin="round" d="M403.308 122.058 L403.625 116.23 L403.129 115.229 L401.531 114.859 L398.754 116.848 L397.391 118.395 L396.446 119.841 L395.495 122.228 L393.969 127.175 L393.716 133.569 L393.979 135.347 L395.384 139.357 L397.066 141.703 L397.751 141.978 L399.944 142.009 L401.617 141.344 L402.531 140.609 L404.154 138.592 L406.098 135.39 L407.822 129.173 L407.828 126.402 L407.443 124.197 L406.461 121.647 L405.279 120.052 L403.898 119.3 L403.781 120.106 L403.651 119.509 L403.098 119.575 L403.301 122.915 L404.311 125.749 "/></g><g><path fill="none" stroke="#000000" stroke-width="4" stroke-linecap="butt" stroke-linejoin="round" d="M417.152 136.956 L416.993 136.534 L415.909 135.811 L416.358 135.683 L415.646 135.482 L415.545 134.981 L415.163 135.33 L416.24 136.259 "/></g><g><path fill="none" stroke="#000000" stroke-width="4" stroke-linecap="butt" stroke-linejoin="round" d="M433.981 118.85 L433.432 115.494 L432.687 115.052 L432.504 114.527 L430.913 114.554 L428.763 115.678 L427.607 117.347 L425.681 121.414 L424.411 126.295 L424.476 131.696 L424.953 133.972 L424.728 134.453 L427.007 137.911 L428.975 138.772 L431.264 138.36 L433.734 136.819 L436.409 133.172 L437.385 131.01 L438.089 128.227 L438.266 123.637 L437.524 120.422 L436.674 118.811 L436.289 118.649 L436.37 118.202 L435.845 118.026 L435.362 118.443 L435.679 118.618 L435.702 119.975 "/></g><g><path fill="none" stroke="#000000" stroke-width="4" stroke-linecap="butt" stroke-linejoin="round" d="M443.933 110.354 L442.158 109.799 L442.118 109.558 L441.779 110.012 L441.03 109.86 L441.271 109.718 L441.106 110.09 L441.588 110.187 L441.865 109.831 L445.546 109.993 L447.795 109.464 L448.635 109.722 L452.39 109.334 L453.035 109.899 L453.799 109.719 L455.796 110.531 L456.648 111.567 L456.845 115.346 L454.776 124.149 L453.979 130.963 L453.989 134.526 L454.108 136.292 L454.926 139.153 L456.394 138.554 L456.849 137.601 "/></g><g><path fill="none" stroke="#000000" stroke-width="4" stroke-linecap="butt" stroke-linejoin="round" d="M449.163 124.858 L454.243 124.891 L464.845 123.888 "/></g><g><path fill="none" stroke="#000000" stroke-width="4" stroke-linecap="butt" stroke-linejoin="round" d="M422.442 200.64 L422.368 198.84 L423.15 198.487 L423.38 197.554 L423.08 197.794 L423.209 198.132 L421.823 200.491 L419.08 206.731 L417.474 212.481 L417.198 214.538 L416.404 216.474 L415.818 224.071 L416.299 226.954 L418.956 223.917 L419.89 221.146 L420.754 219.657 L422.016 215.153 L424.033 204.341 L425.141 200.556 L425.497 198.16 L426.683 194.629 L426.567 196.188 L428.771 203.211 L432.08 219.886 L434.276 226.792 L434.818 227.734 L435.298 228.105 L435.335 225.424 "/></g><g><path fill="none" stroke="#000000" stroke-width="4" stroke-linecap="butt" stroke-linejoin="round" d="M419.003 218.13 L418.277 217.806 L418.6 218.096 L419.725 217.953 L422.183 217.2 L434.489 215.303 L439.6 213.85 L445.106 211.443 "/></g><g><path fill="none" stroke="#000000" stroke-width="4" stroke-linecap="butt" stroke-linejoin="round" d="M520.731 116.888 L520.678 113.818 L520.487 114.025 L519.619 113.46 L519.276 113.725 L518.884 113.487 L517.905 113.692 L516.061 115.151 L514.251 118.824 L513.369 124.446 L513.596 128.121 L514.542 132.411 L516.603 133.897 L518.142 133.91 L519.865 133.352 L522.369 130.938 L524.063 127.469 L524.76 124.285 L524.33 121.303 L523.237 118.775 L523.194 118.002 L522.979 117.632 L522.694 118.108 L521.722 116.85 L523.494 119.875 "/></g><g><path fill="none" stroke="#000000" stroke-width="4" stroke-linecap="butt" stroke-linejoin="round" d="M535.177 128.976 L534.209 127.968 L534.358 127.433 L533.775 126.836 L533.613 127.262 L533.506 126.436 L533.273 126.432 L533.229 126.971 L533.472 126.562 L533.121 126.7 L533.468 126.892 "/></g><g><path fill="none" stroke="#000000" stroke-width="4" stroke-linecap="butt" stroke-linejoin="round" d="M542.278 112.758 L542.363 110.828 L542.871 110.181 L542.596 110.232 L542.666 110.006 L542.841 110.425 L542.525 111.283 L542.781 115.486 L542.503 122.26 L542.566 127.603 L542.949 130.806 L543.674 131.823 L544.514 131.64 L544.691 131.851 L545.969 130.824 L546.539 129.729 "/></g><g><path fill="none" stroke="#000000" stroke-width="4" stroke-linecap="butt" stroke-linejoin="round" d="M553.373 112.714 L552.46 112.514 L552.08 111.936 L551.586 112.089 L551.221 111.661 L551.336 111.39 L551.717 111.527 L551.458 111.141 L551.799 111.355 L551.686 111.038 L552.481 109.807 L553.822 108.877 L554.662 107.66 L556.502 105.96 L559.501 105.539 L560.208 105.649 L561.594 106.619 L561.892 107.456 L561.414 110.177 L558.013 117.156 L558.042 118.145 L557.586 119.046 L557.971 119.15 L558.047 119.841 L559.187 121.843 L562.163 124.988 L562.24 125.716 L563.092 126.937 L563.573 130.049 L562.772 133.528 L558.661 136.191 L555.632 136.789 L554.539 136.351 L553.861 135.559 L553.704 134.713 L554.27 133.007 "/></g><g><path fill="none" stroke="#000000" stroke-width="4" stroke-linecap="butt" stroke-linejoin="round" d="M545.908 203.686 L546.095 202.468 L546.791 201.839 L546.624 201.489 L546.871 201.105 L546.793 201.653 L547 201.662 L546.409 202.77 L546.691 208.092 L546.06 223.794 "/></g><g><path fill="none" stroke="#000000" stroke-width="4" stroke-linecap="butt" stroke-linejoin="round" d="M535.88 201.744 L534.229 200.945 L534.325 200.614 L534.401 201.216 L534.58 200.439 L534.82 200.418 L534.72 200.758 L535.43 200.075 L535.422 200.376 L535.941 200.367 L539.982 199.013 L541.921 199.005 L548.178 197.703 L552.568 197.57 L556.109 196.726 L561.576 196.093 L564.404 195.079 L565.593 194.254 L567.483 194.101 "/></g><g><path fill="none" stroke="#000000" stroke-width="4" stroke-linecap="butt" stroke-linejoin="round" d="M627.1 117.971 L627.191 117.273 L626.789 116.855 L626.923 116.235 L626.238 113.672 L624.776 113.689 L624.399 113.438 L622.602 113.978 L620.086 115.924 L616.83 121.134 L615.863 123.32 L614.882 126.644 L614.61 132.018 L615.639 134.386 L618.976 136.388 L622.241 135.428 L624.019 134.435 L626.258 131.976 L627.824 129.283 L629.764 124.467 L630.383 121.301 L630.284 119.211 L629.837 117.527 L627.953 114.839 L626.026 114.56 L625.941 116.106 L626.831 118.618 "/></g><g><path fill="none" stroke="#000000" stroke-width="4" stroke-linecap="butt" stroke-linejoin="round" d="M639.552 134.29 L638.697 134.019 L638.135 132.763 L638.352 132.828 L638.695 131.973 L639.575 131.237 "/></g><g><path fill="none" stroke="#000000" stroke-width="4" stroke-linecap="butt" stroke-linejoin="round" d="M653.922 108.231 L654.021 106.247 L654.555 106.181 L654.227 106.162 L654.65 107.116 L654.332 107.933 L653.155 124.398 L653.647 128.059 L655.125 126.721 "/></g><g><path fill="none" stroke="#000000" stroke-width="4" stroke-linecap="butt" stroke-linejoin="round" d="M668.659 106.474 L668.474 105.593 L668.808 105.413 L668.784 104.643 L668.438 104.758 L668.627 105.479 L667.517 106.057 L667.002 107.384 L666.173 108.098 L665.402 112.683 L665.396 113.851 L666.015 115.286 L668.306 115.947 L673.345 113.609 L677.648 110.182 L677.92 108.904 L677.184 109.392 L677.284 109.97 L676.162 112.16 L674.559 119.614 L673.699 124.926 L673.587 127.874 L672.764 132.04 L672.714 134.603 L672.932 134.842 L673.931 134.685 L675.082 134.027 "/></g><g><path fill="none" stroke="#000000" stroke-width="4" stroke-linecap="butt" stroke-linejoin="round" d="M632.053 199.105 L631.812 195.977 L632.275 193.496 L630.611 199.585 L629.708 206.205 L629.418 212.113 L629.764 211.98 L629.595 211.798 L630.105 211.118 L631.15 195.05 L631.85 191.793 L632.039 192.682 L633.632 193.563 L636.929 197.189 L639.031 200.595 L643.918 206.432 L644.855 208.008 L647.251 209.633 L648.372 210.053 L649.046 210.228 L650.62 209.903 L651.851 208.577 L653.254 206.273 L654.756 202.221 L655.59 198.862 L655.655 194.395 L655.158 190.205 L654.84 189.692 L654.142 189.805 "/></g><g><path fill="none" stroke="#000000" stroke-width="4" stroke-linecap="butt" stroke-linejoin="round" d="M748.336 113.098 L748.704 112.367 L748.426 109.613 L746.822 109.821 L743.341 111.521 L740.679 114.488 L739.226 116.805 L737.852 120.223 L737.899 121.103 L737.466 122.137 L737.557 123.668 L738.331 125.258 L739.352 126.48 L742.676 128.112 L743.373 128.141 L744.194 127.578 L744.535 127.983 L745.424 127.948 L748.735 125.92 L749.69 124.763 L750.311 124.522 L750.768 122.504 L750.295 119.433 L748.412 116.006 L747.676 115.425 L746.91 115.184 L748.295 117.976 "/></g><g><path fill="none" stroke="#000000" stroke-width="4" stroke-linecap="butt" stroke-linejoin="round" d="M762.942 133.379 L760.942 129.834 L760 128.993 L759.207 129.029 L759.38 128.614 L759.621 128.687 "/></g><g><path fill="none" stroke="#000000" stroke-width="4" stroke-linecap="butt" stroke-linejoin="round" d="M774.859 109.155 L775.366 107.476 L775.011 107.842 L775.243 108.285 L774.908 109.31 L774.536 116.372 L775.173 123.972 L776.612 129.386 L778.155 130.746 "/></g><g><path fill="none" stroke="#000000" stroke-width="4" stroke-linecap="butt" stroke-linejoin="round" d="M790.515 105.388 L790.4 104.319 L790.313 104.643 L789.846 104.651 L789.921 105.093 L789.835 104.518 L790.154 105.206 L788.104 106.569 L786.737 109.327 L786.508 111.192 L787.072 114.179 L788.701 115.648 L790.066 116.032 L792.541 115.856 L796.278 114.177 L797.388 113.014 L797.955 111.213 L798.176 109.01 L797.531 109.283 L797.721 110.206 L797.097 113.701 L794.439 123.947 L793.177 132.035 L793.13 134.4 L793.381 134.884 L794.374 134.982 L796.239 134.095 "/></g><g><path fill="none" stroke="#000000" stroke-width="4" stroke-linecap="butt" stroke-linejoin="round" d="M756.435 187.889 L756.247 186.805 L756.613 185.77 L756.076 187.712 L754.952 199.276 L754.933 202.845 L755.302 204.019 L755.715 208.638 L756.593 210.187 L757.073 210.478 L756.966 210.829 L757.005 210.625 L757.381 210.796 L758.549 209.812 L759.677 207.279 "/></g><g><path fill="none" stroke="#000000" stroke-width="4" stroke-linecap="butt" stroke-linejoin="round" d="M756.493 191.388 L755.653 190.601 L755.753 190.814 L755.988 190.316 L755.525 189.302 L756.032 188.806 L756.1 189.58 L756.302 189.475 L756.732 188.333 L759.345 186.859 L762.784 186.151 L766.419 186.835 L768.999 188.29 L772.341 193.011 L773.057 194.873 L773.127 198.275 L771.611 201.897 L770.202 203.868 L766.281 207.692 L763.542 209.552 L757.195 212.564 L752.712 213.147 L751.179 212.264 L751.691 210.783 "/></g><g><path fill="none" stroke="#000000" stroke-width="4" stroke-linecap="butt" stroke-linejoin="round" d="M869.183 110.399 L870.369 108.197 L870.183 107.885 L871.004 107.268 L871.217 106.345 L871.778 106.023 L871.801 105.301 L871.619 105.747 L871.884 105.713 L871.454 105.644 L871.102 106.138 L868.665 106.066 L868.068 106.539 L867.719 106.401 L866.743 107.38 L865.308 108.059 L862.898 111.312 L862.371 113.887 L861.659 115.584 L861.183 118.72 L861.778 121.507 L863.1 123.949 L863.951 124.715 L867.098 125.809 L871.101 123.821 L872.896 122.527 L874.198 120.927 L875.828 117.797 L875.871 113.937 L875.228 111.104 L874.463 109.689 L871.462 107.807 L869.596 107.804 L869.08 108.123 L868.163 109.574 L867.943 111.049 L868.334 113.873 "/></g><g><path fill="none" stroke="#000000" stroke-width="4" stroke-linecap="butt" stroke-linejoin="round" d="M890.349 124.104 L889.484 123.201 L890.001 123.322 L889.848 123.041 L889.703 123.201 L889.813 122.881 L889.857 123.313 L889.549 123.202 L890.835 123.736 L891.094 124.205 "/></g><g><path fill="none" stroke="#000000" stroke-width="4" stroke-linecap="butt" stroke-linejoin="round" d="M902.685 101.726 L902.461 101.011 L903.002 100.992 L902.574 102.624 L902.72 106.781 L902.314 112.996 L902.615 119.031 L903.301 122.37 L904.345 123.989 L905.748 124.656 "/></g><g><path fill="none" stroke="#000000" stroke-width="4" stroke-linecap="butt" stroke-linejoin="round" d="M924.606 104.095 L923.906 103.296 L924.175 102.79 L923.927 101.972 L923.019 100.998 L920.825 101.462 L917.292 103.402 L916.199 104.511 L911.798 110.97 L909.456 116.099 L908.902 120.187 L909.567 123.463 L910.534 125.032 L911.022 124.717 L911.545 125.07 L913.666 125.178 L917.044 124.502 L919.216 123.095 L921.601 122.084 L924.242 120.251 L925.858 118.358 L926.281 116.974 L925.688 115.274 L924.482 114.025 L923.414 113.596 L919.341 113.396 L916.12 114.646 L912.632 116.835 L910.971 119.324 L910.032 121.994 L910.635 125.062 "/></g><g><path fill="none" stroke="#000000" stroke-width="4" stroke-linecap="butt" stroke-linejoin="round" d="M886.688 185.373 L886.552 183.719 L886.945 183.841 L886.389 185.763 L885.669 192.627 L885.756 204.982 L886.183 206.207 L886.108 207.305 L886.564 208.449 L886.831 208.028 L886.703 208.895 L886.945 207.884 L887.529 207.616 L888.314 206.24 "/></g><g><path fill="none" stroke="#000000" stroke-width="4" stroke-linecap="butt" stroke-linejoin="round" d="M881.381 184.565 L881.143 184.082 L880.451 183.87 L880.287 183.288 L880.261 183.687 L880.44 183.413 L880.108 182.843 L880.554 182.197 L880.527 182.561 L880.827 182.553 L880.779 182.343 L883.869 180.938 L888.091 180.095 L891.464 180.221 L893.69 180.806 L896.413 183.07 L896.679 183.671 L896.7 185.131 L896.264 186.907 L894.233 190.826 L891.896 193.388 L890.681 195.709 L891.103 196.309 L891.187 196.026 L892.601 197.21 L893.546 197.329 L896.017 198.62 L896.509 198.424 L897.568 199.704 L897.502 201.057 L896.104 202.733 L892.263 205.422 L887.938 207.292 L886.825 207.437 L886.532 207.839 L886.001 207.728 L886.229 207.218 L887.886 207.114 "/></g><g><path fill="none" stroke="#000000" stroke-width="4" stroke-linecap="butt" stroke-linejoin="round" d="M988.376 109.152 L987.913 108.68 L988.074 107.789 L987.697 107.564 L987.78 106.7 L987.473 105.939 L987.193 106.12 L986.973 105.796 L986.25 105.997 L986.172 106.33 L985.806 106.092 L985.577 106.348 L983.882 106.462 L981.685 107.848 L978.377 111.597 L976.773 114.487 L975.655 117.645 L975.444 119.867 L975.592 121.657 L976.565 123.395 L977.221 124.333 L978.817 125.167 L981.196 125.61 L986.811 124.242 L987.426 124.066 L990.273 121.663 L991.801 119.905 L993.033 117.764 L993.078 114.379 L992.652 112.914 L991.397 111.023 L990.656 110.265 L990.258 110.258 L990 109.752 L989.034 109.951 L988.466 111.133 L988.004 113.782 L988.402 116.454 "/></g><g><path fill="none" stroke="#000000" stroke-width="4" stroke-linecap="butt" stroke-linejoin="round" d="M1002.23 125.636 L1002.08 122.256 L1001.17 122.783 L1001.72 123.858 "/></g><g><path fill="none" stroke="#000000" stroke-width="4" stroke-linecap="butt" stroke-linejoin="round" d="M1025.91 106.028 L1025.13 105.456 L1024.72 100.984 L1025.24 99.8136 L1026.78 98.5127 L1029.54 97.9786 L1032.37 98.4443 L1035.24 100.759 L1036.67 102.737 L1036.86 103.788 L1035.01 106.966 L1030.01 112.551 L1029.21 113.099 L1029.21 113.651 L1029.35 113.234 L1032.02 117.641 L1032.67 119.428 L1032.55 121.564 L1031.42 123.081 L1029.67 124.344 L1024.38 125.347 L1020.73 124.47 L1019.88 123.691 L1019.48 122.081 L1020.6 120.408 "/></g><g><path fill="none" stroke="#000000" stroke-width="4" stroke-linecap="butt" stroke-linejoin="round" d="M1055.24 109.948 L1055.01 109.827 L1055.4 108.948 L1055.28 108.172 L1052.6 107.009 L1050.7 107.254 L1050.13 107.466 L1049.78 108.148 L1048.44 109.263 L1046.49 112.768 L1045.64 116.944 L1046.14 120.53 L1047.78 122.68 L1050.49 123.351 L1051.89 123.177 L1054.24 122.507 L1058.67 120.178 L1061.23 118.052 L1062.77 116.369 L1063.54 114.869 L1063.25 113.228 L1061.61 111.428 L1058.56 109.864 L1056.13 109.215 L1052.97 108.978 L1051.94 109.155 L1050.29 110.784 "/></g><g><path fill="none" stroke="#000000" stroke-width="4" stroke-linecap="butt" stroke-linejoin="round" d="M1021.4 191.411 L1022.48 188.999 L1022.88 188.745 L1022.97 187.071 L1022.58 186.001 L1022.09 186.033 L1021.16 185.068 L1019.24 184.872 L1016.25 185.738 L1014.11 187.861 L1013.03 189.665 L1011.52 191.247 L1009.41 194.85 L1007.86 201.076 L1008.44 205.311 L1010.17 209.128 L1012.31 210.968 L1013.81 211.663 L1015.39 212.09 L1018.09 212.252 L1020.42 211.953 L1025.54 210.235 L1026.35 209.785 L1027.69 208.308 L1029.56 207.2 L1030.82 205.687 L1031.63 204.11 L1032.45 201.298 L1032.6 199.698 L1031.56 196.142 L1030.63 194.134 L1028.38 192.562 L1026.54 191.927 L1022.45 191.309 L1018.55 191.568 L1015.96 192.139 L1014.46 192.862 L1011.57 195.696 "/></g><g><path fill="none" stroke="#000000" stroke-width="4" stroke-linecap="butt" stroke-linejoin="round" d="M764.283 837.133 L764.23 836.008 L765.139 833.776 L765.11 832.402 L765.742 830.563 L765.482 830.032 L765.683 830.248 L765.93 829.321 L766.021 827.852 L765.909 828.49 L765.758 827.961 L765.79 828.775 L765.573 828.141 L764.214 831.474 L762.995 836.918 L761.968 846.406 L762.281 850.442 L762.594 850.627 L763.738 847.714 L764.243 845.247 L765.563 832.265 L767.05 825.594 L767.251 825.36 L767.233 825.828 L767.455 825.782 L767.826 824.667 L767.691 824.216 L767.575 824.976 L768.843 826.563 L769.274 826.427 L770.569 827.643 L771.71 830.636 L775.385 835.996 L778.89 840.445 L783.013 844.638 L787.02 847.126 L789.85 847.985 L790.378 847.604 L791.194 847.997 L792.958 847.887 L794.928 843.55 L795.38 841.759 L795.543 838.613 L795.08 833.404 L794.553 832.274 L792.786 824.953 L792.589 822.523 L792.073 821.651 L791.872 820.304 L791.746 820.66 L792.751 820.8 L793.105 821.803 L793.668 822.208 L793.965 821.683 "/></g><g><path fill="none" stroke="#000000" stroke-width="4" stroke-linecap="butt" stroke-linejoin="round" d="M941.503 823.85 L941.158 822.99 L941.387 823.3 L941.356 820.802 L940.86 822.287 L940.749 824.237 L940.282 845.747 L940.667 852.044 L940.685 851.255 L940.81 850.934 L940.991 851.171 L941.702 849.322 "/></g><g><path fill="none" stroke="#000000" stroke-width="4" stroke-linecap="butt" stroke-linejoin="round" d="M937.938 822.656 L936.496 821.039 L936.387 820.345 L936.163 820.576 L935.861 819.277 L935.675 819.647 L936.259 818.5 L936.215 819.241 L939.907 818.523 L940.964 818.886 L942.458 818.546 L944.249 818.862 L945.341 818.413 L946.523 819.518 L951.715 822.306 L953.398 824.826 L953.931 824.495 L955.96 826.281 L958.662 831.259 L960.011 835.572 L959.664 839.394 L958.526 841.913 L955.13 845.661 L950.295 848.641 L945.495 850.184 L943.577 851.136 L937.208 852.027 L935.947 851.972 L935.524 851.201 L934.973 851.216 L934.531 851.746 L932.56 850.012 L932.642 848.388 "/></g><g><path fill="none" stroke="#000000" stroke-width="4" stroke-linecap="butt" stroke-linejoin="round" d="M790.203 795.156 L789.246 794.771 L789.233 795.072 L788.801 795.048 L788.718 794.67 L788.808 795.238 L788.57 795.105 L788.995 795.36 L788.986 795.833 L788.888 795.27 L788.971 795.042 L789.28 795.361 L789.235 794.816 L789.516 795.373 L790.014 794.59 L792.566 793.309 L796.598 789.168 L801.667 785.227 L803.424 783.052 L811.034 776.965 L811.907 775.948 L813.821 774.906 L818.548 770.362 L823.169 766.851 L823.933 766.609 L828.953 762.915 L829.655 763.05 L830.202 762.721 L830.724 761.82 L832.788 760.272 L833.448 759.986 L833.903 760.41 L836.068 759.517 L838.223 759.542 "/></g><g><path fill="none" stroke="#000000" stroke-width="4" stroke-linecap="butt" stroke-linejoin="round" d="M876.963 758.632 L876.456 758.329 L875.413 758.423 L874.846 757.099 L873.268 756.197 L869.854 754.74 L869.768 755.369 L869.766 754.782 L869.248 754.531 L869.448 754.043 L869.563 755.043 L869.707 755.211 L869.794 754.668 L869.613 755.264 L869.641 754.541 L869.727 754.882 L869.883 754.56 L870.063 755.225 L870.588 755.366 L870.823 756.18 L871.336 756.625 L871.76 756.269 L873.107 756.924 L873.889 758.15 L876.88 759.825 L878.65 761.393 L882.264 763.704 L883.936 764.424 L885.344 766.433 L886.14 766.503 L889.53 769.165 L893.583 771.647 L898.179 776.078 L901.788 777.936 L902.903 779.33 L905.449 781.175 L906.113 781.187 L911.513 785.792 L913.091 787.989 L913.585 787.673 L916.378 790.518 L916.546 790.013 L916.788 790.188 L916.92 790.989 L917.674 792.217 L917.825 791.933 L917.892 792.518 L918.167 791.506 L918.396 791.981 L919.355 791.642 L921.472 789.881 "/></g><g><path fill="none" stroke="#000000" stroke-width="4" stroke-linecap="butt" stroke-linejoin="round" d="M827.335 694.623 L827.582 693.019 L827.357 691.848 L826.927 691.008 L826.539 691.031 L826.133 689.651 L825.874 689.479 L825.444 689.88 L825.085 689.51 L824.346 689.434 L823.924 690.157 L823.788 689.642 L823.3 689.616 L823.013 689.05 L822.513 690.252 L822.062 689.997 L821.271 690.719 L820.489 690.864 L818.907 692.352 L817.291 694.563 L815.578 696.077 L813.129 701.773 L812.312 707.224 L813.028 710.884 L813.367 711.523 L813.759 711.483 L814.795 712.563 L815.561 714.293 L816.556 714.067 L819.406 715.189 L821.657 715.216 L822.86 714.906 L828.84 711.921 L831.524 708.558 L832.163 707.15 L832.873 706.591 L833.346 706.721 L834.968 704.163 L835.983 699.838 L835.8 697.769 L835.061 695.314 L834.837 694.766 L834.426 694.658 L833.91 693.199 L831.724 690.76 L831.302 690.891 L829.527 690.149 L828.462 689.264 L827.817 689.426 L825.429 689.013 L824.798 689.38 L823.98 689.139 L822.987 689.419 L822.888 689.862 L822.404 689.727 L821.921 690.776 L822.05 693.708 "/></g><g><path fill="none" stroke="#000000" stroke-width="4" stroke-linecap="butt" stroke-linejoin="round" d="M840.038 710.977 L838.999 710.673 L838.768 710.257 L839.118 710.612 L838.955 710.895 L838.59 710.325 L838.216 710.726 L838.432 709.269 L838.38 711.063 L838.553 709.644 L838.56 710.33 L839.071 710.263 L839.268 709.881 L840.367 710.764 L841.106 710.752 "/></g><g><path fill="none" stroke="#000000" stroke-width="4" stroke-linecap="butt" stroke-linejoin="round" d="M854.492 692.333 L853.857 691.381 L853.794 689.702 L853.777 690.012 L853.324 689.365 L853.123 688.102 L853.283 687.028 L853.464 687.466 L853.695 687.079 L853.651 686.332 L853.832 686.707 L854.353 686.257 L854.456 686.689 L856.127 684.332 L858.042 683.94 L858.371 683.475 L861.63 684.539 L862.173 685.73 L862.488 685.498 L863.2 688.626 L863.122 691.153 L861.736 695.486 L860.357 697.013 L859.461 698.989 L857.47 701.881 L856.847 702.657 L856.226 702.743 L853.637 706.607 L852.498 707.09 L850.609 708.938 L850.307 709.865 L849.912 710.112 L849.57 709.562 L848.547 709.576 L848.229 709.233 L847.705 709.883 L847.028 709.71 L846.874 709.259 L846.87 709.767 L847.253 709.201 L847.335 710.162 L847.486 709.002 L847.605 709.27 L847.847 708.944 L850.029 709.408 L852.386 708.816 L852.681 709.241 L853.216 709.305 L855.603 708.09 L856.519 708.853 L857.894 708.931 L858.547 708.503 L858.969 708.902 L860.214 709.077 L861.01 709.974 L861.199 709.349 L862.451 709.094 L862.601 708.642 L863.14 709.413 L863.413 709.075 L865.366 708.97 "/></g><g><path fill="none" stroke="#000000" stroke-width="4" stroke-linecap="butt" stroke-linejoin="round" d="M883.93 687.123 L883.539 686.289 L883.77 685.381 L882.817 684.07 L882.468 683.776 L882.395 684.052 L880.646 682.179 L880.256 682.672 L879.546 682.505 L879.231 681.926 L878.917 681.992 L878.805 682.487 L875.935 682.784 L875.319 683.694 L875.056 683.477 L874.465 683.969 L874.111 684.765 L873.877 684.495 L873.477 685.006 L873.387 684.747 L873.044 686.814 L873.104 686.473 L873.853 688.452 L874.057 688.152 L875.168 690.802 L877.295 692.426 L877.986 693.599 L878.392 693.421 L880.375 695.399 L882.548 696.269 L885.418 700.545 L885.25 702.568 L884.689 704.222 L883.123 706.508 L882.612 706.752 L879.587 710.871 L879.205 711.131 L878.902 710.968 L877.972 712.127 L877.081 712.264 L876.94 711.656 L876.673 712.243 L876.311 712.031 L876.106 709.716 L876.99 705.627 L879.045 701.504 L879.807 698.25 L882.595 691.837 L883.905 686.469 L884.19 686.692 L884.144 684.824 L883.459 683.927 L883.383 684.492 L882.715 683.352 L882.649 683.794 L881.916 684.375 L881.011 683.914 L880 684.647 "/></g><g><path fill="none" stroke="#000000" stroke-width="4" stroke-linecap="butt" stroke-linejoin="round" d="M853.724 658.971 L852.107 655.042 L852.062 655.679 L851.667 655.464 L851.669 655.089 L851.051 655.064 L850.982 654.686 L850.383 654.474 L850.102 654.81 L849.506 654.509 L849.291 653.957 L848.892 654.335 L846.934 653.849 L846.238 654.365 L845.482 653.532 L845.114 653.618 L844.737 653.223 L844.198 653.944 L840.465 654.036 L838.436 655.263 L837.809 655.022 L835.402 655.339 L834.061 656.407 L831.646 656.871 L831.177 656.483 L830.662 656.597 L830.302 657.592 L827.911 659.491 L824.786 660.198 L822.183 661.69 L820.867 662.988 L818.625 663.928 L815.701 667.221 L815.116 667.476 L813.676 669.353 L812.837 669.843 L811.803 671.189 L811.477 670.989 L810.126 673.971 L807.24 677.8 L803.678 685.266 L803.176 685.744 L801.969 689.711 L801.49 690.301 L801.18 690.133 L799.993 693.938 L799.679 694.093 L799.343 695.675 L798.316 697.837 L798.263 699.597 L797.217 703.547 L796.737 707.8 L796.649 720.207 L797.313 725.146 L797.527 726.08 L797.835 726.662 L797.991 726.524 L797.988 728.442 L798.5 729.117 L799.164 731.998 L800.195 733.42 L800.548 734.611 L800.955 734.672 L801.265 735.69 L802.779 737.413 L803.125 738.312 L804.335 739.387 L804.841 740.533 L805.279 740.757 L805.572 740.547 L807.873 743.126 L808.273 743.077 L810.456 744.64 L811.07 745.433 L811.432 745.278 L812.528 745.963 L813.373 747.345 L813.778 746.865 L814.872 747.319 L815.679 747.25 L817.153 748.734 L818.386 748.972 L820.401 750.371 L822.615 751.002 L823.069 750.736 L823.69 751.72 L826.197 752.818 L828.518 752.975 L829.084 753.988 L830.142 753.574 L832.211 754.718 L833.312 754.308 L834.283 754.457 L834.62 754.006 L835.43 754.812 L836.444 755.161 L840.776 755.84 L842.646 755.788 L843.512 756.573 L843.952 756.055 L846.15 755.899 L847.939 756.398 L850.887 756.431 L851.305 757.122 L851.759 757.198 L852.154 756.489 L853.281 756.285 L853.668 755.903 L854.502 756.585 L856.846 755.866 L859.469 756.188 L861.357 755.178 L861.841 755.806 L862.412 755.834 L862.857 754.964 L864.304 753.902 L865.807 754.071 L867.243 753.239 L869.056 752.934 L870.707 751.721 L872.771 751.101 L873.63 750.134 L874.775 749.995 L875.739 749.116 L877.69 748.191 L878.06 748.548 L878.352 748.413 L879.969 746.022 L880.333 746.266 L882.417 744.233 L884.11 743.857 L886.037 742.193 L886.597 741.301 L887.266 741.543 L887.62 741.302 L888.684 739.34 L889.827 738.664 L891.289 737.011 L891.924 735.573 L892.226 736.099 L892.564 736.021 L894.089 733.654 L896.063 731.701 L897.16 729.374 L899.181 726.561 L899.84 724.862 L900.205 724.768 L900.507 723.913 L901.286 723.17 L903.479 717.53 L905.322 710.151 L906.296 708.296 L906.566 706.93 L907.004 706.615 L908.341 702.326 L909.416 696.605 L909.788 691.445 L909.516 687.018 L909.014 684.451 L908.26 682.513 L908.145 682.768 L907.693 679.679 L907.201 678.124 L906.898 678.096 L906.61 677.325 L904.702 669.903 L904.164 669.426 L903.451 667.615 L900.859 663.73 L900.419 662.283 L899.648 661.713 L899.145 662.108 L893.551 656.799 L892.747 656.212 L891.315 655.91 L887.276 652.848 L885.837 653.096 L884.138 652.005 L882.453 651.596 L881.49 650.346 L880.312 649.796 L879.359 650.323 L874.257 649.969 L871.668 649.086 L867.246 648.492 L864.003 649.236 L862.246 648.867 L856.613 649.527 L854.444 650.325 L849.408 651.319 L843.29 653.066 L837.379 655.169 "/></g><g><path fill="none" stroke="#000000" stroke-width="4" stroke-linecap="butt" stroke-linejoin="round" d="M1075.52 685.254 L1075.77 684.2 L1075.51 684.276 L1075.38 683.824 L1075.36 684.318 L1075.22 683.428 L1074.35 683.107 L1074.04 682.288 L1074.02 682.885 L1073.29 683.46 L1072.94 682.748 L1072.34 683.172 L1072.04 682.954 L1069.2 683.63 L1068.85 683.402 L1067.35 685.121 L1063.92 687.797 L1061.92 690.764 L1061.4 690.697 L1061 691.334 L1060.7 692.672 L1057.91 697.717 L1056.98 701.581 L1056.68 701.271 L1055.74 704.299 L1055.67 710.858 L1055.99 714.156 L1056.33 713.992 L1058 718.634 L1059.1 719.7 L1059.9 719.824 L1061.15 721.141 L1064.18 721.975 L1065.51 721.901 L1066.86 722.295 L1070.96 720.781 L1073.13 719.477 L1074.18 717.91 L1074.94 717.337 L1075.69 717.339 L1079.58 713.01 L1080.78 709.115 L1081.31 708.788 L1081.65 708.022 L1082.52 702.588 L1082.39 698.653 L1082.01 696.289 L1080.71 691.867 L1079.82 690.875 L1079.08 688.518 L1077.68 686.547 L1077.06 686.65 L1076.54 686.294 L1076.03 685.316 L1074.56 684.233 L1071.93 682.857 L1069.64 682.256 L1068.83 681.603 L1068.02 681.498 L1067.44 681.915 L1065.18 681.702 L1062.89 682.701 L1061.98 684.226 L1061.92 686.653 "/></g><g><path fill="none" stroke="#000000" stroke-width="4" stroke-linecap="butt" stroke-linejoin="round" d="M889.789 645.875 L888.807 646.554 L888.503 646.124 L888.534 646.829 L888.201 646.381 L888.705 647.024 L889.055 646.062 L889.148 646.633 L889.142 646.187 L889.129 646.508 L889.942 645.565 L890.212 644.299 L890.742 644.399 L892.551 641.096 L892.932 641.088 L893.371 640.174 L894.896 639.054 L897.5 634.856 L899.559 632.519 L902.079 628.171 L903.063 627.214 L904.169 626.781 L910.347 619.646 L914.401 616.48 L918.94 611.926 L919.914 611.919 L920.686 611.334 L921.415 610.068 L924.059 607.708 L924.913 606.514 L928.429 604.766 L930.035 603.283 L930.804 602.11 L931.657 601.463 L932.353 601.392 L935.204 598.827 L937.274 596.558 L937.595 595.813 L938.233 596.101 L938.407 595.39 L939.189 594.472 L939 593.838 "/></g><g><path fill="none" stroke="#000000" stroke-width="4" stroke-linecap="butt" stroke-linejoin="round" d="M975.721 594.137 L975.742 594.789 L975.631 593.737 L975.392 593.889 L975.569 593.329 L975.454 592.198 L975.273 592.344 L975.287 592.006 L975.604 592.243 L975.361 591.881 L975.561 592.494 L975.34 591.547 L975.558 590.957 L975.533 592.246 L975.718 591.198 L975.739 592.3 L977.845 594.808 L978.091 595.757 L979.068 596.828 L979.73 598.341 L980.259 598.247 L980.591 598.762 L982.343 603.578 L984.34 606.224 L986.47 609.905 L987.853 611.069 L989.456 613.182 L992.263 618.388 L993.486 619.612 L997.593 627.266 L1000.72 631.374 L1006.12 640.074 L1008.9 643.313 L1010.29 645.971 L1010.97 646.234 L1012.9 648.348 L1013.67 648.735 L1014.85 651.228 L1015.67 651.623 L1016.96 653.502 L1017.47 653.766 L1021.47 658.598 L1022.05 658.806 L1024.3 661.668 L1025.36 662.428 L1025.74 662.357 L1026.02 663.165 L1028 665.596 L1028.43 665.662 L1028.42 664.946 L1028.36 665.539 L1028.05 665.676 L1028.48 666.446 L1028.75 666.458 L1028.54 665.644 L1028.17 665.581 L1028.31 665.057 L1028.24 666.155 L1028.35 665.288 L1028.12 665.399 L1028.29 666.023 L1028.43 665.699 L1028.46 666.024 L1028.74 665.982 L1028.58 665.781 L1028.61 666.433 L1028.49 664.938 L1029.54 663.669 "/></g><g><path fill="none" stroke="#000000" stroke-width="4" stroke-linecap="butt" stroke-linejoin="round" d="M913.473 533.582 L913.302 533.194 L914.273 530.698 L914.22 529.373 L914.365 529.951 L914.385 528.896 L914.083 529.022 L914.019 528.21 L913.926 528.603 L913.423 528.822 L912.85 528.62 L912.636 529.109 L912.599 528.796 L912.263 529.055 L912.169 528.735 L911.84 528.808 L910.404 530.45 L910.039 530.51 L909.182 531.915 L908.852 533.151 L908.076 534.137 L906.578 537.386 L905.408 542.525 L904.959 547.667 L905.076 551.511 L905.726 553.505 L906.055 553.909 L906.319 553.742 L906.689 555.358 L907.133 555.392 L908.055 556.24 L908.215 555.721 L908.462 555.785 L908.77 556.54 L910.229 556.661 L913.11 555.341 L913.742 555.475 L917.1 551.416 L918.412 548.046 L919.53 543.956 L919.674 542.235 L919.3 538.781 L917.334 532.341 L917.175 532.127 L917.037 532.448 L915.816 531.268 L915.346 530.095 L914.187 530.096 L913.737 530.675 L913.276 529.933 L913.346 530.974 L912.862 530.578 L913.304 534.043 L914.311 537.133 "/></g><g><path fill="none" stroke="#000000" stroke-width="4" stroke-linecap="butt" stroke-linejoin="round" d="M931.208 551.128 L929.867 549.801 L929.886 549.113 L930.092 550.121 L930.539 550.06 L930.229 549.343 L929.462 550.439 L929.518 549.245 L929.646 549.93 L929.649 549.47 L929.55 549.939 L929.249 549.702 L929.748 550.877 "/></g><g><path fill="none" stroke="#000000" stroke-width="4" stroke-linecap="butt" stroke-linejoin="round" d="M948.73 521.064 L948.414 519.984 L948.512 518.967 L948.399 519.262 L948.213 518.738 L947.896 518.687 L947.942 519.118 L947.624 518.828 L947.793 518.95 L947.297 519.436 L946.735 518.481 L946.515 519.505 L945.748 520.195 L945.581 519.948 L945.276 520.09 L944.09 521.779 L943.37 523.767 L943.089 523.011 L942.845 523.262 L942.067 524.653 L940.048 530.475 L939.734 532.73 L939.977 534.862 L940.016 534.394 L940.543 534.768 L941.223 536.305 L941.49 536.139 L941.701 536.732 L943.663 538.302 L944.814 538.314 L945.987 539.444 L946.337 539.318 L947.719 540.024 L948.383 539.438 L949.275 540.842 L950.975 541.466 L952.447 542.709 L953.13 544.465 L953.263 543.55 L953.641 543.827 L953.691 543.122 L953.847 545.895 L952.636 548.115 L950.674 549.48 L950.21 549.398 L949.301 551.118 L948.577 550.866 L948.007 551.293 L947.693 550.519 L947.241 550.507 L947.046 551.345 L946.036 551.634 L944.142 551.009 L942.783 548.49 L942.598 546.533 L943.094 541.083 L944.576 535.711 "/></g><g><path fill="none" stroke="#000000" stroke-width="4" stroke-linecap="butt" stroke-linejoin="round" d="M946.394 523.31 L945.609 522.591 L945.145 522.818 L944.867 522.097 L944.622 522.21 L944.954 521.518 L944.989 522.217 L945.38 521.349 L945.645 521.906 L945.678 521.016 L946.012 520.765 L946.12 521.142 L947.459 519.586 L947.896 519.93 L948.671 519.007 L949.471 519.14 L951.749 518.082 L952.14 518.538 L952.589 518.445 L952.982 517.874 L954.406 517.641 L954.806 517.156 L957.136 518.073 L958.589 518.173 L959.067 517.915 L961.626 518.37 "/></g><g><path fill="none" stroke="#000000" stroke-width="4" stroke-linecap="butt" stroke-linejoin="round" d="M975.424 514.848 L974.71 514.426 L975.056 514.371 L974.84 514.244 L974.528 514.422 L974.128 513.467 L974.035 514.089 L973.828 513.595 L973.561 514.18 L972.726 514.397 L972.573 515.08 L972.413 514.75 L971.95 514.822 L971.642 514.496 L971.393 514.69 L971.239 515.308 L970.269 515.958 L968.843 518.711 L968.291 520.107 L968.036 522.008 L968.251 521.931 L968.109 522.934 L968.472 525.387 L969.5 528.411 L969.626 527.909 L969.769 528.108 L970.822 530.661 L971.389 531.02 L972.119 532.234 L972.763 532.292 L974.323 535.383 L975.972 537.366 L976.402 538.753 L977.483 539.929 L977.786 541.974 L977.552 544.737 L977.143 545.478 L973.462 548.786 L972.315 548.745 L971.703 549.489 L969.9 550.362 L968.346 550.903 L966.419 550.997 L966.223 551.517 L965.902 551.551 L964.945 550.867 L964.727 549.972 L964.211 549.718 L964.167 550.383 L964.024 548.755 L964.393 545.328 L965.713 540.574 L968.093 534.461 L970.276 531.267 L971.587 527.578 L972.191 527.406 L972.947 526.133 L973.841 523.49 L975.029 521.689 L975.582 519.898 L975.582 518.668 L975.484 519.23 L975.459 518.939 L975.175 518.966 L974.688 519.643 L974.392 519.679 L974.237 519.043 L973.115 519.024 L971.738 519.938 L969.941 522.489 "/></g><g><path fill="none" stroke="#000000" stroke-width="4" stroke-linecap="butt" stroke-linejoin="round" d="M960.335 489.988 L959.592 488.481 L959.484 488.919 L958.723 487.964 L957.067 487.805 L956.234 487.186 L955.29 487.319 L953.656 486.412 L953.054 485.207 L952.342 485.96 L948.533 485.291 L946.608 485.354 L946.265 486.494 L945.865 486.807 L945.461 485.691 L943.887 485.376 L942.745 484.693 L941.672 486 L940.242 486.732 L939.138 486.6 L938.754 487.148 L937.017 487.699 L936.573 488.511 L935.78 488.658 L935.029 488.239 L933.342 488.966 L932.837 488.515 L931.735 490.065 L931.123 490.019 L929.497 491.047 L928.248 491.07 L927.599 491.848 L922.594 495.02 L921.741 496.069 L918.37 497.472 L917.011 499.552 L914.683 501.143 L913.675 502.638 L909.865 506.073 L906.643 510.083 L905.565 510.753 L901.186 516.67 L899.397 520.266 L898.826 520.299 L896.638 522.697 L893.448 528.672 L892.968 530.793 L892.673 530.524 L891.564 531.977 L891.346 533.826 L890.932 534.021 L889.643 539.901 L889.02 545.435 L889.241 551.686 L889.966 557.519 L890.686 560.041 L890.963 560.08 L892.264 564.656 L892.734 564.702 L894.843 568.437 L895.162 568.231 L896.657 571.433 L898.784 573.555 L899.225 574.837 L900.179 575.096 L901.576 576.202 L902.325 578.273 L905.338 580.636 L905.65 581.473 L906.181 581.85 L906.568 581.545 L907.209 582.062 L908.078 582.151 L908.918 583.878 L909.334 583.76 L910.287 584.564 L910.533 584.157 L910.864 584.323 L911.388 585.189 L912.747 586.328 L916.056 587.551 L916.814 588.478 L918.497 588.737 L921.251 590.105 L921.733 590.169 L922.368 589.584 L922.99 589.551 L923.724 591.234 L928.377 592.824 L928.779 593.785 L929.436 594.1 L930.142 593.137 L930.771 593.014 L931.632 593.339 L932.586 592.65 L933.046 593.466 L934.326 594.475 L935.141 594.274 L937.632 594.658 L938.075 595.281 L938.673 595.332 L939.21 594.79 L940.609 594.95 L941.014 594.559 L941.99 595.565 L942.436 595.08 L944.112 594.954 L945.078 594.488 L945.704 594.803 L947.882 594.938 L950.955 594.455 L952.075 594.951 L954.845 594.159 L956.958 594.139 L957.881 592.982 L958.461 593.502 L959.58 593.844 L963.364 593.401 L963.755 594.307 L964.315 594.331 L964.691 593.156 L966.208 592.574 L966.603 591.72 L967.218 591.319 L968.119 592.315 L969.594 591.861 L970.756 590.899 L971.684 591.103 L972.752 590.762 L973.095 591.125 L975.88 589.158 L976.073 590.009 L976.479 590.31 L976.853 589.342 L978.89 587.984 L979.647 588.05 L981.458 586.979 L981.82 587.128 L982.651 586.447 L983.476 586.459 L985.274 585.012 L986.123 584.787 L986.472 584.207 L987.83 583.696 L988.803 582.774 L989.151 582.944 L990.219 581.784 L990.853 580.512 L991.321 580.78 L991.7 580.62 L992.432 579.813 L992.776 580.493 L993.185 580.203 L993.598 578.785 L995.036 576.951 L995.351 576.094 L997.022 574.485 L999.462 570.829 L1000.22 568.564 L1003.82 561.731 L1004.41 561.274 L1005.47 556.594 L1005.82 555.834 L1005.97 556.394 L1006.96 551.314 L1007.05 540.883 L1006.7 533.559 L1005.96 528.717 L1005.66 523.183 L1005.17 522.248 L1003.97 515.928 L1002.2 511.1 L1001.45 510.173 L998.001 503.492 L994.941 499.259 L993.695 498.143 L991.884 495.751 L990.377 494.915 L987.97 492.289 L984.445 489.4 L983.058 488.575 L981.873 488.788 L977.779 487.036 L975.307 485.342 L973.88 485.432 L969.172 484.645 L963.687 484.378 L957.539 484.717 L955.358 484.425 L950.169 486.688 L947.498 487.112 L939.125 489.991 "/></g><g><path fill="none" stroke="#000000" stroke-width="4" stroke-linecap="butt" stroke-linejoin="round" d="M373.494 953.509 L373.034 952.731 L373.654 951.716 L373.831 952.132 L373.561 953.016 L373.621 957.852 L373.169 967.268 L372.743 969.981 L373.038 972.784 L372.696 975.479 L373.05 976.922 L373.292 982.002 L373.824 983.224 L374.025 983.164 L374.044 984.17 L374.349 984.508 L374.664 984.317 L374.753 984.711 L375.02 984.636 L375.132 983.91 L375.712 983.711 L376.348 982.881 L376.745 982.915 L378.666 980.518 "/></g><g><path fill="none" stroke="#000000" stroke-width="4" stroke-linecap="butt" stroke-linejoin="round" d="M522.075 957.144 L522.012 956.431 L522.413 956.307 L522.739 954.281 L522.941 954.334 L522.82 953.745 L522.615 955.046 L521.841 955.722 L517.91 962.583 L516.815 966.844 L515.383 970.685 L515.281 972.292 L514.689 973.242 L514.159 975.782 L514.635 976.488 L514.309 976.616 L514.916 976.053 L514.908 975.274 L515.464 975.033 L516.316 973.958 L517.793 970.802 L522.354 958.167 L525.42 951.936 L525.736 951.91 L525.825 950.829 L526.774 949.477 L526.786 948.838 L526.994 949.487 L526.716 950.167 L527.741 951.131 L529.791 956.189 L530.971 961.383 L532.09 963.068 L533.326 967.707 L535.484 972.526 L536.596 976.043 L538.911 979.89 L539.191 979.345 L539.046 979.741 L538.771 979.608 L538.301 977.155 "/></g><g><path fill="none" stroke="#000000" stroke-width="4" stroke-linecap="butt" stroke-linejoin="round" d="M517.202 966.302 L516.416 965.854 L516.554 965.602 L516.916 965.972 L517.083 965.687 L517.215 966.061 L517.177 965.676 L517.711 965.972 L517.919 966.379 L518.492 965.758 L519.261 965.916 L524.454 965.151 L533.246 963.014 L534.941 963.005 L538.085 961.768 L539.456 961.789 "/></g><g><path fill="none" stroke="#000000" stroke-width="4" stroke-linecap="butt" stroke-linejoin="round" d="M386.591 922.563 L386.377 922.415 L386.469 922.895 L386.531 922.254 L385.875 921.939 L385.788 922.702 L385.852 922.148 L386.06 922.241 L385.822 922.327 L385.802 922.036 L385.877 922.373 L386.505 922.473 L386.211 922.458 L386.489 921.804 L386.607 922.448 L386.782 921.337 L387.135 921.33 L388.142 920.308 L388.571 919.253 L393.66 914.033 L394.303 912.662 L395.75 911.856 L396.357 911.037 L399.358 908.821 L404.628 904.065 L407.866 902.097 L408.849 900.753 L415.696 895.708 L423.557 889.157 L427.867 884.848 L429.437 884.056 L434.611 879.898 L434.967 880.708 L435.367 880.707 L435.799 878.699 L435.501 878.637 L435.519 879.167 L435.363 878.669 L435.177 879.548 L434.946 879.135 L434.828 880.415 L434.541 879.608 L433.786 880.247 L433.085 882.972 "/></g><g><path fill="none" stroke="#000000" stroke-width="4" stroke-linecap="butt" stroke-linejoin="round" d="M464.086 878.953 L462.791 876.765 L462.423 876.956 L461.572 876.115 L461.334 876.777 L461.406 876.095 L460.984 875.966 L461.002 875.504 L460.894 876.303 L461.039 875.769 L461.188 876.627 L461.015 875.473 L461.319 875.396 L461.12 877.112 L461.46 877.195 L461.484 876.224 L461.555 877.154 L464.069 879.3 L465.595 881.756 L466.736 882.355 L469.836 886.106 L470.536 886.214 L472.812 888.727 L473.851 890.518 L476.916 893.718 L478.496 894.867 L482.518 899.605 L487.707 904.475 L491.594 908.76 L493.756 910.451 L495.291 912.404 L496.2 912.864 L497.498 914.979 L497.901 914.903 L498.726 915.648 L499.037 915.119 L499.302 916.659 L499.865 917.056 L499.694 917.33 L499.527 916.754 L499.644 917.188 L499.29 917.147 L499.51 917.339 L499.694 917.075 L499.963 917.582 L500.304 917.234 L500.264 918.01 L500.62 918.005 L500.759 918.48 L501.411 918.444 L501.877 918.909 L502.576 918.668 "/></g><g><path fill="none" stroke="#000000" stroke-width="4" stroke-linecap="butt" stroke-linejoin="round" d="M422.667 832.385 L422.469 831.41 L422.781 830.342 L422.36 828.868 L421.658 828.703 L421.44 829.478 L421.293 828.624 L420.953 828.622 L421.03 829.13 L419.293 830.256 L418.427 832.186 L418.036 831.789 L416.38 834.169 L416.089 836.656 L415.529 836.871 L414.924 838.783 L413.949 844.882 L413.622 845.443 L414.286 850.01 L414.6 849.876 L415.587 852.221 L416.494 853.011 L418.319 853.727 L418.576 854.234 L420.779 853.182 L421.68 853.226 L424.234 850.531 L425.139 850.215 L428.006 845.763 L428.362 843.446 L428.228 840.674 L426.877 837.637 L426.264 836.934 L426.08 837.495 L425.784 836.708 L425.568 837.17 L425.492 836.854 L425.528 837.189 L425.201 837.152 L426.198 840.693 "/></g><g><path fill="none" stroke="#000000" stroke-width="4" stroke-linecap="butt" stroke-linejoin="round" d="M437.604 848.341 L436.845 847.818 L436.883 846.822 L436.786 847.292 L436.331 846.326 L436.081 846.508 L436.144 846.035 L436.271 846.505 L435.951 846.708 L436.227 846.977 L435.895 846.868 L436.042 846.389 L437.341 848.622 "/></g><g><path fill="none" stroke="#000000" stroke-width="4" stroke-linecap="butt" stroke-linejoin="round" d="M447.857 828.625 L447.522 828.184 L447.604 828.614 L447.816 827.763 L447.516 827.523 L447.85 827.37 L447.852 827.743 L447.687 827.277 L447.897 827.184 L448.096 828.059 L447.749 827.697 L447.704 828.687 L447.43 828.24 L447.311 828.521 L447.566 829.57 L446.344 838.393 L446.566 839.56 L446.146 841.556 L445.934 847.517 L446.232 850.942 L446.399 850.797 L446.649 851.281 L447.786 850.533 "/></g><g><path fill="none" stroke="#000000" stroke-width="4" stroke-linecap="butt" stroke-linejoin="round" d="M455.374 830.908 L455.084 831.244 L454.818 830.876 L455.148 830.215 L454.821 830.316 L454.647 829.829 L454.925 828.344 L455.18 828.761 L456.55 827.128 L456.82 827.35 L457.431 826.024 L461.771 823.685 L462.112 823.623 L462.444 824.446 L462.844 824.599 L463.061 823.862 L463.948 823.09 L464.702 824.159 L464.771 823.742 L464.978 823.85 L465.254 825.46 L465.107 827.44 L464.628 828.142 L463.798 831.191 L462.778 832.807 L461.061 836.968 L460.621 838.927 L461.381 841.551 L462.538 842.518 L462.678 843.43 L463.04 843.908 L463.213 843.296 L463.76 843.627 L463.888 843.4 L464.855 845.401 L465.515 845.596 L466.35 848.495 L466.62 848.313 L466.537 850.425 L466.215 851.421 L463.568 854.34 L461.874 855.338 L460.485 855.697 L459.389 856.767 L458.911 856.355 L456.49 856.569 L454.869 856.348 L454.148 855.658 L453.916 856.004 L453.222 855.793 L452.335 854.482 L452.645 852.526 "/></g><g><path fill="none" stroke="#000000" stroke-width="4" stroke-linecap="butt" stroke-linejoin="round" d="M446.88 804.538 L446.139 802.145 L446.015 802.499 L445.458 801.934 L445.105 802.028 L444.71 801.285 L443.766 801.635 L443.456 800.94 L442.889 801.452 L440.807 801.024 L440.27 801.499 L440.067 800.982 L439.067 800.989 L438.785 800.686 L438.125 801.174 L436.922 801.08 L434.032 801.558 L433.282 801.302 L431.569 801.635 L431.366 802.045 L428.534 802.278 L426.104 802.939 L425.432 803.769 L424.246 803.974 L423.141 804.88 L422.561 805.016 L422.351 804.612 L418.027 806.541 L417.56 806.394 L416.537 807.459 L411.782 810.287 L411.443 810.748 L408.126 811.754 L407.452 813.11 L404.478 814.425 L402.924 816.235 L402.288 815.992 L399.514 818.841 L398.803 819.198 L397.438 821.856 L396.117 822.656 L395.627 823.971 L395.254 824.419 L395.019 824.097 L394.391 825.293 L393.975 825.475 L391.305 829.78 L391.174 830.767 L390.219 831.902 L389.843 833.372 L389.629 833.297 L388.939 834.38 L387.114 842.059 L387.232 843.994 L386.894 845.895 L387.215 851.473 L388.413 853.681 L388.244 854.674 L389.716 859.419 L390.288 860.272 L390.504 861.598 L391.09 862.238 L391.209 862.036 L391.417 862.949 L392.572 864.381 L393.308 866.539 L393.689 866.965 L394.011 866.538 L394.353 866.713 L394.9 867.312 L395.115 868.173 L396.137 869.058 L396.712 868.843 L398.199 871.179 L399.931 871.723 L400.683 873.325 L401.016 873.064 L402.488 873.716 L404.182 875.168 L405.436 875.595 L407.565 877.1 L408.541 877.133 L409.471 877.928 L409.843 877.694 L411.336 878.101 L411.755 877.885 L413.649 878.887 L414.551 878.819 L415.62 879.287 L415.891 879.041 L416.322 879.279 L416.736 880.192 L417.435 880.425 L418.243 879.549 L419.042 879.763 L419.578 879.457 L420.385 880.094 L422.439 880.24 L422.871 879.794 L423.936 880.586 L425.471 880.487 L426.346 880.799 L426.761 880.562 L428.446 880.797 L428.945 880.593 L429.435 881.472 L430.189 881.817 L430.734 881.095 L432.405 880.988 L432.947 880.659 L434.069 881.189 L440.527 880.806 L441.022 881.017 L443.289 880.493 L444.362 880.739 L447.105 880.056 L448.084 879.403 L448.55 879.943 L449.107 880.062 L450.629 879.924 L451.178 879.589 L452.304 879.884 L453.702 879.458 L454.028 880.436 L454.66 880.592 L455.067 879.507 L456.661 878.78 L457.317 879.194 L460.906 878.911 L465.552 877.908 L466.592 878.519 L466.908 877.647 L468.473 877.195 L469.387 876.34 L470.415 876.598 L472.204 876.04 L472.685 875.468 L473.691 875.178 L475.624 873.705 L475.951 874.062 L476.33 873.974 L478.075 871.133 L478.563 870.709 L478.952 870.921 L480.321 869.387 L481.191 867.768 L481.354 867.985 L481.966 867.001 L482.146 867.309 L482.49 866.926 L483.282 863.205 L484.199 861.691 L485.366 854.535 L485.795 853.879 L485.825 851.456 L487.542 841.71 L487.762 838.915 L487.985 839.067 L487.815 833.969 L485.977 829.166 L485.55 829.414 L485.298 829.084 L485.079 827.85 L483.266 824.645 L482.33 824.264 L480.725 822.011 L477.799 819.583 L477.075 819.918 L476.366 819.455 L475.692 818.075 L472.584 815.884 L471.737 816.271 L470.956 815.958 L470.319 814.816 L464.593 812.297 L461.656 811.737 L457.077 810.092 L449.047 808.594 L445.103 809.047 L443.071 808.587 L438.924 808.728 L428.394 810.291 "/></g><g><path fill="none" stroke="#000000" stroke-width="4" stroke-linecap="butt" stroke-linejoin="round" d="M651.978 831.964 L653.174 829.329 L652.963 829.284 L653.188 828.956 L653.233 829.431 L653.525 829.377 L653.534 829.941 L653.134 830.415 L653.468 833.346 L652.764 847.586 L653.245 853.686 L653.046 856.041 L653.283 859.397 L653.729 860.604 L653.627 858.919 L653.381 858.781 L654.013 857.349 L653.93 855.332 "/></g><g><path fill="none" stroke="#000000" stroke-width="4" stroke-linecap="butt" stroke-linejoin="round" d="M638.19 827.411 L637.539 827.527 L637.26 826.466 L636.758 826.701 L636.368 825.691 L636.183 826.136 L635.946 825.869 L636.003 826.254 L636.11 825.64 L636.223 826.161 L636.195 825.877 L636.49 825.909 L636.579 826.787 L636.868 825.874 L639.247 825.744 L640.207 825.089 L640.738 825.512 L644.113 825.081 L647.48 824.19 L648.914 824.75 L650.158 824.245 L652.845 824.022 L655.701 824.313 L656.72 824.065 L658.943 824.503 L659.341 825.228 L659.831 825.415 L660.224 824.783 L661.928 824.852 L662.528 825.684 L662.94 825.393 L663.686 825.923 "/></g><g><path fill="none" stroke="#000000" stroke-width="4" stroke-linecap="butt" stroke-linejoin="round" d="M467.887 806.571 L468.037 808.351 L467.854 807.684 L468.08 807.521 L467.731 808.797 L467.888 808.187 L468.059 808.553 L467.82 808.716 L468.374 808.379 L468.161 808.166 L468.071 808.593 L468.27 807.939 L468.412 808.131 L468.678 807.202 L468.949 807.009 L468.93 807.416 L469.163 807.295 L469.716 805.97 L470.781 805.429 L472.366 802.987 L483.016 790.69 L490.194 783.062 L491.235 782.615 L492.239 781.694 L494.226 778.652 L496.562 776.492 L497.534 775.034 L499.476 773.909 L503.55 769.768 L505.255 767.559 L508.578 765.274 L510.136 763.215 L510.81 763.043 L514.176 759.723 L516.745 757.676 L519.927 754.147 L520.58 752.415 L520.827 753.082 L521.614 752.468 L522.048 751.305 L522.165 751.565 L522.348 751.254 L522.446 751.735 L522.357 751.092 L522.118 751.393 L522.144 750.996 L522.152 751.351 L521.889 751.239 L522.237 751.589 L522.153 751.108 L521.972 751.614 L522.311 750.673 L522.085 751.285 L522.293 751.498 L522.227 750.318 L522.281 751.05 L522.624 750.097 L522.619 750.744 L522.878 751 L522.719 750.076 L522.881 750.604 "/></g><g><path fill="none" stroke="#000000" stroke-width="4" stroke-linecap="butt" stroke-linejoin="round" d="M559.158 747.568 L557.789 746.304 L557.588 746.764 L557.342 746.177 L556.417 745.926 L555.688 745.258 L555.494 745.535 L555.158 745.313 L554.94 744.76 L555.234 745.313 L554.934 745.422 L555.058 745.963 L555.148 745.064 L555.449 746.251 L555.957 745.554 L556.442 746.887 L556.875 746.884 L558.26 748.02 L558.791 747.879 L559.415 749.14 L561.617 751.224 L563.376 752.352 L565.236 754.308 L566.226 755.951 L567.003 756.157 L572.766 760.484 L575.832 763.369 L582.867 768.632 L586.12 771.869 L595.401 778.599 L599.773 782.893 L603.986 785.859 L608.085 789.411 L609.028 789.275 L609.9 789.768 L610.656 791.102 L616.215 795.564 L618.689 797.964 L620.59 798.911 L621.051 798.711 L621.853 800.04 L622.981 801.077 L623.233 800.579 L623.594 800.745 L625.004 803.639 L625.559 803.03 L625.838 803.622 L625.733 803.335 L625.62 803.74 L625.475 803.251 L625.609 801.825 L625.391 802.365 L624.97 800.812 L625.15 797.185 "/></g><g><path fill="none" stroke="#000000" stroke-width="4" stroke-linecap="butt" stroke-linejoin="round" d="M498.495 687.472 L498.163 686.67 L498.495 685.413 L498.44 683.789 L498.059 683.705 L497.74 682.538 L497.451 682.812 L496.724 681.25 L496.625 682.02 L496.004 680.383 L495.691 680.28 L495.585 681.068 L494.969 681.355 L494.696 681.903 L494.55 681.549 L493.815 681.576 L493.595 681.243 L493.152 682.212 L490.922 683.793 L488.534 690.247 L487.884 695.123 L488.75 703.186 L489.7 704.721 L489.865 705.815 L491.733 709.057 L492.478 709.157 L493.203 709.722 L495.647 709.995 L496.096 709.876 L496.606 709.135 L497.133 708.913 L497.618 709.435 L498.258 709.24 L500.104 707.99 L500.753 706.83 L502.379 705.545 L504.102 703.073 L504.647 702.986 L507.342 696.005 L507.507 694.225 L507.536 690.814 L506.196 686.079 L505.719 685.228 L503.806 683.44 L502.125 683.179 L501.942 682.313 L501.459 682.341 L501.168 683.169 L499.421 683.539 L498.511 686.499 L499.686 690.089 "/></g><g><path fill="none" stroke="#000000" stroke-width="4" stroke-linecap="butt" stroke-linejoin="round" d="M512.789 705.115 L511.672 704.247 L512.265 704.394 L512.137 704.601 L511.891 704.142 L511.875 704.527 L511.899 703.544 L512.047 704.431 L511.667 704.25 L511.69 703.765 L512.398 704.927 "/></g><g><path fill="none" stroke="#000000" stroke-width="4" stroke-linecap="butt" stroke-linejoin="round" d="M523.311 686.074 L522.293 685.043 L522.187 683.729 L522.022 683.513 L521.936 683.898 L521.905 682.558 L522.057 682.968 L522.363 680.57 L522.563 680.866 L523.476 678.984 L525.14 677.887 L525.395 677.122 L526.684 675.514 L527.007 675.548 L527.117 675.97 L527.601 675.565 L529.367 675.735 L530.4 677.218 L530.759 679.873 L530.281 684.265 L529.884 685.917 L523.559 701.499 L522.369 702.944 L521.391 705.408 L520.109 707.246 L519.106 708.572 L518.893 707.809 L518.764 708.29 L519.128 707.627 L519.448 708.112 L519.455 706.824 L519.654 707.082 L520.741 704.698 L520.814 704.993 L521.512 704.749 L522.547 703.998 L523.029 704.272 L524.088 703.451 L524.732 704.084 L524.83 703.54 L525.147 703.472 L525.531 704.414 L527.97 705.269 L528.177 705.824 L528.604 705.99 L529.067 705.758 L530.175 706.035 L530.51 705.698 L531.076 706.822 L532.549 707.339 L536.446 707.605 L537.062 707.141 L540.558 706.009 "/></g><g><path fill="none" stroke="#000000" stroke-width="4" stroke-linecap="butt" stroke-linejoin="round" d="M552.904 678.502 L552.367 677.212 L552.097 677.994 L551.821 677.966 L551.718 675.997 L551.54 676.475 L550.81 676.924 L550.398 676.242 L549.685 677.237 L548.101 677.339 L547.438 679.243 L546.895 678.815 L545.838 680.18 L545.533 679.884 L544.634 682.23 L540.854 688.489 L539.063 693.039 L538.135 696.553 L537.825 701.824 L539.021 706.435 L539.598 706.662 L540.755 708.881 L541.125 708.445 L542.442 708.684 L543.256 708.342 L543.679 708.965 L545.133 709.312 L547.419 708.46 L549.079 707.441 L549.639 707.691 L550.26 707.27 L553.079 703.413 L553.83 703.332 L554.725 701.584 L555.309 699.963 L555.309 698.667 L554.702 696.509 L554.192 695.741 L552.054 694.318 L549.294 694.842 L548.695 694.412 L548.094 694.68 L547.61 695.522 L541.148 699.988 L540.17 702.326 L539.853 702.19 L539.154 703.617 L538.974 703.266 L538.737 703.62 L538.42 707.665 L539.454 709.538 "/></g><g><path fill="#000000" d="M516.714 751.762 C516.714 751.762 516.714 751.762 516.714 751.762 C523.065 750.936 529.436 750.253 535.767 749.283 C538.956 748.794 542.136 748.195 545.26 747.386 C548.631 746.514 552.013 745.595 555.224 744.248 C557.686 743.216 560.1 741.956 562.184 740.288 C565.165 737.902 567.815 735.102 570.285 732.19 C571.616 730.621 572.535 728.739 573.517 726.931 C574.518 725.088 575.431 723.192 576.227 721.251 C577.005 719.352 577.673 717.404 578.233 715.429 C579.26 711.813 580.604 708.233 580.986 704.493 C581.528 699.192 581.358 693.823 580.986 688.507 C580.766 685.367 579.952 682.293 579.217 679.233 C578.792 677.466 578.311 675.687 577.515 674.053 C576.234 671.427 574.662 668.946 573.023 666.528 C572.54 665.815 571.904 665.184 571.184 664.712 C568.953 663.247 566.604 661.961 564.224 660.752 C563.178 660.22 562.05 659.857 560.931 659.501 C559.032 658.895 557.128 658.284 555.178 657.869 C551.532 657.092 547.786 656.809 544.163 655.929 C543.796 655.84 543.515 655.402 543.481 655.026 C543.404 654.171 544.25 653.236 543.85 652.476 C543.354 651.532 542.17 651.123 541.198 650.683 C539.44 649.889 537.588 649.304 535.725 648.806 C533.013 648.079 530.276 647.391 527.493 647.014 C525.845 646.791 524.156 646.83 522.503 647.015 C521.791 647.095 521.216 647.764 520.5 647.799 C520.095 647.819 519.863 647.11 519.461 647.165 C517.423 647.444 515.436 648.068 513.498 648.757 C512.316 649.178 510.896 649.469 510.15 650.477 C509.676 651.117 509.772 652.463 510.472 652.843 C511.671 653.493 513.213 653.063 514.562 652.87 C517.224 652.489 519.781 651.543 522.438 651.13 C523.774 650.922 525.159 650.796 526.493 651.014 C530.002 651.585 533.459 652.471 536.867 653.481 C538.208 653.878 541.185 653.912 540.687 655.219 C540.04 656.915 537.053 655.987 535.533 656.98 C534.974 657.346 534.381 658.755 535.028 658.919 C541.578 660.577 548.457 660.557 555.073 661.926 C557.889 662.508 560.589 663.599 563.224 664.752 C565.294 665.657 567.326 666.718 569.132 668.076 C570.06 668.774 570.693 669.816 571.287 670.814 C572.444 672.761 573.669 674.716 574.363 676.871 C575.582 680.656 576.64 684.546 576.986 688.507 C577.481 694.17 577.695 699.937 576.869 705.561 C576.125 710.625 574.09 715.424 572.325 720.227 C571.556 722.319 570.444 724.278 569.288 726.184 C568.423 727.611 567.408 728.956 566.285 730.19 C564.03 732.667 561.954 735.421 559.177 737.293 C555.613 739.695 551.545 741.287 547.534 742.829 C547.147 742.978 546.878 742.088 546.473 742.178 C543.751 742.785 541.262 744.233 538.539 744.835 C538.128 744.926 537.886 744.14 537.466 744.172 C536.547 744.24 535.762 744.898 534.865 745.109 C531.763 745.838 528.67 746.742 525.493 746.985 C524.116 747.09 522.814 746.016 521.438 746.136 C519.383 746.315 517.556 747.87 515.493 747.859 C509.639 747.826 503.794 747.02 498.028 746.005 C495.19 745.505 492.478 744.411 489.803 743.336 C487.726 742.5 485.63 741.602 483.816 740.288 C481.98 738.958 480.669 737.017 478.985 735.499 C478.67 735.216 478.125 735.245 477.855 734.919 C475.751 732.377 473.467 729.906 471.935 726.983 C469.529 722.394 467.042 717.662 466.132 712.561 C465.072 706.614 465.522 700.449 466.132 694.439 C466.405 691.755 467.63 689.235 468.749 686.78 C470.166 683.672 471.784 680.635 473.712 677.816 C474.726 676.333 476.316 675.335 477.501 673.984 C478.104 673.297 479.273 672.613 479.056 671.724 C478.821 670.767 477.462 670.535 476.559 670.141 C476.226 669.995 475.754 669.932 475.471 670.158 C473.737 671.545 472.001 673.009 470.712 674.816 C468.729 677.593 467.292 680.726 465.753 683.772 C465 685.264 464.355 686.818 463.847 688.411 C463.105 690.738 462.187 693.07 462.014 695.506 C461.611 701.177 461.527 706.908 462.132 712.561 C462.455 715.57 463.715 718.412 464.772 721.248 C465.504 723.215 466.397 725.135 467.483 726.931 C469.474 730.223 471.583 733.461 473.977 736.472 C474.826 737.54 476.168 738.112 477.134 739.074 C477.797 739.734 478.144 740.675 478.834 741.307 C480.055 742.429 481.359 743.496 482.816 744.288 C485.682 745.846 488.719 747.074 491.734 748.321 C493.303 748.97 494.876 749.715 496.554 749.972 C502.831 750.937 509.175 751.41 515.5 751.971 "/></g><g><path fill="none" stroke="#000000" stroke-width="4" stroke-linecap="butt" stroke-linejoin="round" d="M249.067 710.495 L248.861 710.743 L249.265 710.617 L249.241 711.006 L249.507 711.275 L249.608 711.039 L249.34 711.169 L249.292 711.854 L249.288 710.536 L249.568 710.598 L249.436 711.833 L249.065 712.021 L249.477 712.492 L248.696 714.969 L248.851 717.569 L248.012 719.912 L248.031 721.228 L247.181 725.576 L247.336 726.441 L247.233 726.088 L247.101 726.337 L246.494 728.902 L246.485 731.345 L246.817 733.727 L247.164 732.669 L247.562 733.465 L247.607 732.512 L248.928 731.399 L249.266 730.356 "/></g><g><path fill="none" stroke="#000000" stroke-width="4" stroke-linecap="butt" stroke-linejoin="round" d="M243.771 707.819 L242.628 707.026 L241.055 706.473 L241.342 706.568 L241.372 705.855 L241.833 706.238 L241.875 705.258 L242.094 705.191 L242.199 705.612 L245.301 703.53 L248.094 702.779 L249.821 701.685 L251.555 701.394 L252.457 700.851 L253.4 700.668 L254.293 700.959 L256.463 700.353 L257.615 699.399 L259.191 700.566 L259.72 700.506 L260.886 701.143 L261.311 700.789 L262.557 701.262 L264.702 703.21 L264.997 703.034 L265.227 705.551 L263.281 710.758 L261.633 712.532 L259.615 715.774 L258.573 716.8 L256.984 717.716 L256.693 718.826 L253.967 722.698 L253.536 724.319 L253.128 724.649 L253.06 724.318 L253.793 724.434 L253.745 725.367 L254.124 725.819 L254.75 725.598 L255.079 725.84 L255.148 726.368 L255.75 726.794 L256.013 727.856 L256.564 728.235 L256.916 727.443 L257.611 727.684 L257.825 727.453 L257.945 728.096 L258.553 728.626 L258.903 728.303 L259.481 728.858 L259.96 728.657 L260.271 729.905 L261.158 730.807 L260.906 732.441 L261.222 733.033 L261.088 732.699 L260.019 734.07 L259.066 734.294 L256.679 736.226 L253.89 737.353 L249.985 738.299 L249.087 737.925 L244.615 737.288 L243.925 736.573 L241.214 735.894 L240.56 734.805 L239.778 734.535 L239.248 735.295 L237.988 734.918 L236.911 734.128 L236.778 733.079 "/></g><g><path fill="none" stroke="#000000" stroke-width="4" stroke-linecap="butt" stroke-linejoin="round" d="M298.206 672.714 L297.492 672.646 L297.347 672.141 L296.533 672.144 L296.508 671.919 L295.674 672.229 L295.634 672.656 L295.342 672.716 L294.563 672.032 L294.076 672.815 L292.488 673.355 L292.193 674.446 L291.92 673.728 L291.433 673.995 L291.321 673.752 L291.246 674.48 L291.016 674.612 L291.054 674.367 L290.792 674.998 L291.304 674.683 L291.198 674.3 L291.493 674.684 L291.228 674.469 L293.583 672.716 L294.546 671.046 L300.775 664.308 L302.698 661.71 L310.159 656.257 L312.959 653.092 L320.19 646.804 L324.773 642.212 L329.663 638.068 L331.181 636.315 L336.242 632.008 L337.924 630.002 L341.255 627.577 L350.041 617.894 L355.477 612.783 L357.773 611.26 L364.315 604.273 L368.665 601.407 L368.852 600.42 L369.372 599.84 L370.12 600.078 L371.103 599.158 L371.31 598.475 L371.585 598.358 L371.774 598.64 L372.082 598.091 L371.844 598.832 L371.979 597.675 L371.592 599.098 L371.828 599.125 L371.837 598.467 L371.661 598.63 L371.661 598.202 L371.522 598.441 L371.671 598.651 L371.681 598.024 L371.525 598.302 L371.655 598.655 L371.612 598.359 L371.964 598.374 L372.206 599.565 "/></g><g><path fill="#000000" d="M394.004 599.528 C394.004 599.528 394.004 599.528 394.004 599.528 C394.269 598.852 394.901 598.218 394.799 597.499 C394.713 596.889 394.061 596.466 393.527 596.158 C393.223 595.982 392.78 595.987 392.473 596.158 C391.931 596.458 391.459 596.929 391.158 597.471 C390.983 597.787 390.982 598.232 391.144 598.555 C391.577 599.412 392.093 600.298 392.869 600.864 C393.148 601.067 393.622 600.785 393.845 600.522 "/></g><g><path fill="none" stroke="#000000" stroke-width="4" stroke-linecap="butt" stroke-linejoin="round" d="M343.54 540.699 L343.842 537.708 L343.692 534.84 L343.902 534.819 L343.172 533.078 L343.083 532.043 L341.141 531.934 L338.975 533.136 L338.585 532.994 L336.695 535.861 L334.472 542.286 L334.174 547.653 L334.865 552.58 L336.448 555.928 L337.222 557.109 L338.548 557.877 L339.049 557.58 L340.071 558.601 L342.128 558.61 L344.95 557.312 L345.513 557.446 L348.837 552.22 L349.839 549.285 L350.5 545.237 L350.243 540.318 L349.104 536.195 L347.737 533.107 L346.288 532.1 L346.387 531.431 L345.155 530.041 L343.559 529.865 L343.016 530.41 L342.813 529.991 L342.214 529.974 L341.816 530.733 L341.792 530.509 L341.366 530.816 L341.293 531.329 L341.068 533.694 L341.28 536.868 "/></g><g><path fill="none" stroke="#000000" stroke-width="4" stroke-linecap="butt" stroke-linejoin="round" d="M358.428 551.359 L357.728 550.292 L358.053 550.617 L358.169 550.129 L357.788 549.468 L357.735 549.811 L357.366 549.627 L357.27 549.907 L357.641 550.258 "/></g><g><path fill="none" stroke="#000000" stroke-width="4" stroke-linecap="butt" stroke-linejoin="round" d="M367.255 529.827 L366.908 529.324 L367.15 529.334 L367.123 527.882 L367.032 526.93 L366.85 527.329 L367.518 527.358 L366.908 527.358 L366.942 528.193 L366.539 527.706 L364.918 534.671 L365.437 539.363 L366.099 541.224 L365.86 542.04 L366.043 542.543 L366.569 542.223 L367.185 542.822 L367.559 542.765 L368.382 543.83 L370.292 544.452 L372.626 543.984 L373.863 543.142 L374.795 543.199 L379.786 537.241 L380.376 535.931 L380.827 533.189 L381.025 533.306 L381.129 532.974 L380.714 529.819 L379.473 529.968 L379.43 529.602 L379.14 529.821 L379.309 529.957 L379.162 529.719 L378.802 529.967 L378.981 530.643 L378.342 532.03 L378.206 533.726 L377.311 537.075 L377.399 542.11 L376.946 544.476 L377.114 547.056 L376.803 554.1 L376.97 553.609 L377.259 555.674 L377.444 555.483 L377.707 556.234 L378.3 556.342 L378.755 555.931 "/></g><g><path fill="none" stroke="#000000" stroke-width="4" stroke-linecap="butt" stroke-linejoin="round" d="M390.049 534.292 L389.339 534.363 L388.928 532.958 L388.485 532.962 L388.478 531.371 L388.316 531.722 L388.664 529.991 L389.157 529.641 L389.825 528.122 L390.002 528.63 L390.429 528.217 L391.292 528.938 L391.471 528.533 L391.943 528.742 L392.173 528.372 L392.486 528.623 L392.887 529.677 L393.84 530.581 L394.779 533.742 L394.755 537.565 L394.307 539.252 L393.748 540.245 L393.424 542.064 L392.182 545.441 L391.019 547.596 L390.137 548.527 L389.56 549.911 L388.223 551.673 L387.904 551.226 L387.542 551.368 L386.823 553.068 L386.228 552.718 L385.642 553.268 L384.704 553.518 L384.903 553.349 L384.524 553.214 L384.656 553.58 L384.738 552.249 L385.051 552.651 L385.401 551.928 L385.743 552.263 L385.793 551.789 L386.362 551.283 L386.863 551.644 L388.658 550.777 L389.842 551.448 L391.843 551.877 L392.961 552.84 L394.692 553.141 L395.154 553.95 L396.436 554.75 L397.506 554.934 L398.055 555.359 L399.316 555.396 L399.852 555.771 L401.756 555.461 L402.177 555.876 L402.77 555.722 L405.697 552.987 "/></g><g><path fill="#000000" d="M375.768 594.723 C375.768 594.723 375.768 594.723 375.768 594.723 C379.245 593.594 382.795 592.669 386.198 591.335 C388.283 590.518 390.298 589.494 392.184 588.288 C393.868 587.212 395.575 586.062 396.851 584.524 C397.282 584.005 397.048 583.176 396.983 582.504 C396.938 582.032 396.945 581.383 396.528 581.158 C395.925 580.832 395.07 580.813 394.474 581.149 C392.523 582.247 391.046 584.045 389.184 585.288 C387.951 586.112 386.592 586.743 385.227 587.325 C383.036 588.259 380.851 589.276 378.534 589.829 C378.13 589.926 377.874 589.076 377.471 589.177 C376.366 589.455 375.627 590.849 374.487 590.847 C372.427 590.844 370.587 589.386 368.539 589.165 C367.809 589.086 367.226 589.912 366.496 589.985 C364.818 590.151 363.096 590.181 361.438 589.869 C356.933 589.019 352.5 587.804 348.1 586.517 C344.931 585.589 341.778 584.557 338.753 583.231 C338.104 582.946 337.834 582.115 337.225 581.75 C336.148 581.105 334.822 580.934 333.772 580.247 C331.955 579.057 330.149 577.777 328.692 576.166 C327.085 574.389 325.784 572.328 324.684 570.199 C323.823 568.532 323.331 566.691 322.858 564.875 C322.144 562.136 321.429 559.377 321.13 556.562 C320.811 553.56 320.714 550.511 321.014 547.507 C321.539 542.255 322.489 537.046 323.596 531.886 C324.048 529.78 324.863 527.763 325.678 525.77 C326.238 524.398 326.84 523.014 327.712 521.816 C329.472 519.396 331.418 517.099 333.528 514.977 C334.269 514.231 335.393 513.97 336.19 513.285 C337.834 511.872 339.158 510.11 340.816 508.712 C341.469 508.161 342.291 507.84 343.068 507.484 C345.763 506.252 348.407 504.868 351.225 503.952 C353.91 503.079 356.677 502.135 359.5 502.142 C362.329 502.149 365.046 503.273 367.782 503.992 C368.274 504.121 368.802 504.303 369.146 504.678 C369.813 505.405 370.097 506.42 370.715 507.19 C371.227 507.828 371.695 508.946 372.509 508.865 C373.502 508.766 374.552 507.786 374.672 506.795 C374.844 505.384 374.108 503.908 373.25 502.775 C372.423 501.685 371.15 500.924 369.865 500.453 C366.863 499.354 363.694 498.767 360.562 498.13 C359.868 497.989 359.13 497.982 358.438 498.131 C355.197 498.825 351.93 499.504 348.819 500.647 C345.029 502.04 341.217 503.536 337.816 505.712 C335.592 507.134 334.177 509.547 332.19 511.285 C331.501 511.887 330.481 512.046 329.834 512.692 C329.142 513.385 328.899 514.427 328.285 515.19 C327.518 516.143 326.41 516.803 325.715 517.81 C324.193 520.017 322.819 522.341 321.678 524.768 C320.807 526.623 320.14 528.588 319.711 530.592 C318.582 535.852 317.526 541.151 317.014 546.507 C316.663 550.175 316.709 553.901 317.13 557.562 C317.532 561.058 318.408 564.502 319.471 567.857 C320.277 570.403 321.415 572.85 322.712 575.184 C323.549 576.691 324.519 578.193 325.834 579.308 C328.919 581.92 332.202 584.361 335.776 586.249 C339.235 588.075 343.034 589.187 346.766 590.36 C350.242 591.453 353.771 592.438 357.366 593.035 C363.036 593.978 368.777 594.446 374.5 594.971 "/></g><g><path fill="none" stroke="#000000" stroke-width="4" stroke-linecap="butt" stroke-linejoin="round" d="M407.61 568.442 L408.896 564.342 L410.745 560.095 L412.006 555.566 L412.967 554.047 L415.195 546.041 L415.472 543.533 L415.173 538.503 L412.886 529.59 L409.494 521.254 L404.126 512.557 L403.185 511.412 L402.286 510.953 L400.303 508.14 L396.335 504.746 L392.943 503.324 L382.339 501.039 L378.146 501.359 L369.174 502.909 L360.462 506.037 "/></g><g><path fill="none" stroke="#000000" stroke-width="4" stroke-linecap="butt" stroke-linejoin="round" d="M392.745 581.019 L392.812 581.357 L392.326 581.148 L392.803 580.954 L392.755 580.365 L392.746 580.632 L392.761 580.397 L392.513 580.554 L392.622 580.311 L392.804 580.535 L392.67 580.2 L392.32 580.376 L392.354 580.152 L392.634 580.49 L392.322 580.712 L392.216 580.483 L392.418 580.387 L392.257 580.824 L392.21 580.605 L392.529 581.126 L392.476 580.027 L392.58 580.686 L392.8 580.379 L392.876 580.761 L393.302 579.87 L394.172 579.678 L394.712 578.485 L395.724 577.859 L396.747 576.503 L397.805 575.876 L398.659 574.268 L399.476 573.944 L400.526 572.843 L401.005 571.701 L402.198 570.191 L403.029 569.864 L405.367 564.589 L406.466 563.46 L410.058 558.042 L411.406 555.001 L413.049 552.742 L413.856 550.271 "/></g><g><path fill="none" stroke="#000000" stroke-width="4" stroke-linecap="butt" stroke-linejoin="round" d="M473.291 673.334 L473.259 672.261 L472.753 672.273 L472.722 671.811 L472.667 672.044 L472.684 671.565 L472.801 672.104 L473.115 671.941 L473.018 672.27 L472.766 671.801 L472.96 671.668 L473.007 671.924 L472.787 671.78 L473.111 671.184 L473.231 671.731 L473.406 671.163 L473.477 671.837 L473.298 671.289 L473.513 670.996 L474.108 670.819 L474.504 670.026 L474.722 670.139 L475.555 669.202 L477.999 667.867 L479.924 665.957 L480.276 665.059 L480.884 664.599 L481.453 664.8 L487.207 660.081 L488.23 659.577 L491.37 656.689 L492.69 656.261 L493.45 655.391 L495.478 654.074 L496.053 653.246 L496.612 652.942 L497.824 653.183 L499.249 652.508 L500.506 651.452 L501.794 651.242 L503.512 650.457 L504.802 650.419 L505.355 649.601 L507.207 648.631 L510.925 647.469 L511.816 646.862 L513.137 646.813 L516.322 645.34 L520.293 644.3 L521.092 644.351 L523.898 643.227 "/></g><g><path fill="none" stroke="#000000" stroke-width="4" stroke-linecap="butt" stroke-linejoin="round" d="M396.328 580.641 L395.69 580.611 L395.543 580.284 L395.77 580.5 L395.306 580.737 L395.121 580.451 L395.258 581.156 L395.215 580.702 L394.919 580.643 L395.179 580.262 L395.329 580.813 L395.276 580.301 L395.052 580.84 L395.284 580.67 L395.459 580.903 L395.568 580.526 L395.437 581.285 L395.546 580.924 L395.875 581.667 L396.945 582.102 L397.475 583.38 L399.322 585.452 L403.177 591.945 L406.202 594.82 L414.21 604.459 L415.069 604.482 L417.213 606.301 L418.061 606.509 L420.414 609.273 L423.204 611.644 L424.881 612.169 L429.708 617.572 L431.516 618.428 L433.128 619.801 L433.963 619.756 L435.21 621.969 L438.509 624.528 L439.331 624.46 L439.997 624.957 L442.804 628.182 L446.335 629.794 L448.954 631.701 L449.308 631.4 L450.27 632.967 L452.072 634.022 L452.272 634.506 L452.811 634.654 L453.896 635.804 L454.277 635.596 L454.657 637.23 L454.899 637.383 L455.105 637.007 L456.185 638.493 L456.372 637.838 L456.598 637.933 L456.815 639.6 L457.423 639.73 L458.095 640.813 L458.267 641.975 L458.448 641.473 L459.947 643.074 L460.372 642.942 L461.493 644.947 L462.086 644.971 L463.279 646.49 L463.609 646.644 L463.891 646.341 L464.004 647.125 L465.08 648.752 L465.316 648.936 L465.554 648.355 L465.84 649.725 L466.153 650.146 L466.672 649.988 L466.469 650.596 L466.796 651.639 L466.938 651.131 L467.667 651.961 L468.053 651.868 L468.318 652.795 L468.774 652.795 L469.381 654.05 L469.981 654.21 L470.522 655.14 L470.859 654.723 L470.92 655.823 L472.364 657.031 L472.269 656.297 L473.133 658.503 L473.428 658.718 L473.415 658.149 L473.711 657.97 L473.851 658.495 L474.82 659.308 L474.837 659.756 L475.518 660.028 L475.707 660.933 L476.309 660.468 L476.666 661.042 L477.051 660.831 L476.916 661.205 L477.482 661.872 L477.24 661.706 L477.449 661.141 L477.337 661.726 L477.811 662.546 L477.543 661.576 L477.719 661.107 L477.926 661.948 L479.442 662.067 L481.727 661.286 "/></g><g><path fill="none" stroke="#000000" stroke-width="4" stroke-linecap="butt" stroke-linejoin="round" d="M679.006 338.992 L678.539 337.774 L678.828 336.424 L678.512 336.437 L678.722 337.118 L678.528 336.958 L678.219 337.573 L677.58 346.024 L677.308 351.372 L677.433 368.007 L677.683 368.582 L678.123 368.564 L678.054 367.753 L678.1 368.367 L678.491 368.757 L681.046 367.326 "/></g><g><path fill="none" stroke="#000000" stroke-width="4" stroke-linecap="butt" stroke-linejoin="round" d="M692.876 363.973 L692.575 364.089 L692.646 363.331 L692.555 363.685 L691.917 362.108 L692.007 362.7 L691.679 362.391 L691.728 363.009 L692.249 364.111 "/></g><g><path fill="none" stroke="#000000" stroke-width="4" stroke-linecap="butt" stroke-linejoin="round" d="M714.863 343.053 L714.62 342.222 L714.819 342.369 L715.026 342.02 L714.708 341.032 L714.523 341.335 L714.281 340.935 L713.797 340.971 L713.758 340.655 L713.35 341.009 L712.566 340.977 L712.288 341.425 L712.124 341.096 L711.219 341.104 L709.996 342.257 L709.657 342.248 L706.346 347.004 L703.697 352.6 L702.772 358.888 L703.456 362.239 L704.373 363.509 L705.679 364.445 L706.885 364.358 L707.602 364.651 L709.324 364.042 L709.555 364.473 L712.694 361.564 L713.319 361.338 L713.743 361.565 L714.736 360.564 L717.67 355.349 L718.535 350.319 L718.486 346.981 L717.236 343.624 L715.935 342.32 L713.728 340.979 L712.901 341.142 L712.461 340.83 L710.808 340.8 L709.44 342.109 L708.597 343.824 "/></g><g><path fill="none" stroke="#000000" stroke-width="4" stroke-linecap="butt" stroke-linejoin="round" d="M691.018 313.235 L690.403 311.727 L690.561 311.904 L690.608 311.252 L689.893 310.155 L687.727 308.821 L685.979 308.206 L684.603 308.21 L683.998 307.755 L683.399 308.144 L678.229 308.516 L676.999 308.844 L676.264 309.497 L675.911 309.244 L675.045 309.336 L671.674 310.487 L666.781 313.276 L666.223 313.117 L665.554 314.025 L660.789 317.013 L654.939 322.222 L654.02 322.468 L651.808 325.707 L650.811 326.387 L648.303 329.777 L644.707 336.373 L641.832 344.36 L640.352 354.155 L640.178 357.959 L640.621 363.811 L641.956 368.841 L644.391 373.521 L649.578 379.929 L656.178 385.293 L659.649 386.936 L660.952 388.298 L662.188 388.566 L663.336 389.69 L669.882 392.181 L671.204 393.062 L672.694 392.883 L679.427 394.542 L681.346 394.417 L682.144 394.815 L684.276 395.108 L684.805 395.813 L685.527 395.964 L686.218 395.506 L689.934 394.796 L691.274 394.999 L695.15 394.449 L696.838 393.809 L698.503 393.659 L703.708 392.296 L705.234 392.426 L706.774 391.684 L708.41 391.52 L709.716 390.705 L712.6 390.391 L714.073 389.221 L714.682 389.579 L716.708 389.163 L718.506 388.015 L721.953 386.721 L725.32 384.502 L726.639 383.404 L727.746 381.823 L729.716 380.677 L731.911 377.157 L733.702 373.166 L734.473 372.23 L736.395 365.546 L736.909 364.668 L737.38 361.991 L737.45 358.726 L735.131 349.188 L733.113 343.888 L730.131 338.399 L727.522 334.425 L722.059 328.376 L719.683 326.878 L713.315 321.819 L710.17 320.689 L707.153 319.086 L698.696 316.021 L693.71 314.605 L687.299 313.437 L684.127 313.435 L680.905 312.878 L673.764 313.306 L670.444 314.111 L668.718 314.877 "/></g><g><path fill="none" stroke="#000000" stroke-width="4" stroke-linecap="butt" stroke-linejoin="round" d="M410.395 508.896 L409.873 507.937 L409.688 508.675 L409.335 508.217 L409.365 508.563 L409.336 508.231 L409.169 508.557 L409.025 508.354 L408.81 508.908 L408.727 508.511 L408.26 509.162 L408.318 508.593 L408.216 509.065 L408.306 508.611 L408.178 508.825 L408.416 509.206 L408.654 508.972 L408.355 509.079 L408.611 509.241 L408.659 508.615 L408.782 508.952 L408.793 508.642 L409.004 508.928 L409.828 508.41 L410.044 508.74 L410.402 508.346 L412.631 507.724 L413.496 506.637 L414.572 506.983 L420.835 504.625 L425.143 501.842 L430.737 499.7 L435.341 497.193 L438.429 496.25 L441.695 494.002 L445.174 492.434 L447.807 490.632 L452.578 488.775 L455.611 486.857 L458.322 485.709 L472.29 477.602 L482.251 471.041 L483.915 470.736 L485.561 469.892 L490.431 466.278 L495.38 463.149 L498.524 461.774 L501.553 459.977 L504.857 457.654 L506.575 456.664 L511.835 454.778 L514.596 453.292 L520.187 449.32 L522.943 447.812 L525.726 446.826 L530.022 444.021 L534.162 442.073 L540.283 437.931 L544.329 436.025 L549.84 432.292 L555.31 429.746 L557.172 428.1 L559.848 426.454 L560.695 425.537 L562.826 425.135 L566.752 422.919 L579.44 413.749 L580.749 413.466 L582.145 412.391 L583.147 411.035 L584.096 411.039 L586.805 409.224 L589.696 408.255 L590.738 407.064 L594.503 404.795 L595.236 403.753 L597.268 403.302 L601.395 400.855 L602.151 400.897 L604.431 399.2 L606.067 398.772 L606.913 397.586 L607.588 397.973 L609.759 396.662 L610.94 396.252 L611.298 396.398 L613.079 394.145 L613.762 394.432 L614.867 393.943 L615.21 393.278 L616.248 393.011 L616.706 393.328 L616.959 392.391 L617.482 392.194 L617.871 392.492 L619.145 391.116 L620.05 391.117 L621.502 390.335 L621.789 390.597 L623.711 389.246 L623.87 388.692 L624.114 388.647 L624.246 389.077 L625.948 388.016 L626.557 387.945 L627.823 386.485 L628.143 386.473 L628.292 386.838 L629.311 385.958 L632.233 384.481 L633.122 383.479 L633.516 383.748 L633.996 383.546 L636.149 381.908 L636.686 381.94 L637.778 381.247 L637.993 381.397 L638.377 380.735 L639.339 380.526 L640.076 379.677 L640.496 379.733 L640.733 378.913 L640.905 379.426 L641.403 378.55 L641.584 378.919 L642.618 378.507 L645.239 376.665 L645.322 376.885 L645.233 376.635 L645.759 377.319 "/></g><g><path fill="none" stroke="#000000" stroke-width="4" stroke-linecap="butt" stroke-linejoin="round" d="M731.04 381.942 L730.639 381.823 L730.347 381.008 L729.759 380.925 L729.708 380.203 L729.436 380.349 L728.923 379.905 L728.776 380.095 L728.862 379.553 L729.023 380.344 L728.888 379.997 L729.141 380.36 L729.662 379.897 L730.29 380.756 L731.754 381.6 L733.449 382.018 L736.962 383.803 L738.367 384.103 L740.775 385.512 L744.102 386.927 L745.219 387.919 L746.517 388.214 L749.045 389.588 L751.66 390.614 L752.511 390.549 L754.19 391.709 L756.668 392.328 L762.163 395.322 L763.042 396.084 L765.837 396.744 L767.305 397.531 L768.914 397.781 L771.104 399.232 L775.707 400.864 L781.565 404.314 L782.594 404.212 L785.399 405.328 L786.414 405.339 L788.468 406.905 L792.959 408.467 L795.51 408.884 L801.121 411.317 L803.322 411.79 L807.651 413.367 L808.607 414.463 L809.735 415.136 L810.933 414.852 L816.252 416.3 L819.584 418.153 L823.975 419.717 L827.754 421.585 L829.951 422.034 L839.558 426.283 L841.447 426.624 L843.243 427.77 L851.678 430.932 L853.822 432.225 L854.642 432.043 L858.631 433.175 L860.39 434.361 L865.182 436.65 L873.067 439.627 L874.394 440.507 L878.627 441.354 L882.152 443.328 L884.323 443.517 L886.081 444.075 L891.476 446.468 L893.361 446.726 L894.856 447.628 L898.724 448.96 L899.756 449.68 L900.327 449.431 L902.836 449.949 L903.261 450.577 L904.641 451.324 L905.797 451.435 L908.162 452.592 L908.583 453.292 L909.197 453.427 L909.74 453.048 L910.791 453.453 L911.271 453.331 L912.083 454.381 L914.483 454.716 L916.728 456.101 L920.083 457.036 L920.478 456.914 L922.24 457.995 L923.577 458.057 L924.826 458.55 L925.084 459.397 L925.787 459.151 L926.92 459.368 L929.335 460.745 L929.712 461.266 L929.971 460.913 L930.347 461.069 L930.497 460.668 L930.99 461.593 L933.194 462.393 L933.671 463.168 L934.381 463.005 L935.448 463.786 L936.521 464.023 L936.98 463.698 L938.292 465.069 L940.249 465.582 L940.728 466.17 L941.343 465.909 L941.911 466.062 L942.178 465.675 L942.552 466.657 L944.33 467.303 L944.768 468.54 L944.898 467.804 L945.458 467.899 L945.531 467.488 L945.992 468.522 L946.79 468.621 L947.415 469.088 L947.566 469.626 L948.287 469.457 L948.548 470.419 L948.761 469.997 L948.911 470.373 L949.351 470.299 L949.85 471.095 L950.292 471.051 L951.018 471.794 L952.647 472.681 L952.941 472.372 L953.002 472.979 L954.111 473.809 L954.482 474.972 L954.447 474.22 L954.826 473.745 L955.602 475.102 L956.19 475.5 L956.492 475.152 L956.649 476.24 L956.922 475.523 L957.14 476.288 L957.344 476.436 L957.43 476.152 L957.586 476.648 L958.367 477.25 L958.516 477.065 L959.067 477.889 L959.246 477.264 L959.505 477.264 L960.283 478.561 L962.765 479.088 "/></g>
</svg>