<svg width="1404" height="1872" viewBox="0 0 1404 1872" xmlns="http://www.w3.org/2000/svg" xmlns:xlink="http://www.w3.org/1999/xlink"  version="1.2" baseProfile="tiny"><title>tilda notes</title>
<g><path fill="#000000" d="M693.049 1169.95 C693.049 1169.95 693.049 1169.95 693.049 1169.95 C694.346 1164.41 695.542 1158.85 696.941 1153.33 C697.189 1152.36 697.868 1151.5 697.985 1150.49 C698.181 1148.82 698.195 1147.09 697.866 1145.44 C697.604 1144.13 696.888 1142.95 696.247 1141.78 C696.095 1141.5 695.841 1141.17 695.524 1141.16 C694.923 1141.14 693.932 1141.12 693.806 1141.71 C692.556 1147.54 692.47 1153.58 691.602 1159.48 C691.206 1162.18 690.405 1164.81 690.015 1167.51 C689.918 1168.17 689.933 1168.89 690.149 1169.53 C690.288 1169.94 690.594 1170.44 691.026 1170.5 M527.699 1158.75 C527.699 1158.75 527.699 1158.75 527.699 1158.75 C532.281 1158.1 536.892 1157.63 541.446 1156.81 C543.537 1156.43 545.583 1155.81 547.601 1155.15 C549.184 1154.62 550.734 1153.99 552.228 1153.25 C554.917 1151.91 557.755 1150.76 560.132 1148.92 C562.25 1147.29 563.585 1144.82 565.528 1142.98 C566.291 1142.25 567.377 1141.95 568.19 1141.28 C569.219 1140.44 570.182 1139.5 571.023 1138.47 C572.186 1137.05 573.263 1135.54 574.179 1133.94 C575.101 1132.34 575.87 1130.64 576.514 1128.9 C577.557 1126.09 577.184 1122.51 579.228 1120.31 C580.198 1119.27 579.697 1123.39 580.807 1124.28 C582.575 1125.71 585.233 1125.52 587.17 1126.7 C588.877 1127.74 589.648 1130.14 591.528 1130.82 C592.432 1131.15 593.181 1129.81 593.865 1129.13 C594.012 1128.99 594.023 1128.64 593.865 1128.51 C592.434 1127.32 590.574 1126.66 589.284 1125.31 C588.994 1125.01 590.087 1125.04 590.506 1125.02 C591.189 1124.98 591.911 1124.9 592.554 1125.14 C593.609 1125.52 594.384 1126.54 595.471 1126.82 C595.861 1126.92 596.074 1126.2 596.474 1126.15 C598.133 1125.92 599.832 1125.81 601.493 1126.01 C604.87 1126.43 608.138 1127.51 611.507 1127.99 C612.504 1128.13 613.537 1128.05 614.526 1127.85 C614.909 1127.78 615.11 1127.19 615.5 1127.2 C616.214 1127.23 616.786 1127.97 617.5 1127.97 C618.214 1127.97 618.786 1127.23 619.5 1127.2 C619.888 1127.18 620.102 1127.73 620.473 1127.84 C620.808 1127.95 621.188 1127.93 621.527 1127.84 C622.214 1127.66 622.789 1127.01 623.5 1127.03 C624.55 1127.06 625.459 1127.87 626.503 1127.98 C628.49 1128.2 630.508 1128.18 632.496 1127.98 C633.21 1127.91 633.784 1127.23 634.5 1127.2 C634.89 1127.18 635.09 1127.78 635.474 1127.85 C636.463 1128.05 637.497 1128.12 638.496 1127.98 C639.204 1127.89 639.759 1127.17 640.473 1127.16 C641.529 1127.13 642.512 1127.98 643.563 1127.87 C658.107 1126.33 672.597 1124.3 687.076 1122.23 C690.569 1121.73 693.949 1120.52 697.46 1120.16 C698.187 1120.09 698.768 1121.02 699.497 1120.97 C703.72 1120.71 707.895 1119.91 712.076 1119.25 C718.076 1118.31 724.088 1117.41 730.037 1116.19 C736.077 1114.95 742.002 1113.19 748.024 1111.87 C751.088 1111.19 754.246 1110.97 757.287 1110.2 C759.074 1109.75 760.758 1108.95 762.448 1108.21 C766.074 1106.63 769.692 1105.02 773.228 1103.25 C775.039 1102.34 776.585 1100.91 778.471 1100.18 C778.844 1100.03 779.106 1100.72 779.498 1100.8 C779.694 1100.84 779.884 1100.64 780.003 1100.48 C780.632 1099.63 781.026 1098.61 781.715 1097.81 C783.04 1096.27 784.508 1094.86 786.015 1093.5 C786.326 1093.22 786.843 1093.23 787.133 1092.93 C788.141 1091.88 789.204 1090.82 789.851 1089.53 C790.156 1088.91 790.108 1088.11 789.851 1087.47 C789.618 1086.9 789.052 1086.48 788.502 1086.2 C788.325 1086.11 788.106 1086.36 787.998 1086.52 C787.024 1088.03 786.427 1089.79 785.289 1091.18 C783.467 1093.41 781.398 1095.44 779.19 1097.28 C777.344 1098.83 775.242 1100.04 773.186 1101.29 C771.925 1102.05 770.592 1102.7 769.254 1103.32 C766.316 1104.68 763.451 1106.26 760.362 1107.23 C756.572 1108.43 752.552 1108.75 748.718 1109.8 C746.928 1110.29 745.349 1111.43 743.537 1111.83 C743.141 1111.92 742.912 1111.28 742.527 1111.16 C742.193 1111.05 741.79 1111.01 741.472 1111.16 C740.967 1111.4 740.7 1111.99 740.208 1112.26 C739.486 1112.65 738.682 1112.87 737.891 1113.1 C734.452 1114.06 731.04 1115.17 727.527 1115.82 C727.134 1115.89 726.9 1115.2 726.5 1115.2 C726.111 1115.2 725.898 1115.73 725.527 1115.84 C725.192 1115.95 724.805 1115.96 724.473 1115.84 C724.103 1115.71 723.907 1115.24 723.526 1115.15 C722.851 1114.99 722.122 1114.98 721.447 1115.14 C720.831 1115.28 720.378 1115.86 719.764 1116.01 C717.272 1116.62 714.732 1117.03 712.194 1117.4 C703.827 1118.64 695.413 1119.56 687.055 1120.85 C685.851 1121.03 684.752 1121.75 683.537 1121.83 C683.131 1121.86 682.925 1121.23 682.526 1121.15 C681.539 1120.95 680.5 1120.85 679.506 1121.01 C677.139 1121.41 674.915 1122.49 672.539 1122.83 C672.138 1122.89 671.914 1122.28 671.529 1122.16 C671.185 1122.04 670.792 1122.05 670.441 1122.14 C669.573 1122.36 668.807 1122.94 667.921 1123.08 C660.47 1124.22 653.017 1125.51 645.493 1125.99 C637.512 1126.49 629.496 1126.23 621.503 1125.98 C620.787 1125.96 620.217 1125.2 619.5 1125.2 C618.783 1125.2 618.21 1125.91 617.496 1125.98 C615.509 1126.18 613.475 1126.32 611.506 1125.99 C609.771 1125.69 608.297 1124.42 606.559 1124.14 C605.85 1124.02 605.234 1124.73 604.526 1124.85 C603.532 1125.02 602.504 1125.13 601.506 1124.99 C595.597 1124.14 589.615 1123.51 583.867 1121.9 C582.934 1121.64 582.577 1120.42 582.144 1119.55 C581.983 1119.23 581.953 1118.77 582.158 1118.47 C582.874 1117.44 583.704 1116.41 584.775 1115.75 C587.18 1114.27 589.703 1112.83 592.441 1112.13 C594.721 1111.56 597.151 1111.84 599.496 1112.02 C600.214 1112.07 600.805 1112.96 601.506 1112.8 C601.95 1112.7 602 1111.9 601.842 1111.47 C601.626 1110.89 601.142 1110.24 600.526 1110.15 C597.868 1109.77 595.139 1109.83 592.474 1110.15 C591.922 1110.21 591.72 1111 591.224 1111.25 C588.553 1112.59 585.614 1113.39 583.031 1114.9 C581.846 1115.59 580.693 1118.97 580.069 1117.75 C577.929 1113.57 578.469 1108.49 577.411 1103.91 C576.951 1101.93 576.258 1099.99 575.524 1098.09 C575.213 1097.29 574.74 1096.55 574.288 1095.82 C573.873 1095.14 573.486 1094.43 572.926 1093.87 C571.442 1092.38 569.878 1090.96 568.19 1089.71 C566.547 1088.5 564.75 1087.5 562.969 1086.5 C561.883 1085.88 560.795 1085.22 559.598 1084.87 C555.444 1083.65 551.244 1082.53 546.977 1081.79 C540.216 1080.61 533.382 1079.89 526.563 1079.13 C525.54 1079.01 524.474 1078.91 523.476 1079.16 C523.18 1079.23 522.849 1079.82 523.101 1079.99 C524.402 1080.88 525.926 1081.43 527.44 1081.87 C528.108 1082.06 528.848 1082.01 529.526 1081.85 C529.925 1081.76 530.134 1081.12 530.541 1081.16 C537.099 1081.8 543.647 1082.65 550.122 1083.87 C553.637 1084.53 557.063 1085.63 560.444 1086.8 C561.769 1087.25 562.974 1088.01 564.186 1088.71 C565.227 1089.32 566.285 1089.92 567.19 1090.71 C568.998 1092.3 570.786 1093.94 572.289 1095.82 C573.48 1097.3 574.549 1098.94 575.211 1100.73 C576.134 1103.22 576.794 1105.85 576.986 1108.51 C577.349 1113.51 577.639 1118.6 576.866 1123.56 C576.386 1126.63 574.644 1129.38 573.291 1132.18 C572.446 1133.93 571.409 1135.59 570.289 1137.18 C569.793 1137.89 569.149 1138.49 568.472 1139.02 C567.646 1139.67 566.595 1140.02 565.81 1140.71 C563.485 1142.78 561.709 1145.47 559.184 1147.29 C555.867 1149.67 552.165 1151.51 548.447 1153.2 C546.402 1154.13 544.175 1154.61 541.986 1155.12 C538.873 1155.84 535.731 1156.46 532.562 1156.87 C530.89 1157.09 529.165 1157.29 527.506 1156.99 C524.063 1156.36 520.714 1155.26 517.404 1154.13 C516.133 1153.69 514.942 1153.02 513.815 1152.29 C513.205 1151.89 512.897 1151.09 512.246 1150.77 C510.196 1149.74 507.765 1149.53 505.83 1148.3 C503.19 1146.62 500.926 1144.4 498.715 1142.19 C497.535 1141.01 496.557 1139.62 495.712 1138.18 C494.196 1135.6 492.571 1133.02 491.657 1130.18 C490.028 1125.1 488.463 1119.89 488.134 1114.56 C487.868 1110.25 489.128 1105.97 489.901 1101.72 C490.252 1099.79 490.851 1097.91 491.498 1096.06 C492.122 1094.27 492.793 1092.48 493.707 1090.82 C494.074 1090.16 494.898 1089.84 495.288 1089.18 C496.905 1086.49 497.891 1083.42 499.69 1080.84 C500.251 1080.03 501.452 1079.93 502.19 1079.28 C504.161 1077.56 505.711 1075.37 507.775 1073.75 C508.844 1072.91 510.338 1072.78 511.467 1072.03 C512.381 1071.42 512.896 1070.31 513.816 1069.71 C515.915 1068.33 517.995 1066.68 520.446 1066.14 C523.716 1065.41 527.168 1065.61 530.494 1066.01 C531.942 1066.19 533.101 1067.34 534.478 1067.82 C534.624 1067.87 534.85 1067.68 534.829 1067.52 C534.74 1066.89 534.679 1066.12 534.183 1065.71 C532.802 1064.58 531.269 1063.16 529.485 1063.15 C525.838 1063.13 522.329 1064.61 518.827 1065.63 C517.092 1066.13 515.405 1066.84 513.822 1067.71 C513.158 1068.07 512.815 1068.87 512.184 1069.29 C510.798 1070.21 509.116 1070.67 507.816 1071.71 C505.755 1073.36 504.177 1075.55 502.19 1077.28 C501.493 1077.89 500.537 1078.14 499.81 1078.71 C499.034 1079.33 498.297 1080.01 497.715 1080.81 C495.589 1083.72 493.549 1086.71 491.713 1089.81 C490.194 1092.38 488.696 1095 487.667 1097.8 C486.157 1101.91 484.826 1106.12 484.131 1110.44 C483.599 1113.75 483.688 1117.16 484.014 1120.49 C484.287 1123.29 484.958 1126.06 485.916 1128.69 C486.872 1131.33 488.359 1133.73 489.713 1136.19 C490.295 1137.24 490.909 1138.3 491.715 1139.19 C493.955 1141.68 496.241 1144.15 498.816 1146.29 C500.097 1147.35 501.843 1147.73 503.183 1148.71 C503.647 1149.05 503.699 1149.76 504.099 1150.18 C504.475 1150.57 504.961 1150.86 505.459 1151.08 C507.287 1151.87 509.237 1152.37 511.05 1153.19 C512.377 1153.8 513.471 1154.89 514.854 1155.35 M532.751 1129.73 C532.751 1129.73 532.751 1129.73 532.751 1129.73 C536.242 1128.24 539.861 1127.01 543.224 1125.25 C544.802 1124.42 546.239 1123.29 547.477 1122.01 C547.841 1121.63 547.98 1120.98 547.83 1120.47 C547.753 1120.22 547.256 1120.36 547.026 1120.5 C545.673 1121.32 544.528 1122.45 543.186 1123.29 C540.935 1124.69 538.69 1126.14 536.263 1127.22 C534.453 1128.02 532.498 1128.46 530.561 1128.87 C529.88 1129.01 529.154 1129 528.474 1128.85 C528.092 1128.77 527.891 1128.21 527.5 1128.2 C527.099 1128.19 526.86 1128.92 526.471 1128.82 C525.477 1128.58 524.623 1127.91 523.81 1127.28 C523.018 1126.68 522.13 1126.06 521.698 1125.16 C520.538 1122.75 519.651 1120.19 519.131 1117.56 C518.768 1115.73 517.579 1113.06 519.082 1111.95 C523.879 1108.39 530.477 1108.16 535.706 1105.28 C536.951 1104.59 532.803 1104.72 531.441 1105.13 C527.655 1106.28 524.279 1108.52 520.555 1109.86 C520.104 1110.02 519.279 1109.99 519.157 1109.53 C518.728 1107.89 518.694 1106.08 519.138 1104.45 C519.626 1102.64 521.261 1101.32 521.862 1099.55 C522.193 1098.58 522.029 1097.49 521.852 1096.47 C521.785 1096.09 521.208 1095.92 521.157 1095.53 C521.089 1095 521.112 1094.31 521.529 1093.99 C522.681 1093.09 524.045 1092.19 525.504 1092.15 C527.173 1092.11 528.723 1093.08 530.246 1093.77 C530.741 1093.99 530.951 1094.69 531.472 1094.84 C531.919 1094.97 532.605 1094.93 532.835 1094.53 C533.088 1094.08 532.793 1093.44 532.502 1093.02 C531.991 1092.27 531.414 1091.33 530.526 1091.15 C528.215 1090.67 525.776 1090.76 523.446 1091.14 C522.435 1091.3 521.591 1092.05 520.81 1092.72 C519.476 1093.85 518.081 1094.99 517.149 1096.47 C516.784 1097.05 516.994 1097.86 517.148 1098.53 C517.236 1098.91 517.713 1099.1 517.842 1099.47 C517.961 1099.81 517.967 1100.21 517.856 1100.55 C517.641 1101.22 517.119 1101.76 516.89 1102.42 C516.208 1104.4 515.514 1106.38 515.131 1108.44 C514.844 1109.98 515.89 1111.93 514.892 1113.14 C513.245 1115.14 510.297 1115.56 508.117 1116.96 C507.968 1117.05 507.984 1117.39 508.134 1117.49 C508.549 1117.75 509.088 1118 509.555 1117.86 C510.624 1117.52 511.371 1116.46 512.445 1116.14 C512.964 1115.99 513.792 1116.04 514.022 1116.53 C515.007 1118.64 514.934 1121.11 515.785 1123.27 C516.048 1123.93 516.879 1124.22 517.285 1124.81 C517.969 1125.81 518.094 1127.22 519.028 1127.99 C520.263 1129 521.854 1129.67 523.44 1129.87 M836.717 1110.76 C836.717 1110.76 836.717 1110.76 836.717 1110.76 C841.172 1109.97 845.657 1109.33 850.083 1108.39 C851.172 1108.16 852.253 1107.8 853.221 1107.25 C856.16 1105.58 858.776 1103.37 861.75 1101.77 C863.145 1101.02 864.904 1101.07 866.246 1100.23 C867.659 1099.34 868.53 1097.79 869.81 1096.71 C870.616 1096.04 871.686 1095.72 872.472 1095.02 C874.526 1093.2 876.572 1091.33 878.288 1089.18 C879.221 1088.02 879.787 1086.59 880.334 1085.2 C881.317 1082.7 882.569 1080.23 882.867 1077.56 C883.463 1072.24 883.381 1066.84 882.986 1061.51 C882.772 1058.62 879.641 1055.56 881.052 1053.03 C882.444 1050.53 886.515 1051.32 889.205 1050.34 C890.909 1049.73 892.609 1049.07 894.224 1048.25 C894.718 1048 894.955 1047.35 895.471 1047.15 C895.99 1046.95 896.719 1046.75 897.143 1047.11 C898.27 1048.07 898.324 1050.18 899.689 1050.76 C900.529 1051.12 901.239 1049.77 901.896 1049.13 C902.037 1049 902.007 1048.74 901.971 1048.55 C901.874 1048.02 901.814 1047.45 901.502 1047.02 C900.973 1046.28 900.368 1045.49 899.526 1045.15 C898.59 1044.77 897.451 1044.67 896.503 1045.02 C893.036 1046.27 890.042 1048.66 886.554 1049.86 C885.267 1050.3 883.775 1050.23 882.472 1049.84 C882.018 1049.71 882.045 1048.97 882.016 1048.5 C881.931 1047.15 881.78 1045.75 882.132 1044.44 C882.784 1042.02 884.257 1039.89 884.984 1037.5 C885.183 1036.84 885.096 1036.09 884.862 1035.45 C884.513 1034.48 883.979 1033.56 883.283 1032.81 C882.918 1032.42 882.335 1032.03 881.812 1032.15 C881.346 1032.26 881.153 1032.88 881.003 1033.34 C879.953 1036.52 881.374 1041.83 878.233 1042.99 C875.672 1043.94 875.768 1038.11 874.288 1035.82 C873.181 1034.1 872.005 1032.38 870.498 1031 C866.201 1027.07 861.211 1023.93 856.956 1019.95 C856 1019.06 855.789 1017.6 855.028 1016.53 C854.541 1015.85 853.986 1015.16 853.246 1014.77 C851.781 1014 850.199 1013.36 848.56 1013.13 C846.209 1012.81 843.778 1012.73 841.439 1013.13 C836.798 1013.94 832.145 1014.98 827.777 1016.74 C826.852 1017.12 826.967 1018.66 826.19 1019.28 C825.136 1020.13 823.652 1020.27 822.506 1020.99 C819.179 1023.09 815.892 1025.27 812.81 1027.71 C811.034 1029.12 809.667 1030.98 807.984 1032.5 C807.673 1032.78 807.162 1032.78 806.866 1033.07 C804.388 1035.56 801.607 1037.86 799.712 1040.82 C796.493 1045.84 794.103 1051.36 791.664 1056.8 C790.568 1059.25 789.442 1061.78 789.132 1064.44 C788.589 1069.11 788.569 1073.89 789.134 1078.56 C789.46 1081.25 790.699 1083.76 791.772 1086.25 C792.237 1087.33 792.974 1088.28 793.715 1089.19 C794.486 1090.14 795.561 1090.82 796.285 1091.81 C797.029 1092.82 797.241 1094.19 798.076 1095.13 C799.782 1097.05 801.784 1098.7 803.81 1100.28 C805.706 1101.76 807.757 1103.04 809.814 1104.29 C811.081 1105.05 812.371 1105.82 813.767 1106.32 C817.646 1107.7 821.682 1108.6 825.589 1109.9 C826.251 1110.12 826.751 1110.81 827.446 1110.86 M834.292 1109.75 C834.292 1109.75 834.292 1109.75 834.292 1109.75 C831.051 1109.1 827.763 1108.66 824.57 1107.82 C820.913 1106.85 817.271 1105.76 813.777 1104.31 C811.986 1103.57 810.392 1102.4 808.81 1101.28 C807.031 1100.03 805.123 1098.85 803.715 1097.19 C801.38 1094.43 799.427 1091.35 797.704 1088.17 C796.708 1086.34 796.199 1084.27 795.616 1082.27 C794.967 1080.04 794.201 1077.81 794.014 1075.49 C793.664 1071.18 793.609 1066.82 794.014 1062.51 C794.207 1060.44 795.062 1058.49 795.792 1056.55 C797.289 1052.57 798.87 1048.62 800.688 1044.78 C801.518 1043.03 802.564 1041.37 803.715 1039.81 C804.441 1038.83 805.506 1038.13 806.285 1037.19 C807.117 1036.18 807.605 1034.9 808.529 1033.98 C809.272 1033.23 810.4 1032.98 811.19 1032.28 C813.173 1030.55 814.84 1028.47 816.81 1026.71 C818.056 1025.6 819.358 1024.52 820.816 1023.71 C823.85 1022.02 827.147 1020.85 830.227 1019.25 C831.365 1018.65 832.187 1017.39 833.446 1017.14 C836.077 1016.62 838.849 1016.56 841.493 1017.01 C845.434 1017.69 849.186 1019.21 852.971 1020.5 C854.754 1021.11 856.6 1021.68 858.177 1022.71 C859.599 1023.64 860.482 1025.22 861.81 1026.28 C863.832 1027.9 866.275 1028.97 868.19 1030.71 C869.804 1032.18 871.074 1034 872.289 1035.82 C873.803 1038.07 875.323 1040.37 876.353 1042.89 C877.648 1046.05 878.368 1049.43 879.216 1052.74 C880.208 1056.61 881.34 1060.47 881.869 1064.44 C882.269 1067.43 882.384 1070.5 881.986 1073.49 C881.492 1077.21 880.36 1080.83 879.217 1084.4 C878.786 1085.75 878.173 1087.08 877.288 1088.18 C876.354 1089.35 874.922 1090.02 873.866 1091.07 C872.881 1092.06 872.216 1093.34 871.19 1094.28 C870.415 1095 869.349 1095.32 868.528 1095.98 C867.668 1096.66 867.124 1097.73 866.177 1098.29 C863.849 1099.67 861.195 1100.41 858.822 1101.71 C857.517 1102.42 856.456 1103.52 855.186 1104.29 C853.908 1105.06 852.589 1105.79 851.198 1106.33 C848.703 1107.32 846.172 1108.25 843.56 1108.87 C842.559 1109.1 841.488 1109.03 840.474 1108.85 C840.072 1108.78 839.866 1108.11 839.463 1108.17 M836.725 1082.75 C836.725 1082.75 836.725 1082.75 836.725 1082.75 C839.868 1081.94 843.057 1081.28 846.155 1080.31 C847.925 1079.75 849.881 1079.38 851.296 1078.18 C852.316 1077.31 852.285 1075.68 852.972 1074.53 C853.295 1073.99 853.946 1073.71 854.289 1073.18 C855.251 1071.7 856.512 1070.28 856.862 1068.55 C857.398 1065.9 857.329 1063.11 856.866 1060.44 C856.531 1058.52 855.419 1056.8 854.516 1055.07 C853.224 1052.59 852.001 1050.03 850.289 1047.82 C848.528 1045.54 846.459 1043.47 844.184 1041.71 C841.981 1040 839.44 1038.78 836.966 1037.5 C834.559 1036.25 832.222 1034.64 829.558 1034.13 C826.257 1033.5 822.811 1033.75 819.474 1034.15 C818.859 1034.22 818.033 1034.9 818.201 1035.5 C818.493 1036.54 819.419 1037.89 820.498 1037.8 C821.69 1037.7 821.772 1035.58 822.867 1035.1 C823.994 1034.61 825.369 1034.82 826.561 1035.13 C829.773 1035.96 832.95 1037.04 835.934 1038.49 C838.854 1039.91 841.951 1041.32 844.166 1043.69 C846.613 1046.31 847.931 1049.81 849.509 1053.03 C850.836 1055.74 852.727 1058.43 852.86 1061.44 C853.022 1065.1 851.439 1068.65 850.353 1072.15 C849.906 1073.59 849.08 1074.9 848.288 1076.18 C848.016 1076.63 847.604 1076.97 847.19 1077.28 C846.252 1077.99 845.33 1078.77 844.249 1079.23 C842.403 1080.01 840.466 1080.62 838.493 1080.99 C837.492 1081.17 836.417 1081.16 835.441 1080.87 C833.055 1080.16 830.653 1079.33 828.533 1078.03 C827.151 1077.18 826.013 1075.9 825.148 1074.53 C824.776 1073.94 824.531 1072.94 825.014 1072.44 C826.115 1071.28 828.903 1071.79 829.254 1070.23 C831.277 1061.28 830.614 1051.93 831.708 1042.82 C831.809 1041.97 833.281 1041.24 832.822 1040.52 C832.3 1039.71 830.699 1039.46 829.953 1040.08 C828.608 1041.19 828.242 1043.14 827.661 1044.79 C826.863 1047.06 826.284 1049.41 825.837 1051.77 C825.106 1055.63 824.342 1059.51 824.133 1063.44 C824.059 1064.82 824.835 1066.12 824.998 1067.5 C825.077 1068.17 825.013 1068.87 824.852 1069.53 C824.681 1070.22 824.098 1070.79 824.015 1071.5 C823.859 1072.84 823.467 1074.37 824.148 1075.53 C825.421 1077.68 827.476 1079.32 829.5 1080.8 C829.823 1081.04 830.15 1080.05 830.528 1080.18 C832.292 1080.79 833.721 1082.14 835.444 1082.86 M500.829 1073.55 C500.829 1073.55 500.829 1073.55 500.829 1073.55 C500.84 1072.18 501.107 1070.79 500.862 1069.45 C500.708 1068.6 499.957 1067.97 499.668 1067.16 C498.261 1063.24 496.895 1059.29 495.785 1055.27 C492.203 1042.28 488.729 1029.27 485.597 1016.17 C484.504 1011.6 484.061 1006.9 483.116 1002.29 C481.782 995.788 480.046 989.369 478.763 982.855 C476.951 973.658 475.312 964.426 473.832 955.17 C472.123 944.48 470.856 933.723 469.198 923.025 C468.82 920.584 468.084 918.206 467.725 915.762 C465.246 898.857 462.829 881.941 460.686 864.99 C457.732 841.624 455.431 818.179 452.435 794.818 C451.114 784.521 449.069 774.326 447.737 764.031 C446.512 754.558 445.638 745.042 444.766 735.53 C443.726 724.197 442.361 712.875 442.001 701.5 C441.443 683.845 441.54 666.165 442.014 648.507 C442.168 642.745 442.992 637.011 443.885 631.317 C444.128 629.767 443.847 626.714 445.408 626.865 C447.274 627.045 447.493 630.007 448.217 631.736 C448.999 633.605 449.036 635.743 449.893 637.578 C450.677 639.256 451.848 640.746 453.074 642.133 C453.722 642.866 454.585 643.397 455.446 643.862 C455.759 644.031 456.15 643.985 456.506 643.985 C457.19 643.985 457.919 644.118 458.553 643.862 C459.378 643.528 460.41 643.125 460.708 642.286 C460.89 641.776 460.029 641.317 459.501 641.201 C459.121 641.117 458.843 641.981 458.499 641.799 C457.389 641.214 456.386 640.307 455.75 639.224 C453.616 635.589 452.206 631.571 450.288 627.816 C449.928 627.11 449.51 626.403 448.926 625.866 C447.738 624.774 445.959 624.308 445.033 622.986 C443.973 621.47 441.672 618.723 443.236 617.734 C447.304 615.162 452.675 615.817 457.441 615.14 C457.963 615.066 458.526 615.232 458.981 615.498 C459.5 615.799 459.94 616.261 460.249 616.775 C460.957 617.947 461.315 619.304 461.994 620.493 C462.652 621.645 463.622 622.603 464.247 623.772 C464.99 625.162 465.2 626.823 466.077 628.132 C466.598 628.91 467.778 629.067 468.31 629.837 C470.355 632.798 471.781 636.147 473.711 639.184 C474.117 639.822 474.879 640.18 475.289 640.816 C477.889 644.861 480.044 649.183 482.711 653.184 C483.391 654.203 484.55 654.829 485.285 655.81 C486.561 657.511 487.368 659.544 488.715 661.19 C490.386 663.233 492.639 664.755 494.289 666.816 C495.329 668.116 495.743 669.829 496.711 671.184 C497.424 672.181 498.519 672.853 499.285 673.81 C499.863 674.533 500.113 675.487 500.715 676.19 C502.125 677.835 503.873 679.167 505.285 680.81 C505.97 681.607 506.27 682.694 506.977 683.472 C509.616 686.375 512.647 688.906 515.285 691.81 C515.907 692.495 516.089 693.508 516.715 694.19 C519.773 697.525 523.197 700.51 526.29 703.812 C528.39 706.054 530.424 708.366 532.285 710.81 C533.573 712.502 534.341 714.566 535.715 716.19 C538.028 718.923 540.889 721.15 543.285 723.81 C543.989 724.591 544.293 725.674 544.977 726.472 C546.303 728.019 547.959 729.263 549.285 730.81 C549.969 731.608 550.298 732.669 550.977 733.472 C553.972 737.012 557.293 740.267 560.285 743.81 C560.882 744.517 561.1 745.498 561.715 746.19 C563.78 748.514 566.218 750.488 568.285 752.81 C568.984 753.595 569.304 754.664 569.977 755.472 C570.98 756.676 572.264 757.622 573.285 758.81 C574.36 760.062 575.398 761.361 576.249 762.775 C576.896 763.849 577.069 765.172 577.75 766.225 C578.279 767.042 579.03 767.715 579.816 768.289 C581.468 769.493 583.579 770.083 585.024 771.529 C586.617 773.122 587.286 775.449 588.715 777.19 C590.389 779.229 592.546 780.827 594.285 782.81 C594.978 783.6 595.293 784.674 595.977 785.472 C597.303 787.019 598.961 788.26 600.285 789.81 C600.886 790.514 601.096 791.502 601.715 792.19 C604.11 794.851 606.972 797.077 609.285 799.81 C610.659 801.433 611.292 803.609 612.715 805.19 C614.33 806.985 616.684 808.012 618.289 809.816 C619.395 811.06 619.689 812.87 620.711 814.184 C622.044 815.897 623.956 817.103 625.289 818.816 C626.311 820.13 626.732 821.837 627.711 823.184 C629.409 825.518 631.513 827.531 633.285 829.81 C633.853 830.54 634.092 831.505 634.715 832.19 C637.44 835.188 640.631 837.748 643.285 840.81 C644.981 842.766 646.125 845.146 647.715 847.19 C648.466 848.156 649.521 848.855 650.285 849.81 C650.863 850.533 651.105 851.493 651.715 852.19 C653.452 854.175 655.596 855.784 657.285 857.81 C658.942 859.799 660.156 862.123 661.715 864.19 C662.755 865.568 663.856 866.909 665.074 868.133 C667.052 870.122 669.418 871.716 671.285 873.81 C673.317 876.089 674.686 878.907 676.715 881.19 C678.332 883.009 680.446 884.326 682.164 886.05 C682.876 886.764 683.291 887.733 683.977 888.473 C686.003 890.659 688.307 892.581 690.285 894.81 C690.892 895.494 691.045 896.519 691.692 897.166 C692.385 897.858 693.458 898.064 694.19 898.715 C696.407 900.687 698.512 902.793 700.498 904.998 C701.45 906.055 702.044 907.398 702.977 908.472 C704.224 909.908 705.597 911.235 707.015 912.5 C707.328 912.779 707.838 912.777 708.133 913.074 C710.611 915.563 713.01 918.135 715.285 920.81 C715.966 921.61 716.233 922.727 716.976 923.471 C717.892 924.387 719.248 924.777 720.166 925.692 C721.219 926.742 721.759 928.233 722.81 929.285 C723.504 929.979 724.683 930.084 725.31 930.838 C726.368 932.111 726.695 933.877 727.711 935.184 C729.042 936.896 730.874 938.163 732.285 939.81 C732.88 940.505 733.045 941.519 733.692 942.165 C734.385 942.858 735.438 943.087 736.19 943.715 C737.386 944.714 738.472 945.845 739.5 947.015 C739.777 947.33 739.778 947.837 740.074 948.134 C740.735 948.798 741.736 949.096 742.31 949.837 C743.401 951.247 743.957 953.011 744.978 954.472 C745.469 955.177 746.131 955.758 746.81 956.285 C747.584 956.886 748.617 957.14 749.308 957.834 C750.042 958.572 750.272 959.707 750.977 960.472 C751.901 961.475 753.169 962.109 754.133 963.074 C754.847 963.787 755.285 964.739 755.977 965.473 C758.25 967.885 760.598 970.231 763.015 972.5 C763.298 972.766 763.814 972.732 764.044 973.046 C764.745 974.003 764.923 975.306 765.716 976.189 C766.447 977.004 767.697 977.202 768.47 977.976 C769.433 978.938 769.871 980.345 770.834 981.308 C771.57 982.043 772.698 982.281 773.472 982.977 C775.934 985.191 778.276 987.543 780.498 989.998 C781.367 990.959 781.857 992.219 782.715 993.19 C784.461 995.166 786.674 996.721 788.285 998.81 C791.279 1002.69 794.01 1006.79 796.474 1011.02 C798.163 1013.93 799.066 1017.24 800.707 1020.18 C801.1 1020.88 801.74 1021.53 802.5 1021.8 C802.866 1021.93 803.088 1021.21 803.472 1021.16 C803.934 1021.09 804.686 1021.03 804.835 1021.47 C805.039 1022.08 804.635 1022.82 804.189 1023.28 C803.477 1024.02 802.517 1024.51 801.554 1024.86 C800.911 1025.1 800.185 1025.05 799.504 1024.98 C798.987 1024.93 798.471 1024.76 798.02 1024.5 C796.892 1023.86 795.829 1023.09 794.81 1022.28 C793.993 1021.64 793.462 1020.61 792.526 1020.15 C791.911 1019.85 791.064 1019.81 790.472 1020.16 C790.067 1020.39 789.938 1021.11 790.158 1021.53 C790.697 1022.54 791.602 1023.34 792.527 1024.02 C794.055 1025.14 795.64 1026.29 797.446 1026.86 C798.743 1027.27 800.244 1027.3 801.526 1026.85 C803.051 1026.31 804.323 1025.16 805.47 1024.02 C807.002 1022.5 808.362 1020.78 809.488 1018.94 C810.51 1017.27 811.531 1015.49 811.866 1013.56 C812.38 1010.58 812.089 1007.52 811.985 1004.5 C811.967 1003.98 811.785 1003.46 811.502 1003.02 C811.267 1002.66 810.896 1002.36 810.495 1002.2 C810.361 1002.15 810.184 1002.33 810.162 1002.48 C810.062 1003.15 810.012 1003.86 810.148 1004.53 C810.292 1005.23 810.866 1005.8 810.985 1006.5 C811.15 1007.49 811.18 1008.52 810.986 1009.49 C810.582 1011.53 810.02 1013.54 809.206 1015.45 C808.513 1017.07 807.503 1018.55 806.498 1020 C806.255 1020.35 805.926 1020.8 805.5 1020.8 C805.068 1020.79 804.626 1020.39 804.5 1019.97 C804.354 1019.49 804.978 1018.97 804.799 1018.5 C804.335 1017.28 803.285 1016.37 802.685 1015.22 C801.778 1013.47 801.37 1011.47 800.292 1009.82 C797.55 1005.64 794.45 1001.69 791.285 997.81 C789.915 996.132 788.125 994.835 786.715 993.19 C786.113 992.487 785.889 991.511 785.285 990.81 C783.805 989.094 782.016 987.667 780.499 985.984 C780.219 985.673 780.223 985.162 779.926 984.866 C779.212 984.154 778.249 983.727 777.527 983.023 C770.936 976.599 764.422 970.094 758.001 963.5 C757.546 963.033 757.387 962.327 756.926 961.866 C754.368 959.307 751.481 957.084 748.977 954.472 C748.249 953.713 747.97 952.607 747.285 951.81 C745.873 950.167 744.125 948.835 742.715 947.19 C742.113 946.487 741.907 945.495 741.285 944.81 C738.559 941.812 735.415 939.211 732.715 936.19 C730.953 934.219 729.73 931.799 727.926 929.866 C725.135 926.876 721.812 924.42 718.977 921.472 C718.16 920.623 717.824 919.391 717.023 918.528 C713.391 914.616 709.347 911.101 705.715 907.19 C704.999 906.419 704.73 905.306 704.023 904.528 C701.542 901.799 698.917 899.198 696.19 896.715 C695.224 895.835 693.9 895.395 692.975 894.47 C692.232 893.727 691.97 892.607 691.285 891.81 C689.872 890.167 688.124 888.835 686.715 887.19 C686.12 886.495 685.954 885.481 685.308 884.834 C684.615 884.142 683.564 883.911 682.81 883.285 C681.688 882.353 680.648 881.312 679.715 880.19 C679.043 879.381 678.696 878.335 678.023 877.528 C677.02 876.324 675.714 875.396 674.715 874.19 C674.124 873.477 673.904 872.498 673.285 871.81 C670.89 869.149 668.111 866.85 665.715 864.19 C665.011 863.409 664.696 862.336 664.023 861.528 C663.02 860.324 661.714 859.396 660.715 858.19 C660.124 857.477 659.887 856.513 659.285 855.81 C657.875 854.165 656.127 852.832 654.715 851.19 C654.029 850.393 653.689 849.341 653.023 848.528 C650.683 845.667 648.05 843.054 645.715 840.19 C645.13 839.473 644.9 838.502 644.285 837.81 C642.219 835.486 639.705 833.578 637.715 831.19 C636.353 829.556 635.561 827.511 634.285 825.81 C633.551 824.831 632.449 824.169 631.715 823.19 C630.439 821.489 629.591 819.489 628.285 817.81 C627.245 816.472 625.774 815.513 624.715 814.19 C623.098 812.168 621.959 809.785 620.285 807.81 C619.321 806.672 617.917 805.984 616.866 804.926 C615.387 803.437 614.011 801.842 612.715 800.19 C612.144 799.462 611.9 798.502 611.285 797.81 C609.219 795.486 606.782 793.512 604.715 791.19 C604.016 790.405 603.707 789.326 603.023 788.528 C601.697 786.981 600.038 785.74 598.715 784.19 C598.114 783.486 597.887 782.513 597.285 781.81 C595.875 780.165 594.125 778.835 592.715 777.19 C592.113 776.487 591.908 775.494 591.285 774.81 C588.649 771.914 585.833 769.185 582.984 766.499 C582.676 766.209 582.117 766.251 581.855 765.919 C580.856 764.652 580.268 763.098 579.289 761.816 C578.545 760.842 577.48 760.147 576.715 759.19 C576.137 758.467 575.877 757.521 575.285 756.81 C574.2 755.508 572.8 754.492 571.715 753.19 C571.122 752.479 570.9 751.502 570.285 750.81 C568.219 748.486 565.738 746.55 563.715 744.19 C561.727 741.871 560.24 739.156 558.285 736.81 C556.898 735.146 555.125 733.835 553.715 732.19 C553.113 731.487 552.894 730.506 552.285 729.81 C550.548 727.825 548.452 726.175 546.715 724.19 C546.105 723.493 545.894 722.506 545.285 721.81 C543.548 719.825 541.419 718.203 539.715 716.19 C537.742 713.859 536.258 711.141 534.285 708.81 C532.581 706.796 530.454 705.173 528.715 703.19 C528.022 702.399 527.733 701.303 527.023 700.528 C524.053 697.288 520.684 694.43 517.715 691.19 C517.09 690.508 516.9 689.502 516.285 688.81 C514.219 686.486 511.782 684.512 509.715 682.19 C509.016 681.405 508.696 680.336 508.023 679.528 C507.02 678.324 505.714 677.396 504.715 676.19 C504.124 675.477 503.877 674.521 503.285 673.81 C502.2 672.508 500.755 671.528 499.715 670.19 C498.409 668.511 497.591 666.489 496.285 664.81 C495.244 663.472 493.755 662.528 492.715 661.19 C491.409 659.511 490.521 657.541 489.285 655.81 C488.848 655.198 488.13 654.817 487.715 654.19 C480.265 642.931 472.959 631.577 465.713 620.185 C464.765 618.695 463.729 617.218 463.138 615.554 C462.837 614.707 462.484 613.504 463.108 612.857 C464.739 611.167 467.333 610.734 469.184 609.288 C471.264 607.663 472.805 605.433 474.81 603.715 C475.599 603.039 476.471 602.147 477.51 602.154 C479.179 602.167 480.724 603.093 482.249 603.772 C483.259 604.221 484.075 605.032 485.068 605.516 C489.256 607.554 493.489 609.501 497.774 611.326 C499.879 612.222 502.115 612.788 504.225 613.673 C508.379 615.416 512.356 617.576 516.556 619.205 C521.033 620.94 525.726 622.071 530.224 623.751 C531.085 624.073 531.731 624.828 532.575 625.19 C534.086 625.84 535.775 626.043 537.25 626.772 C539.186 627.73 540.747 629.376 542.736 630.217 C545.433 631.357 548.441 631.604 551.173 632.656 C552.806 633.285 554.147 634.526 555.75 635.228 C561.841 637.895 568.161 640.022 574.224 642.751 C574.872 643.042 575.104 643.948 575.755 644.231 C578.148 645.275 580.831 645.566 583.199 646.666 C589.529 649.604 595.467 653.34 601.78 656.313 C606.818 658.685 612.175 660.334 617.221 662.688 C622.841 665.31 628.088 668.698 633.751 671.228 C637.114 672.731 640.811 673.367 644.224 674.752 C645.838 675.407 647.182 676.613 648.772 677.324 C650.862 678.259 653.113 678.794 655.226 679.674 C657.117 680.462 658.856 681.595 660.77 682.324 C664.207 683.632 667.804 684.488 671.25 685.773 C675.282 687.275 679.26 688.929 683.191 690.679 C684.102 691.085 684.818 691.876 685.751 692.228 C692.847 694.907 700.235 696.807 707.224 699.752 C712.939 702.159 718.125 705.694 723.776 708.248 C729.148 710.677 734.845 712.333 740.253 714.681 C742.511 715.661 744.448 717.31 746.736 718.217 C749.361 719.257 752.244 719.519 754.898 720.482 C760.521 722.522 765.919 725.146 771.531 727.215 C779.771 730.253 788.196 732.775 796.443 735.796 C797.758 736.278 799.021 736.931 800.185 737.712 C801.05 738.293 801.485 739.511 802.472 739.842 C803.157 740.072 803.838 738.976 804.534 739.171 C813.232 741.615 821.734 744.717 830.278 747.655 C831.47 748.065 832.515 748.858 833.726 749.209 C837.243 750.231 840.921 750.655 844.412 751.76 C853.108 754.514 861.734 757.505 870.25 760.772 C871.965 761.43 873.389 762.689 875.033 763.509 C876.719 764.351 878.575 764.838 880.224 765.75 C880.835 766.088 881.066 766.98 881.725 767.21 C884.23 768.084 886.949 768.202 889.484 768.984 C890.338 769.248 890.988 769.967 891.809 770.321 C893.908 771.226 896.195 771.692 898.221 772.749 C899.13 773.223 899.499 774.521 900.472 774.842 C901.159 775.068 901.845 773.954 902.534 774.171 C906.749 775.495 910.603 777.788 914.745 779.327 C919.247 780.999 923.989 781.997 928.443 783.795 C933.012 785.639 937.2 788.337 941.75 790.227 C945.146 791.638 948.783 792.389 952.228 793.675 C954.615 794.567 956.993 795.526 959.227 796.753 C960.762 797.596 961.937 799.003 963.47 799.849 C963.918 800.095 964.678 800.333 965 799.936 C966.019 798.68 966.2 796.923 966.99 795.511 C967.447 794.694 967.938 792.775 968.715 793.296 C970.769 794.672 971.851 797.189 972.862 799.446 C973.282 800.383 973.183 801.554 972.851 802.526 C972.501 803.553 971.677 804.369 970.919 805.145 C970.378 805.699 969.653 806.037 969.007 806.464 C968.089 807.071 967.204 807.74 966.227 808.247 C964.47 809.158 962.572 809.78 960.824 810.708 C960.523 810.868 960.287 811.165 960.149 811.476 C960.011 811.79 959.981 812.16 960.032 812.5 C960.099 812.955 960.051 813.922 960.495 813.8 C961.481 813.531 961.852 812.189 962.775 811.751 C965.819 810.308 969.205 809.675 972.246 808.229 C972.729 807.999 972.712 807.248 973.074 806.853 C974.272 805.543 975.994 804.674 976.898 803.145 C977.356 802.371 977.263 801.251 976.862 800.446 C974.63 795.962 971.488 791.979 969.139 787.555 C968.871 787.051 968.852 786.353 969.107 785.842 C969.443 785.171 970.755 785.063 970.76 784.312 C970.766 783.406 969.782 782.765 969.131 782.135 C968.982 781.991 968.699 782.05 968.509 782.134 C968.14 782.3 967.909 782.712 967.529 782.851 C967.003 783.044 966.318 782.769 965.867 783.1 C965.167 783.615 964.343 784.336 964.327 785.205 C964.301 786.628 965.134 787.947 965.753 789.228 C966.286 790.331 967.817 791.085 967.759 792.309 C967.715 793.236 966.185 793.32 965.528 793.976 C964.689 794.815 964.485 796.908 963.308 796.759 C960.304 796.377 958.009 793.791 955.198 792.665 C950.138 790.638 944.796 789.368 939.745 787.318 C935.915 785.763 932.45 783.383 928.602 781.871 C924.692 780.335 920.515 779.571 916.543 778.203 C911.157 776.347 905.831 774.318 900.543 772.203 C897.037 770.801 893.709 768.968 890.169 767.653 C887.427 766.634 884.438 766.342 881.736 765.217 C878.662 763.937 875.963 761.875 872.939 760.48 C869.781 759.022 866.494 757.86 863.225 756.673 C856.656 754.288 850.084 751.901 843.429 749.766 C840.247 748.746 836.929 748.199 833.735 747.215 C823.316 744.007 812.918 740.723 802.603 737.194 C801.726 736.894 801.078 736.112 800.224 735.751 C796.014 733.974 791.75 732.318 787.442 730.794 C781.93 728.845 776.294 727.258 770.773 725.335 C769.067 724.741 767.385 724.06 765.772 723.247 C764.627 722.669 763.746 721.58 762.529 721.177 C762.137 721.047 761.869 721.935 761.471 721.823 C759.937 721.388 758.693 720.225 757.199 719.666 C753.791 718.391 750.17 717.713 746.802 716.335 C742.827 714.708 739.174 712.37 735.228 710.675 C732.165 709.36 728.856 708.667 725.807 707.319 C723.417 706.264 721.311 704.646 718.968 703.492 C714.78 701.429 710.52 699.511 706.228 697.675 C702.944 696.27 699.62 694.948 696.248 693.771 C693.457 692.798 690.525 692.255 687.753 691.229 C686.817 690.883 686.11 690.069 685.191 689.679 C681.44 688.091 677.53 686.9 673.779 685.312 C672.875 684.929 672.192 684.098 671.262 683.782 C668.155 682.728 664.862 682.287 661.755 681.231 C660.819 680.912 660.124 680.091 659.221 679.688 C656.444 678.449 653.53 677.539 650.746 676.318 C648.195 675.2 645.802 673.736 643.228 672.675 C640.136 671.402 636.888 670.542 633.774 669.326 C631.399 668.398 629.034 667.423 626.773 666.247 C624.184 664.901 621.899 662.995 619.25 661.772 C613.212 658.985 606.786 657.088 600.772 654.247 C595.413 651.715 590.5 648.315 585.191 645.679 C583.15 644.666 580.868 644.223 578.774 643.326 C576.285 642.26 573.954 640.843 571.457 639.797 C569.868 639.132 568.121 638.892 566.543 638.202 C565.037 637.543 563.767 636.406 562.25 635.772 C555.761 633.061 549.049 630.905 542.565 628.184 C541.025 627.537 539.721 626.42 538.219 625.687 C535.271 624.248 532.296 622.843 529.229 621.676 C525.733 620.346 522.027 619.601 518.557 618.205 C508.618 614.207 498.83 609.84 489.032 605.508 C487.579 604.866 486.154 604.142 484.814 603.287 C482.899 602.063 479.668 601.528 479.291 599.286 C478.934 597.157 482.089 595.983 483.286 594.186 C484.109 592.951 484.737 591.59 485.325 590.227 C486.266 588.043 487.411 585.893 487.866 583.559 C488.316 581.249 487.999 578.853 488 576.5 C488 575.479 488.109 574.431 487.869 573.438 C486.936 569.584 485.731 565.799 484.499 562.029 C483.943 560.325 483.264 558.659 482.509 557.033 C481.525 554.916 480.437 552.846 479.287 550.814 C478.694 549.767 478.069 548.723 477.285 547.81 C476.027 546.345 474.71 544.905 473.19 543.715 C471.57 542.446 469.755 541.437 467.931 540.484 C466.288 539.624 464.228 539.495 462.817 538.29 C461.842 537.457 461.949 535.851 461.25 534.775 C460.72 533.961 459.958 533.31 459.19 532.715 C458.38 532.088 457.541 531.41 456.554 531.138 C455.553 530.862 454.459 530.941 453.438 531.131 C451.493 531.494 449.466 531.821 447.737 532.782 C444.854 534.386 442.285 536.526 439.812 538.709 C436.595 541.55 433.375 544.452 430.711 547.816 C428.229 550.951 426.367 554.541 424.484 558.069 C423.383 560.131 422.481 562.309 421.785 564.541 C420.358 569.113 418.771 573.691 418.13 578.438 C417.504 583.081 417.626 587.824 418.014 592.494 C418.185 594.558 419.078 596.503 419.792 598.448 C420.242 599.671 420.785 600.876 421.497 601.968 C423.187 604.563 424.785 607.281 426.976 609.471 C428.953 611.448 431.346 613.027 433.835 614.301 C436.158 615.49 438.841 615.805 441.26 616.783 C441.549 616.9 441.941 617.243 441.821 617.531 C441.169 619.107 440.497 620.853 439.144 621.892 C438.276 622.558 436.831 621.584 435.867 622.102 C434.852 622.647 434.381 623.867 433.717 624.808 C432.328 626.773 430.978 628.768 429.713 630.815 C428.784 632.317 427.891 633.848 427.138 635.446 C426.987 635.766 426.982 636.151 427.031 636.502 C427.095 636.967 427.09 637.564 427.469 637.84 C427.883 638.141 428.7 638.35 429 637.936 C430.072 636.458 430.097 634.408 431.078 632.868 C431.58 632.079 432.724 631.897 433.308 631.166 C434.628 629.513 435.46 627.513 436.715 625.81 C437.192 625.163 437.733 624.474 438.472 624.158 C438.903 623.974 439.492 624.161 439.842 624.472 C440.102 624.703 440.006 625.157 439.984 625.504 C439.75 629.221 439.245 632.919 439.076 636.64 C438.26 654.588 436.944 672.534 437.028 690.5 C437.09 703.65 438.356 716.773 439.515 729.872 C440.845 744.901 442.598 759.891 444.496 774.858 C446.211 788.385 448.58 801.823 450.355 815.343 C452.274 829.959 453.63 844.645 455.579 859.257 C458.011 877.487 460.666 895.687 463.495 913.859 C465.214 924.898 467.418 935.858 469.224 946.883 C470.112 952.303 470.588 957.788 471.576 963.19 C474.115 977.082 476.876 990.933 479.802 1004.75 C481.516 1012.84 483.4 1020.9 485.494 1028.9 C487.196 1035.4 489.414 1041.76 491.187 1048.25 C491.861 1050.72 492.094 1053.29 492.832 1055.74 C493.438 1057.74 494.532 1059.57 495.204 1061.56 C496.513 1065.41 497.433 1069.4 498.771 1073.25 C498.872 1073.54 499.171 1073.8 499.475 1073.84 M888.796 1043.69 C888.796 1043.69 888.796 1043.69 888.796 1043.69 C890.258 1042.89 891.833 1042.27 893.182 1041.29 C893.638 1040.96 893.625 1040.19 894.081 1039.85 C897.331 1037.49 901.087 1035.84 904.19 1033.28 C906.009 1031.79 907.021 1029.5 908.689 1027.84 C909.473 1027.05 910.654 1026.77 911.472 1026.02 C914.271 1023.47 916.908 1020.74 919.5 1017.98 C919.787 1017.68 919.778 1017.16 920.074 1016.87 C920.734 1016.2 921.682 1015.86 922.307 1015.17 C923.004 1014.39 923.307 1013.32 923.977 1012.53 C925.048 1011.25 926.401 1010.24 927.501 1008.98 C927.777 1008.67 927.777 1008.16 928.074 1007.87 C929.302 1006.64 930.839 1005.74 932.023 1004.47 C932.777 1003.66 933.052 1002.47 933.834 1001.69 C934.751 1000.78 936.157 1000.43 937.024 999.47 C937.949 998.443 938.175 996.916 939.076 995.868 C940.292 994.453 942.102 993.623 943.289 992.183 C944.347 990.899 944.745 989.172 945.711 987.816 C946.413 986.832 947.577 986.23 948.249 985.225 C948.946 984.182 949.053 982.817 949.75 981.775 C950.422 980.77 951.619 980.19 952.288 979.184 C953.623 977.177 954.434 974.859 955.712 972.816 C956.112 972.174 956.883 971.823 957.288 971.184 C959.828 967.179 962.342 963.146 964.516 958.931 C968.363 951.473 972.024 943.909 975.335 936.198 C976.777 932.84 977.325 929.145 978.749 925.779 C979.314 924.445 980.609 923.524 981.248 922.224 C982.263 920.163 982.702 917.855 983.673 915.774 C985.04 912.846 986.819 910.126 988.247 907.227 C989.369 904.949 990.372 902.611 991.318 900.254 C993 896.067 994.802 891.913 996.127 887.6 C997.646 882.658 998.879 877.62 999.837 872.54 C999.912 872.14 999.211 871.93 999.157 871.527 C999.088 871.017 999.248 870.471 999.497 870.02 C999.709 869.638 1000.05 869.27 1000.47 869.149 C1001.13 868.96 1001.86 869.004 1002.53 869.148 C1002.91 869.23 1003.11 869.797 1003.5 869.799 C1003.89 869.801 1004.1 869.277 1004.47 869.157 C1004.82 869.046 1005.2 869.082 1005.56 869.133 C1009.55 869.693 1013.5 870.599 1017.51 870.986 C1019.52 871.18 1021.58 871.238 1023.56 870.869 C1028.3 869.988 1032.92 868.561 1037.55 867.256 C1039.49 866.712 1041.37 866.018 1043.26 865.324 C1044.94 864.704 1046.63 864.083 1048.25 863.318 C1051.61 861.736 1055.2 860.5 1058.18 858.288 C1061.63 855.73 1064.4 852.359 1067.29 849.184 C1067.86 848.552 1068.17 847.714 1068.51 846.933 C1069.25 845.282 1069.96 843.617 1070.52 841.901 C1071.41 839.154 1072.33 836.4 1072.87 833.561 C1073.12 832.211 1073.1 830.793 1072.87 829.438 C1071.85 823.391 1070.61 817.379 1069.15 811.423 C1068.75 809.795 1068 808.272 1067.32 806.743 C1066.71 805.398 1066.05 804.074 1065.29 802.814 C1064.04 800.758 1062.82 798.661 1061.28 796.81 C1059.53 794.697 1057.52 792.801 1055.47 790.977 C1054.48 790.091 1053.34 789.358 1052.18 788.708 C1049.7 787.326 1047.2 785.968 1044.58 784.894 C1042.64 784.102 1040.62 783.482 1038.56 783.131 C1036.69 782.812 1034.63 783.616 1032.87 782.898 C1031.58 782.374 1031.22 780.646 1030.19 779.715 C1029.09 778.713 1027.93 777.643 1026.53 777.148 C1025.26 776.704 1023.84 776.861 1022.5 777.015 C1021.79 777.097 1021.23 777.737 1020.53 777.842 C1020.08 777.909 1019 777.917 1019.2 777.505 C1019.84 776.157 1021.42 775.464 1022.25 774.225 C1022.99 773.116 1023.62 771.872 1023.87 770.559 C1024.17 768.881 1024.23 767.109 1023.87 765.442 C1023.6 764.206 1022.89 763.051 1022.04 762.116 C1021.83 761.883 1021.17 762.159 1021.17 762.474 C1021.15 763.52 1021.91 764.461 1021.98 765.503 C1022.14 767.506 1022.39 769.591 1021.85 771.526 C1021.46 772.953 1020.35 774.115 1019.31 775.166 C1018.55 775.931 1017.6 776.584 1016.55 776.862 C1015.25 777.211 1013.85 777.128 1012.5 776.985 C1011.88 776.918 1011.03 776.816 1010.77 776.243 C1009.56 773.568 1009.36 770.536 1008.35 767.778 C1007.27 764.797 1005.94 761.903 1004.52 759.069 C1001.25 752.576 997.812 746.17 994.287 739.814 C992.401 736.415 990.373 733.095 988.287 729.815 C986.846 727.549 985.154 725.45 983.713 723.185 C982.818 721.78 982.212 720.202 981.288 718.816 C980.207 717.193 978.73 715.849 977.713 714.185 C975.054 709.835 972.877 705.206 970.287 700.814 C969.065 698.743 967.704 696.752 966.285 694.81 C965.841 694.203 965.152 693.802 964.715 693.19 C963.479 691.459 962.561 689.511 961.285 687.81 C959.555 685.503 957.445 683.497 955.715 681.19 C954.439 679.489 953.599 677.482 952.285 675.81 C949.922 672.803 947.136 670.15 944.715 667.19 C944.129 666.474 943.913 665.49 943.285 664.81 C939.897 661.14 936.102 657.86 932.715 654.19 C932.094 653.518 931.954 652.481 931.308 651.834 C930.615 651.142 929.584 650.886 928.81 650.285 C928.131 649.758 927.54 649.122 926.977 648.473 C925.433 646.691 924.111 644.718 922.498 642.998 C919.177 639.459 915.754 636.009 912.19 632.715 C911.47 632.05 910.385 631.858 909.692 631.165 C909.007 630.481 908.852 629.375 908.165 628.692 C907.428 627.958 906.327 627.689 905.528 627.023 C902.327 624.356 899.403 621.367 896.19 618.715 C893.619 616.593 890.951 614.582 888.19 612.715 C884.821 610.436 881.201 608.545 877.816 606.289 C877.187 605.869 876.836 605.095 876.184 604.712 C871.149 601.75 865.851 599.25 860.816 596.288 C860.164 595.905 859.813 595.131 859.184 594.711 C857.798 593.788 856.18 593.243 854.816 592.289 C852.834 590.901 851.185 589.071 849.184 587.712 C846.959 586.201 844.618 584.839 842.178 583.708 C837.803 581.68 833.187 580.206 828.779 578.251 C828.274 578.028 828.043 577.299 827.5 577.201 C827.118 577.131 826.898 577.727 826.527 577.843 C826.193 577.946 825.797 577.973 825.478 577.829 C825.297 577.748 825.23 577.469 825.265 577.274 C825.738 574.661 826.794 572.143 826.986 569.493 C827.371 564.178 827.494 558.811 826.986 553.506 C826.759 551.143 825.432 549.015 824.805 546.726 C824.174 544.419 824.3 541.861 823.214 539.731 C822.356 538.049 820.685 536.902 819.201 535.735 C818.648 535.3 817.907 535.157 817.218 535.016 C812.019 533.955 806.806 532.937 801.56 532.133 C800.534 531.975 799.445 531.858 798.446 532.138 C797.364 532.441 796.613 533.532 795.529 533.823 C795.14 533.927 794.852 533.014 794.494 533.2 C794.089 533.409 794.171 534.072 794.165 534.529 C794.163 534.675 794.327 534.822 794.472 534.842 C795.15 534.935 795.855 534.989 796.526 534.852 C797.227 534.708 797.792 534.089 798.503 534.015 C799.573 533.905 802.521 533.602 801.716 534.315 C798.218 537.413 793.662 539.071 789.81 541.715 C788.801 542.407 788.155 543.533 787.19 544.285 C785.114 545.905 782.577 546.948 780.715 548.81 C779.211 550.314 778.561 552.489 777.285 554.19 C776.551 555.169 775.456 555.837 774.715 556.81 C773.257 558.723 771.895 560.719 770.713 562.814 C768.091 567.463 767.765 574.065 763.316 577.014 C761.081 578.496 759.444 573.264 757.228 571.753 C755.949 570.882 754.188 570.879 752.951 569.95 C752.04 569.267 752.158 567.364 751.047 567.115 C749.941 566.867 748.782 567.939 748.135 568.869 C747.832 569.303 748.367 570.042 748.831 570.296 C750.841 571.399 753.176 571.793 755.25 572.772 C756.312 573.274 757.355 573.89 758.189 574.717 C759.294 575.812 760.334 577.042 760.982 578.456 C761.274 579.094 761.115 579.902 760.866 580.559 C759.869 583.183 758.671 585.741 757.288 588.184 C756.466 589.637 755.385 590.935 754.285 592.19 C752.666 594.038 750.556 595.461 749.149 597.474 C748.757 598.035 748.813 598.936 749.158 599.528 C749.393 599.932 750.059 599.848 750.527 599.842 C750.716 599.839 750.858 599.646 750.981 599.502 C751.71 598.65 752.281 597.66 753.074 596.866 C754.058 595.88 755.342 595.216 756.285 594.19 C756.996 593.416 757.317 592.347 757.977 591.528 C758.636 590.709 759.751 588.366 760.217 589.308 C762.023 592.965 761.396 597.438 762.789 601.271 C763.598 603.496 765.26 605.322 766.715 607.19 C767.612 608.341 768.69 609.35 769.81 610.285 C770.719 611.044 771.689 611.768 772.772 612.247 C775.92 613.638 779.061 615.217 782.439 615.868 C785.424 616.443 788.607 616.592 791.559 615.866 C795.027 615.013 798.172 613.096 801.228 611.247 C804.174 609.464 806.891 607.302 809.472 605.023 C812.591 602.269 815.759 599.489 818.288 596.184 C820.095 593.822 821.089 590.933 822.325 588.227 C823.566 585.51 823.987 582.369 825.712 579.93 C826.103 579.377 826.782 580.927 827.458 580.97 C828.198 581.017 828.813 580 829.534 580.171 C832.893 580.968 836.102 582.343 839.247 583.769 C839.91 584.07 840.198 584.903 840.816 585.288 C842.862 586.562 845.179 587.375 847.184 588.712 C850.193 590.718 852.737 593.387 855.815 595.287 C864.091 600.399 872.935 604.556 881.184 609.711 C883.633 611.242 885.48 613.59 887.816 615.289 C889.163 616.268 890.786 616.806 892.184 617.711 C893.584 618.619 894.936 619.614 896.19 620.715 C897.818 622.144 899.169 623.871 900.81 625.285 C901.609 625.973 902.68 626.296 903.474 626.989 C903.799 627.272 903.769 627.829 904.073 628.134 C905.058 629.12 906.343 629.784 907.285 630.81 C907.904 631.484 908.044 632.52 908.692 633.166 C909.476 633.946 910.66 634.226 911.472 634.977 C914.872 638.121 918.148 641.403 921.285 644.81 C921.997 645.583 922.231 646.729 922.975 647.471 C923.991 648.483 925.377 649.051 926.472 649.977 C927.488 650.837 928.441 651.781 929.285 652.81 C929.951 653.623 930.259 654.704 930.977 655.472 C932.228 656.812 933.908 657.711 935.133 659.074 C936.837 660.968 938.08 663.237 939.715 665.19 C940.803 666.49 942.212 667.498 943.285 668.81 C945.219 671.174 946.808 673.804 948.715 676.19 C949.468 677.133 950.572 677.776 951.249 678.775 C952.012 679.899 952.179 681.365 952.972 682.467 C953.479 683.171 954.5 683.368 955.044 684.046 C955.864 685.069 956.184 686.429 956.984 687.469 C957.25 687.816 957.874 687.738 958.145 688.081 C959.146 689.346 959.758 690.883 960.711 692.184 C962.13 694.12 963.907 695.785 965.249 697.775 C966.009 698.901 966.273 700.302 966.972 701.467 C967.286 701.989 967.953 702.243 968.25 702.776 C969.211 704.504 969.722 706.461 970.707 708.177 C971.084 708.835 971.897 709.165 972.288 709.816 C973.912 712.521 975.051 715.501 976.713 718.183 C976.983 718.618 977.731 718.589 977.995 719.026 C978.783 720.332 978.909 721.983 979.766 723.245 C980.706 724.628 982.384 725.41 983.289 726.816 C986.662 732.064 989.684 737.54 992.526 743.094 C993.521 745.037 993.726 747.329 994.769 749.247 C995.333 750.284 996.641 750.763 997.249 751.775 C999.18 754.987 1000.77 758.399 1002.32 761.809 C1003.27 763.889 1003.79 766.146 1004.75 768.221 C1004.98 768.726 1005.7 768.939 1005.85 769.474 C1006.13 770.442 1006.06 771.491 1005.98 772.496 C1005.95 772.958 1005.91 774.028 1005.5 773.801 C1002.26 771.967 999.779 768.963 996.526 767.149 C995.841 766.767 994.449 766.751 994.199 767.495 C993.944 768.256 995.151 768.826 995.81 769.285 C999.382 771.774 1003.01 774.204 1006.83 776.297 C1009.13 777.56 1015.87 777.358 1014.11 779.316 C1009.24 784.759 1000.96 785.755 994.816 789.712 C992.513 791.195 991.005 793.651 988.984 795.5 C988.675 795.783 988.163 795.778 987.866 796.074 C987.203 796.734 986.862 797.682 986.166 798.307 C985.392 799.004 984.315 799.296 983.528 799.977 C981.905 801.381 980.346 802.876 978.977 804.528 C977.077 806.82 975.027 809.082 973.753 811.772 C971.38 816.787 969.461 822.053 968.132 827.439 C967.564 829.744 967.84 832.205 968.131 834.561 C968.383 836.602 968.988 838.602 969.745 840.513 C971.189 844.161 972.551 847.909 974.711 851.184 C976.295 853.584 978.674 855.36 980.81 857.285 C982.048 858.401 983.383 859.423 984.81 860.285 C989.128 862.895 993.921 864.734 998.014 867.684 C998.491 868.027 997.043 868.376 996.687 868.844 C996.295 869.359 996.005 869.96 995.814 870.578 C994.183 875.837 992.96 881.22 991.228 886.446 C989.459 891.786 987.517 897.076 985.318 902.254 C981.663 910.86 977.423 919.208 973.674 927.774 C972.756 929.87 972.26 932.137 971.326 934.226 C968.202 941.208 965.001 948.161 961.51 954.966 C957.652 962.487 953.521 969.868 949.288 977.184 C948.91 977.837 948.142 978.188 947.715 978.81 C944.468 983.533 941.685 988.575 938.285 993.19 C937 994.934 935.127 996.167 933.715 997.81 C933.029 998.607 932.738 999.702 932.023 1000.47 C928.391 1004.38 924.347 1007.9 920.715 1011.81 C919.999 1012.58 919.747 1013.71 919.023 1014.47 C913.651 1020.13 908.13 1025.65 902.472 1031.02 C901.71 1031.75 900.601 1032.02 899.81 1032.72 C899.392 1033.08 899.348 1033.77 898.926 1034.13 C896.785 1035.98 894.548 1037.73 892.19 1039.28 C890.071 1040.69 887.633 1041.56 885.53 1042.99 C885.296 1043.15 885.199 1043.78 885.476 1043.84 M854.509 1019.81 C854.509 1019.81 854.509 1019.81 854.509 1019.81 C849.773 1018.29 844.406 1018.07 840.301 1015.26 C838.32 1013.9 845.101 1014.87 847.496 1015.02 C848.212 1015.06 848.784 1015.76 849.5 1015.8 C849.9 1015.82 850.162 1015.01 850.529 1015.18 C852.017 1015.84 853.357 1016.86 854.502 1018.02 C854.865 1018.39 854.831 1019.02 854.833 1019.53 M966.485 1007.88 C966.485 1007.88 966.485 1007.88 966.485 1007.88 C968.9 1007.32 971.343 1006.86 973.731 1006.19 C975.586 1005.67 977.415 1005.05 979.198 1004.32 C980.005 1003.99 980.779 1003.55 981.473 1003.02 C982.011 1002.61 982.743 1002.2 982.851 1001.53 C983.226 999.205 983.169 996.803 982.851 994.474 C982.774 993.905 982.01 993.674 981.712 993.184 C980.947 991.926 980.306 990.594 979.681 989.26 C979.114 988.05 978.547 986.833 978.14 985.56 C978.025 985.204 978.038 984.798 978.137 984.438 C978.573 982.86 978.831 981.161 979.731 979.794 C980.26 978.991 981.468 978.921 982.19 978.285 C983.854 976.818 985.585 975.355 986.842 973.527 C987.134 973.103 986.813 972.43 986.502 972.019 C985.67 970.92 984.839 969.567 983.526 969.148 C981.593 968.533 979.429 968.729 977.441 969.134 C975.526 969.524 973.8 970.577 972.069 971.483 C971.025 972.03 969.66 972.414 969.149 973.476 C968.563 974.692 968.905 976.199 969.159 977.524 C969.216 977.824 969.819 978.149 969.994 977.899 C970.866 976.647 970.841 974.871 971.822 973.703 C972.607 972.768 973.911 972.427 975.019 971.915 C976.474 971.241 977.892 970.141 979.496 970.151 C980.777 970.159 981.835 971.228 982.885 971.961 C983.036 972.067 982.961 972.35 982.878 972.516 C982.418 973.446 981.954 974.397 981.285 975.19 C979.885 976.846 978.036 978.1 976.711 979.816 C975.632 981.214 974.768 982.797 974.138 984.446 C973.887 985.102 973.887 985.897 974.138 986.554 C974.768 988.203 975.736 989.712 976.711 991.183 C977.128 991.812 977.837 992.203 978.285 992.81 C978.892 993.632 979.862 994.421 979.856 995.443 C979.843 997.452 979.311 999.552 978.232 1001.25 C977.343 1002.64 975.754 1003.5 974.263 1004.22 C972.478 1005.07 970.49 1005.43 968.561 1005.87 C967.891 1006.02 967.187 1006.05 966.504 1005.98 C965.986 1005.93 965.442 1005.8 965.018 1005.5 C964.235 1004.94 963.558 1004.23 962.973 1003.47 C962.256 1002.53 962.25 1000.05 961.14 1000.45 C959.983 1000.86 960.48 1003.07 961.102 1004.13 C962.071 1005.79 963.912 1006.76 965.484 1007.85 M289.753 953.736 C289.753 953.736 289.753 953.736 289.753 953.736 C294.175 952.856 298.647 952.197 303.02 951.096 C305.829 950.39 308.563 949.394 311.256 948.326 C314.292 947.121 317.3 945.821 320.184 944.288 C320.852 943.933 321.187 943.131 321.816 942.711 C324.202 941.121 326.889 939.995 329.19 938.285 C330.741 937.132 332.044 935.663 333.288 934.184 C333.831 933.539 334.122 932.718 334.504 931.966 C335.138 930.721 335.863 929.512 336.336 928.197 C337.361 925.343 338.58 922.499 338.986 919.493 C339.435 916.172 339.391 912.749 338.869 909.438 C338.125 904.706 336.671 900.104 335.215 895.541 C334.473 893.214 333.549 890.916 332.292 888.822 C330.615 886.03 328.662 883.384 326.471 880.976 C325.262 879.647 323.69 878.689 322.184 877.711 C319.837 876.188 317.462 874.681 314.933 873.485 C312.441 872.307 309.835 871.349 307.179 870.614 C303.362 869.559 299.499 868.559 295.562 868.13 C291.877 867.728 288.099 867.529 284.441 868.134 C282.485 868.458 280.731 869.653 279.146 870.845 C278.865 871.056 279.185 871.903 279.529 871.828 C282.283 871.225 284.745 869.585 287.506 869.014 C289.156 868.673 290.905 868.811 292.559 869.134 C294.284 869.472 295.758 870.751 297.503 870.97 C298.551 871.101 299.517 869.979 300.561 870.137 C303.614 870.6 306.513 871.79 309.438 872.778 C311.074 873.331 312.711 873.928 314.228 874.753 C316.975 876.248 319.591 877.976 322.19 879.715 C323.621 880.672 325.156 881.555 326.308 882.834 C328.207 884.944 329.899 887.274 331.247 889.772 C332.604 892.29 333.448 895.057 334.362 897.767 C335.323 900.619 336.577 903.445 336.868 906.439 C337.418 912.118 337.987 917.961 336.862 923.554 C336.073 927.476 333.425 930.802 331.288 934.184 C330.507 935.421 329.36 936.418 328.184 937.289 C326.845 938.279 325.217 938.814 323.815 939.713 C321.559 941.158 319.66 943.201 317.222 944.311 C311.995 946.691 306.515 948.518 300.995 950.103 C297.577 951.084 294.034 951.649 290.493 951.986 C287.82 952.24 285.105 952.187 282.438 951.869 C280.007 951.58 277.638 950.871 275.29 950.178 C273.837 949.749 272.411 949.201 271.063 948.512 C267.909 946.899 264.747 945.265 261.81 943.285 C260.598 942.468 259.531 941.394 258.712 940.184 C257.462 938.339 256.491 936.303 255.676 934.229 C254.304 930.738 253.05 927.183 252.167 923.537 C252.072 923.143 252.717 922.912 252.843 922.527 C252.952 922.193 252.935 921.812 252.843 921.473 C252.654 920.784 252.052 920.21 252.015 919.496 C251.773 914.839 251.382 910.127 252.014 905.506 C252.611 901.14 254.198 896.955 255.666 892.8 C256.762 889.696 258.125 886.678 259.687 883.78 C261.238 880.904 262.951 878.091 264.978 875.527 C266.68 873.375 268.692 871.461 270.81 869.715 C272.451 868.362 274.458 867.519 276.19 866.285 C276.777 865.867 277.083 865.074 277.741 864.779 C279.569 863.959 281.61 863.718 283.486 863.014 C284.184 862.752 284.715 862.129 285.422 861.894 C287.741 861.123 290.08 860.296 292.507 860.014 C295.172 859.705 297.904 859.72 300.554 860.138 C301.555 860.295 302.397 861.033 303.167 861.693 C303.81 862.245 304.004 863.248 304.716 863.708 C304.978 863.877 305.191 863.178 305.502 863.202 C305.889 863.232 306.103 863.728 306.473 863.843 C306.808 863.947 307.251 864.049 307.525 863.83 C307.735 863.663 307.66 863.24 307.499 863.025 C306.854 862.163 306.197 861.183 305.214 860.744 C302.464 859.515 299.526 858.674 296.562 858.136 C295.852 858.007 295.222 858.796 294.5 858.799 C294.109 858.801 293.907 858.231 293.526 858.148 C292.846 858 292.119 857.987 291.439 858.131 C289.393 858.564 287.378 859.158 285.41 859.866 C283.151 860.679 280.876 861.514 278.781 862.687 C274.991 864.808 271.335 867.178 267.81 869.715 C266.626 870.567 265.622 871.667 264.715 872.81 C263.105 874.837 261.874 877.146 260.285 879.19 C259.533 880.158 258.335 880.761 257.712 881.816 C255.442 885.66 253.398 889.652 251.676 893.771 C250.406 896.81 249.562 900.018 248.766 903.214 C248.005 906.273 247.294 909.367 247.014 912.507 C246.746 915.513 246.793 918.562 247.13 921.562 C247.443 924.349 248.119 927.097 248.952 929.775 C249.644 932.003 250.626 934.14 251.687 936.219 C252.593 937.996 253.42 939.902 254.834 941.308 C256.866 943.326 259.298 944.957 261.829 946.297 C265.77 948.383 269.913 950.111 274.141 951.528 C277.479 952.646 280.953 953.377 284.438 953.87 M285.844 933.544 C285.844 933.544 285.844 933.544 285.844 933.544 C286.224 932.528 286.849 931.573 286.985 930.496 C287.235 928.515 287.193 926.49 286.985 924.503 C286.91 923.792 286.286 923.228 286.148 922.526 C285.953 921.535 286.017 920.51 286 919.5 C285.972 917.835 285.815 916.157 286.015 914.503 C286.141 913.461 286.93 912.55 286.969 911.5 C286.996 910.786 286.05 910.198 286.201 909.499 C286.366 908.732 287.059 908.064 287.778 907.749 C291.151 906.273 294.811 905.554 298.245 904.228 C298.531 904.117 298.96 903.753 298.799 903.492 C298.556 903.099 297.957 903.053 297.496 903.016 C296.491 902.936 295.443 902.871 294.474 903.148 C293.949 903.298 293.746 904.013 293.246 904.232 C291.589 904.955 289.123 907.42 288.095 905.932 C285.498 902.172 285.925 897.045 285.168 892.538 C285.114 892.215 285.895 891.985 285.708 891.716 C285.201 890.986 284.369 890.472 283.531 890.18 C283.249 890.081 282.848 890.41 282.807 890.705 C281.971 896.777 282.751 903.144 280.938 909 C280.462 910.539 277.827 910.025 276.531 910.983 C276.106 911.298 275.911 912.064 276.165 912.529 C276.395 912.948 277.096 912.977 277.559 912.86 C278.861 912.532 280.908 909.949 281.249 911.247 C283.135 918.431 281.919 926.11 282.971 933.462 C283.047 933.993 283.963 933.953 284.499 933.969 M279.805 890.69 C279.805 890.69 279.805 890.69 279.805 890.69 C284.016 889.504 288.116 887.806 292.438 887.131 C295.77 886.611 299.21 886.704 302.554 887.138 C303.67 887.282 304.359 888.708 305.479 888.823 C305.941 888.87 306.13 887.839 305.841 887.475 C305.005 886.422 303.836 885.543 302.554 885.138 C301.257 884.728 299.822 884.971 298.474 885.147 C298.087 885.198 297.891 885.799 297.5 885.799 C297.109 885.799 296.907 885.231 296.526 885.148 C295.846 885 295.121 884.995 294.439 885.131 C288.624 886.299 282.667 887.055 277.083 889.052 C276.372 889.306 277.824 890.452 278.471 890.841 M493.468 884.989 C493.468 884.989 493.468 884.989 493.468 884.989 C495.269 871.847 497.348 858.74 498.871 845.563 C499.142 843.215 499.266 840.797 498.843 838.472 C498.758 838.008 497.969 837.987 497.5 838.031 C496.875 838.091 495.958 838.167 495.765 838.764 C494.452 842.815 494.826 847.342 493.206 851.28 C492.639 852.659 490.936 853.302 489.554 853.862 C488.611 854.245 487.521 853.993 486.503 853.999 C485.951 854.002 485.306 854.198 484.849 853.888 C484.249 853.481 483.844 852.768 483.658 852.068 C482.527 847.819 481.965 843.436 480.929 839.162 C480.845 838.815 480.662 838.191 480.318 838.283 C479.635 838.467 479.042 839.085 478.779 839.741 C477.91 841.904 477.441 844.215 477.015 846.507 C476.89 847.179 476.909 847.909 477.138 848.554 C477.833 850.515 478.677 852.441 479.75 854.224 C480.155 854.896 480.76 855.537 481.499 855.799 C481.866 855.929 482.112 855.177 482.5 855.201 C483.216 855.245 483.79 855.908 484.503 855.985 C485.837 856.129 487.202 856.066 488.526 855.852 C489.233 855.738 489.791 855.079 490.504 855.016 C491.295 854.947 492.302 854.89 492.842 855.472 C493.317 855.983 492.972 856.873 492.87 857.562 C492.028 863.228 490.665 868.816 490.014 874.507 C489.711 877.153 489.879 879.837 490.015 882.496 C490.042 883.016 490.224 883.538 490.497 883.981 C490.727 884.351 491.06 884.71 491.472 884.85 M1019.58 869.854 C1019.58 869.854 1019.58 869.854 1019.58 869.854 C1013.47 868.921 1007.23 868.627 1001.25 867.054 C997.552 866.081 994.117 864.215 990.814 862.286 C987.934 860.605 985.26 858.547 982.81 856.285 C980.876 854.5 979.177 852.436 977.751 850.224 C976.763 848.694 976.195 846.918 975.647 845.181 C974.651 842.02 973.647 838.836 973.13 835.562 C972.763 833.239 972.687 830.836 973.014 828.506 C973.526 824.857 974.554 821.289 975.629 817.764 C976.456 815.048 977.488 812.385 978.708 809.821 C979.281 808.618 980.062 807.498 980.977 806.528 C985.682 801.536 990.361 796.489 995.528 791.977 C998.34 789.521 1001.63 787.659 1004.81 785.713 C1006.71 784.556 1008.72 783.593 1010.75 782.682 C1013.6 781.398 1016.42 779.941 1019.44 779.134 C1021.07 778.7 1022.84 778.707 1024.49 779.014 C1026.07 779.306 1027.87 779.682 1028.92 780.889 C1029.38 781.418 1026.99 781.721 1027.37 782.31 C1028.24 783.661 1029.91 784.447 1031.47 784.842 C1032.5 785.102 1033.51 784.031 1034.56 784.134 C1037.35 784.408 1040.12 785.056 1042.77 785.951 C1045.7 786.938 1048.51 788.273 1051.22 789.75 C1052.67 790.54 1053.95 791.628 1055.19 792.715 C1056.64 793.987 1058.11 795.28 1059.28 796.81 C1061.47 799.653 1063.55 802.61 1065.25 805.773 C1066.56 808.222 1067.5 810.875 1068.26 813.548 C1069.38 817.449 1070.39 821.409 1070.87 825.438 C1071.3 829.098 1071.62 832.863 1070.99 836.494 C1070.39 839.918 1068.67 843.057 1067.25 846.227 C1066.76 847.308 1066.08 848.31 1065.28 849.19 C1063.05 851.675 1060.68 854.047 1058.19 856.285 C1057.3 857.09 1056.24 857.706 1055.19 858.287 C1052.58 859.722 1049.97 861.175 1047.23 862.325 C1044.21 863.59 1041.09 864.654 1037.93 865.514 M1009.46 844.984 C1009.46 844.984 1009.46 844.984 1009.46 844.984 C1010.16 844.946 1010.88 845.047 1011.56 844.871 C1014.05 844.224 1016.54 843.505 1018.92 842.528 C1021.1 841.637 1023.14 840.444 1025.19 839.287 C1026.23 838.694 1027.26 838.049 1028.19 837.285 C1028.81 836.775 1029.69 836.29 1029.8 835.495 C1029.86 835.042 1028.88 834.955 1028.47 835.158 C1026.89 835.946 1025.68 837.346 1024.19 838.287 C1022.83 839.137 1021.42 839.922 1019.94 840.518 C1017.51 841.494 1015.06 842.504 1012.49 842.986 C1010.84 843.296 1009.07 843.311 1007.45 842.862 C1005.76 842.395 1004.08 841.555 1002.84 840.316 C1001.87 839.344 1001.3 837.924 1001.13 836.559 C1000.72 833.211 1000.66 829.779 1001.13 826.439 C1001.51 823.784 1002.65 821.284 1003.66 818.802 C1004.51 816.73 1005.46 814.67 1006.71 812.816 C1007.53 811.604 1008.64 810.577 1009.82 809.711 C1011.24 808.666 1012.75 807.636 1014.45 807.138 C1015.75 806.754 1017.22 806.778 1018.53 807.148 C1019.35 807.382 1019.72 808.421 1020.47 808.842 C1020.78 809.014 1021.27 809.07 1021.53 808.835 C1021.88 808.522 1021.97 807.968 1021.97 807.5 C1021.97 807.029 1021.99 806.224 1021.53 806.157 C1018.53 805.728 1015.39 805.426 1012.45 806.138 C1010.28 806.661 1008.56 808.337 1006.81 809.715 C1005.29 810.912 1003.77 812.197 1002.71 813.816 C1000.73 816.862 999.284 820.236 997.792 823.552 C997.086 825.121 996.388 826.738 996.132 828.439 C995.828 830.456 995.697 832.566 996.134 834.559 C996.575 836.57 997.491 838.514 998.707 840.177 C999.449 841.192 1000.66 841.808 1001.81 842.321 M662.966 844.513 C662.966 844.513 662.966 844.513 662.966 844.513 C663.566 843.11 663.306 840.746 664.766 840.304 C666.194 839.873 667.127 842.154 668.444 842.856 C668.772 843.031 669.216 843.002 669.56 842.86 C671.413 842.097 673.262 841.273 674.942 840.18 C676.197 839.364 677.415 838.4 678.288 837.184 C679.752 835.146 681.147 832.962 681.856 830.555 C682.108 829.702 681.713 828.544 680.986 828.034 C679.418 826.933 677.403 826.666 675.562 826.136 C675.212 826.035 674.767 825.948 674.47 826.159 C672.182 827.777 670.235 829.84 667.975 831.499 C667.757 831.66 667.194 831.793 667.162 831.524 C666.881 829.179 666.868 826.785 667.13 824.438 C667.443 821.625 668.026 818.829 668.878 816.13 C669.886 812.939 670.977 809.718 672.687 806.842 C673.351 805.726 675.218 805.659 675.798 804.498 C676.073 803.947 675.106 803.366 674.527 803.158 C674.042 802.983 673.429 803.186 673.019 803.498 C671.775 804.442 670.654 805.571 669.711 806.816 C668.549 808.351 667.477 809.993 666.751 811.776 C664.939 816.229 663.113 820.733 662.132 825.439 C661.516 828.395 661.833 831.483 662.015 834.496 C662.058 835.213 663.015 835.816 662.799 836.501 C662.322 838.013 660.806 839.007 660.138 840.446 C659.849 841.067 659.947 841.815 660.016 842.496 C660.069 843.014 660.223 843.539 660.497 843.981 C660.726 844.349 661.048 844.75 661.472 844.842 M672.55 839.838 C672.55 839.838 672.55 839.838 672.55 839.838 C671.322 839.858 669.998 840.375 668.867 839.898 C667.973 839.52 667.432 838.479 667.138 837.554 C666.828 836.575 666.812 835.444 667.149 834.474 C667.413 833.709 668.151 833.172 668.816 832.711 C670.177 831.769 671.846 831.313 673.162 830.31 C673.902 829.747 674.084 828.606 674.866 828.104 C675.333 827.805 675.995 827.999 676.528 828.15 C676.904 828.256 677.082 828.836 677.473 828.843 C678.183 828.854 678.818 828.019 679.505 828.2 C679.953 828.318 679.935 829.043 679.983 829.504 C680.053 830.176 680.09 830.894 679.851 831.526 C679.656 832.046 679.019 832.289 678.75 832.775 C678.143 833.872 678.077 835.282 677.25 836.225 M703.96 679.523 C703.96 679.523 703.96 679.523 703.96 679.523 C705.59 677.524 707.625 675.796 708.851 673.526 C709.335 672.631 709.37 671.349 708.851 670.474 C707.735 668.59 706.23 666.728 704.257 665.778 C700.916 664.169 697.022 664.119 693.467 663.064 C692.952 662.912 692.366 662.656 692.123 662.178 C691.862 661.662 691.944 660.988 692.139 660.445 C692.87 658.411 694.205 656.619 694.86 654.559 C695.02 654.057 694.766 653.477 694.503 653.021 C694.287 652.647 693.93 652.251 693.502 652.202 C693.171 652.164 692.882 652.529 692.714 652.817 C691.595 654.732 690.633 656.738 689.68 658.741 C689.105 659.948 688.476 661.149 688.134 662.441 C687.957 663.113 687.894 663.879 688.149 664.526 C688.377 665.105 688.861 665.728 689.472 665.842 C690.167 665.972 690.777 665.263 691.474 665.148 C692.468 664.984 693.502 664.833 694.494 665.014 C697.09 665.49 699.798 665.869 702.133 667.1 C703.411 667.774 704.205 669.182 704.851 670.474 C705.162 671.095 705.052 671.889 704.865 672.558 C704.507 673.845 703.963 675.096 703.249 676.225 C702.829 676.891 702.291 677.651 701.527 677.842 C700.844 678.013 700.229 677.225 699.527 677.158 C699.063 677.113 698.12 677.059 698.177 677.521 C698.297 678.486 699.023 679.416 699.867 679.898 C700.629 680.332 701.623 680.065 702.496 679.985 M995.852 651.526 C995.852 651.526 995.852 651.526 995.852 651.526 C987.646 649.668 978.551 650.105 971.234 645.951 C969.017 644.692 974.874 642.375 976.81 640.715 C977.897 639.783 979.277 639.207 980.285 638.19 C981.118 637.349 981.685 636.27 982.247 635.228 C982.881 634.052 983.492 632.844 983.86 631.56 C983.986 631.12 983.862 630.621 983.687 630.198 C983.208 629.037 982.721 627.839 981.923 626.868 C981.184 625.968 980.191 625.281 979.178 624.708 C977.385 623.695 975.484 622.874 973.56 622.14 C973.211 622.006 972.801 622.048 972.437 622.136 C970.514 622.599 968.564 623.025 966.737 623.782 C965.657 624.23 964.722 624.984 963.81 625.715 C963.039 626.333 962.32 627.029 961.715 627.81 C961.089 628.618 960.437 629.465 960.144 630.445 C960.004 630.91 960.225 631.458 960.502 631.857 C960.622 632.029 960.996 632.024 961.131 631.864 C962.497 630.237 963.146 627.959 964.846 626.685 C966.731 625.27 969.187 624.828 971.439 624.132 C972.095 623.93 972.826 623.856 973.493 624.015 C975.127 624.405 976.749 624.948 978.225 625.75 C978.919 626.128 979.427 626.807 979.851 627.474 C980.035 627.764 980.058 628.166 979.97 628.497 C979.539 630.111 979.041 631.722 978.314 633.226 C977.471 634.971 976.503 636.682 975.285 638.19 C973.776 640.059 972.022 641.732 970.19 643.285 C967.75 645.353 964.914 646.925 962.5 649.025 C962.262 649.232 962.351 649.695 962.5 649.974 C962.705 650.357 963.056 650.715 963.471 650.842 C963.902 650.973 964.392 650.842 964.813 650.681 C966.754 649.938 968.435 648.264 970.51 648.146 C973.711 647.966 976.858 649.096 979.98 649.824 C982.179 650.338 984.229 651.411 986.441 651.866 C987.766 652.138 989.153 652.143 990.497 651.985 C991.206 651.901 991.759 651.183 992.473 651.157 C993.177 651.132 993.771 651.766 994.472 651.842 M707.715 649.76 C707.715 649.76 707.715 649.76 707.715 649.76 C712.43 649.005 717.175 648.414 721.861 647.495 C723.181 647.236 724.685 647.123 725.695 646.234 C726.094 645.883 725.03 645.319 724.526 645.149 C723.869 644.927 723.122 644.983 722.447 645.139 C721.837 645.279 721.39 645.853 720.784 646.011 C717.72 646.807 714.647 647.707 711.493 647.986 C707.18 648.368 702.827 648.227 698.503 647.985 C697.789 647.945 697.232 647.264 696.526 647.148 C695.521 646.983 694.421 646.79 693.472 647.157 C693.033 647.327 693.032 648.029 693.032 648.5 C693.032 648.971 693.033 649.673 693.472 649.843 C694.421 650.21 695.521 650.013 696.526 649.852 C696.912 649.791 697.109 649.203 697.5 649.201 C697.888 649.199 698.102 649.726 698.473 649.843 C698.808 649.949 699.195 649.958 699.527 649.843 C699.897 649.714 700.097 649.255 700.474 649.148 C701.125 648.963 701.825 648.944 702.5 649.001 M788.529 614.964 C788.529 614.964 788.529 614.964 788.529 614.964 C785.428 614.326 782.278 613.894 779.227 613.049 C778.086 612.733 777.043 612.112 776.029 611.501 C774.794 610.758 773.521 610.021 772.502 609.002 C771.386 607.886 770.485 606.554 769.709 605.18 C768.915 603.771 768.276 602.263 767.824 600.71 C767.039 598.018 766.323 595.281 766.014 592.493 C765.755 590.156 765.851 587.773 766.131 585.438 C766.415 583.065 767.097 580.754 767.697 578.441 C768.277 576.205 768.835 573.952 769.668 571.797 C770.439 569.802 771.402 567.875 772.494 566.035 C775.755 560.54 778.706 554.795 782.711 549.816 C784.363 547.763 787.164 546.97 789.19 545.285 C789.979 544.629 790.255 543.464 791.081 542.855 C794.143 540.6 797.293 538.395 800.737 536.782 C802.856 535.79 805.238 534.865 807.562 535.137 C810.958 535.535 814.194 537.039 817.177 538.708 C818.868 539.653 820.109 541.278 821.288 542.815 C822.144 543.933 822.73 545.253 823.21 546.577 C824.262 549.476 825.366 552.396 825.867 555.439 C826.304 558.091 825.999 560.813 826 563.5 C826 564.522 826.034 565.554 825.87 566.562 C825.099 571.289 824.352 576.032 823.199 580.68 C822.474 583.605 821.475 586.472 820.248 589.224 C819.162 591.662 817.931 594.08 816.288 596.184 C814.307 598.721 811.864 600.87 809.472 603.023 C808.69 603.726 807.616 604.04 806.81 604.715 C805.509 605.804 804.566 607.304 803.184 608.288 C801.009 609.836 798.653 611.142 796.224 612.249 M452.544 614.999 C452.544 614.999 452.544 614.999 452.544 614.999 C451.187 615.049 449.814 614.929 448.474 615.148 C447.768 615.263 447.205 615.884 446.496 615.985 C445.487 616.129 444.413 616.173 443.441 615.866 C440.476 614.928 437.422 614 434.823 612.293 C432.417 610.712 430.628 608.34 428.715 606.19 C427.927 605.305 427.247 604.302 426.752 603.225 C425.911 601.397 425.302 599.468 424.735 597.538 C424.054 595.219 423.168 592.906 423.014 590.493 C422.63 584.487 422.269 578.395 423.131 572.438 C423.866 567.367 425.887 562.549 427.752 557.776 C428.278 556.429 429.556 555.498 430.247 554.227 C431.55 551.831 432.114 549.026 433.712 546.816 C434.778 545.341 436.738 544.757 438.024 543.471 C438.806 542.689 439.051 541.472 439.834 540.692 C441.008 539.525 442.447 538.654 443.81 537.715 C444.653 537.134 445.516 536.566 446.446 536.138 C446.769 535.989 447.15 536.015 447.506 536.014 C449.19 536.013 450.936 535.682 452.559 536.134 C456.579 537.255 460.402 539.003 464.226 540.674 C466.952 541.865 469.673 543.118 472.184 544.712 C473.309 545.426 474.154 546.517 475.023 547.528 C476.194 548.89 477.315 550.305 478.288 551.816 C479.086 553.055 479.733 554.391 480.317 555.745 C481.691 558.932 483.112 562.115 484.155 565.426 C485.297 569.051 486.843 572.703 486.857 576.504 C486.872 580.873 485.392 585.133 484.238 589.346 C483.859 590.73 483.054 591.971 482.288 593.185 C481.397 594.596 480.421 595.968 479.285 597.19 C476.046 600.677 472.686 604.057 469.19 607.285 C468.32 608.088 467.27 608.685 466.228 609.247 C465.052 609.881 463.826 610.436 462.559 610.861 C462.215 610.976 461.76 611.061 461.471 610.841 C460.804 610.337 460.539 609.435 459.926 608.867 C459.208 608.201 458.479 606.97 457.521 607.177 C456.748 607.345 456.956 608.708 457.016 609.496 C457.071 610.209 457.673 610.779 457.85 611.471 C457.979 611.98 458.285 612.669 457.92 613.046 C457.033 613.961 455.756 614.43 454.559 614.865 M793.497 601.854 C793.497 601.854 793.497 601.854 793.497 601.854 C793.948 601.411 794.615 601.112 794.851 600.526 C795.187 599.693 794.388 598.374 795.113 597.844 C798.493 595.378 802.793 594.437 806.307 592.166 C807.181 591.601 807.327 590.341 807.977 589.528 C808.661 588.672 809.611 588.053 810.285 587.19 C810.915 586.383 811.434 585.484 811.862 584.554 C812.011 584.231 812.014 583.849 811.986 583.494 C811.893 582.328 812.012 581.071 811.502 580.018 C811.027 579.037 810.074 578.34 809.183 577.711 C807.178 576.296 804.816 575.418 802.867 573.926 C802.091 573.332 801.519 572.458 801.144 571.556 C800.969 571.133 801.129 570.611 801.316 570.192 C802.037 568.57 803.675 567.268 803.838 565.5 C803.945 564.344 802.753 563.43 802.023 562.528 C801.123 561.415 800.112 560.375 798.982 559.498 C798.57 559.178 798.016 559.04 797.496 559.015 C795.48 558.918 793.394 558.621 791.441 559.134 C789.41 559.669 787.565 560.838 785.867 562.074 C785.077 562.649 784.467 563.523 784.144 564.445 C783.97 564.941 784.243 565.521 784.497 565.98 C784.708 566.359 785.072 566.674 785.473 566.842 C785.796 566.977 786.452 567.173 786.525 566.83 C786.732 565.854 785.702 564.78 786.104 563.867 C786.557 562.837 787.747 562.282 788.751 561.772 C790.225 561.022 791.783 560.141 793.438 560.137 C795.122 560.134 796.738 560.96 798.225 561.751 C798.931 562.126 799.928 562.74 799.829 563.534 C799.521 565.986 797.84 568.073 797.134 570.441 C796.936 571.107 796.814 571.917 797.149 572.526 C797.757 573.632 798.7 574.595 799.778 575.251 C801.694 576.418 804.015 576.79 805.967 577.897 C806.764 578.349 807.607 578.986 807.898 579.855 C808.291 581.025 808.135 582.354 807.865 583.559 C807.573 584.863 806.882 586.052 806.247 587.228 C805.684 588.27 805.026 589.267 804.285 590.19 C803.665 590.962 802.997 591.724 802.184 592.289 C800.733 593.295 799.236 594.326 797.554 594.862 C796.785 595.107 795.441 595.283 795.157 594.528 C794.446 592.639 794.629 590.424 795.148 588.474 C795.558 586.937 797.357 586.042 797.823 584.521 C797.96 584.076 796.935 584.102 796.472 584.157 C796.085 584.204 795.85 584.962 795.494 584.8 C795.073 584.609 794.976 583.958 795.016 583.496 C795.478 578.142 796.432 572.839 796.986 567.493 C797.089 566.502 797.092 565.494 796.985 564.504 C796.929 563.986 796.777 563.461 796.503 563.019 C796.274 562.651 795.96 562.186 795.527 562.158 C794.878 562.116 793.983 562.255 793.697 562.84 C792.654 564.977 792.232 567.382 791.832 569.726 C790.998 574.617 790.272 579.545 790.001 584.5 C789.709 589.834 789.697 595.203 790.148 600.526 C790.201 601.148 790.893 601.62 791.473 601.851 M464.959 601.523 C464.959 601.523 464.959 601.523 464.959 601.523 C465.256 601.193 465.708 600.952 465.852 600.531 C466.07 599.891 466.079 599.176 465.985 598.507 C465.464 594.814 464.35 591.208 464.014 587.493 C463.7 584.025 462.443 580.14 464.043 577.046 C465.074 575.052 468.365 575.812 470.465 575.018 C470.659 574.944 470.989 574.575 470.798 574.492 C470.081 574.178 469.252 574.059 468.474 574.148 C467.763 574.23 467.209 574.921 466.496 574.984 C465.705 575.053 464.524 575.232 464.157 574.528 C463.533 573.329 463.964 571.813 464.148 570.474 C464.245 569.765 464.938 569.211 464.985 568.496 C465.181 565.484 465.274 562.432 464.866 559.441 C464.685 558.118 463.971 556.899 463.249 555.775 C462.826 555.115 462.284 554.192 461.5 554.201 C460.697 554.21 460.143 555.139 459.712 555.816 C458.514 557.695 457.465 559.687 456.676 561.771 C455.043 566.081 453.987 570.591 452.466 574.942 C452.107 575.969 451.772 577.07 451.047 577.881 C450.834 578.119 450.271 577.823 450.159 577.524 C449.916 576.874 449.959 576.113 450.134 575.441 C450.646 573.482 451.63 571.671 452.194 569.725 C452.876 567.37 453.501 564.987 453.865 562.563 C453.944 562.04 453.763 561.48 453.503 561.02 C453.282 560.631 452.922 560.011 452.492 560.136 C451.705 560.366 450.985 561.061 450.711 561.834 C448.706 567.508 447.255 573.365 445.757 579.193 C445.06 581.906 444.494 584.66 444.13 587.438 C443.911 589.11 443.921 590.812 444.015 592.496 C444.044 593.016 444.223 593.539 444.497 593.981 C444.726 594.349 445.047 594.759 445.473 594.842 C445.991 594.943 446.771 594.941 447.013 594.471 C449.277 590.087 449.985 584.92 452.718 580.811 C453.803 579.18 457.045 576.32 457.92 578.073 C460.816 583.874 459.827 590.901 460.943 597.288 C461.122 598.31 461.309 599.365 461.799 600.279 C462.172 600.974 462.72 601.681 463.454 601.97 M754.956 585.517 C754.956 585.517 754.956 585.517 754.956 585.517 C755.278 585.034 756.439 584.337 755.924 584.068 C753.671 582.89 751.056 582.528 748.54 582.162 C748.121 582.101 747.878 582.913 747.461 582.835 C742.426 581.892 737.59 580.014 732.539 579.165 C731.815 579.043 731.227 579.924 730.496 579.985 C727.84 580.206 725.165 580.034 722.5 579.999 C721.823 579.99 721.131 580.014 720.474 579.852 C719.779 579.681 719.207 579.1 718.496 579.015 C716.844 578.817 715.157 578.83 713.503 579.015 C712.791 579.095 712.216 579.765 711.5 579.799 C711.112 579.818 710.898 579.274 710.527 579.157 C710.192 579.051 709.812 579.066 709.473 579.157 C708.786 579.342 708.211 579.989 707.5 579.969 C706.45 579.939 705.539 579.14 704.496 579.015 C702.844 578.818 701.157 578.83 699.503 579.015 C698.791 579.095 698.216 579.767 697.5 579.799 C697.11 579.816 696.909 579.223 696.526 579.147 C695.536 578.953 694.503 578.879 693.503 579.015 C692.463 579.157 691.55 579.969 690.5 579.969 C689.449 579.969 688.544 579.1 687.496 579.015 C684.507 578.774 681.498 578.965 678.5 579.001 C677.823 579.009 677.131 578.986 676.474 579.148 C675.779 579.319 675.21 579.93 674.496 579.985 C671.506 580.217 668.491 580.206 665.5 579.999 C663.806 579.882 662.201 579.019 660.503 579.016 C659.45 579.014 658.543 579.871 657.496 579.985 C655.509 580.202 653.492 580.156 651.5 579.999 C645.149 579.498 638.843 578.524 632.493 578.014 C631.157 577.906 629.796 577.927 628.474 578.148 C628.088 578.212 627.918 578.856 627.527 578.843 C626.481 578.808 625.543 578.044 624.496 578.015 C615.502 577.767 606.496 577.729 597.503 578.015 C596.454 578.049 595.552 578.997 594.503 578.97 C568.822 578.328 543.167 576.908 517.493 576.014 C516.153 575.967 514.797 575.931 513.474 576.147 C513.07 576.214 512.866 576.884 512.459 576.838 C509.429 576.494 506.521 575.38 503.493 575.014 C501.832 574.813 500.133 574.93 498.474 575.147 C498.087 575.198 497.891 575.799 497.5 575.799 C497.109 575.799 496.912 575.208 496.526 575.147 C495.201 574.94 493.842 574.93 492.503 575.015 C491.984 575.048 491.457 575.216 491.02 575.497 C490.657 575.731 490.119 576.076 490.201 576.5 C490.318 577.108 490.952 577.518 491.474 577.851 C491.764 578.036 492.163 578.039 492.5 577.969 C493.529 577.756 494.455 577.082 495.503 577.015 C499.492 576.761 503.506 576.743 507.493 577.014 C513.189 577.401 518.812 578.585 524.507 578.986 C528.161 579.243 531.842 579.234 535.496 578.985 C536.544 578.913 537.45 578.059 538.5 578.031 C539.212 578.012 539.77 578.74 540.474 578.852 C541.799 579.063 543.164 579.141 544.496 578.985 C545.207 578.901 545.778 578.317 546.474 578.148 C547.129 577.989 547.822 577.947 548.493 578.015 C553.487 578.521 558.428 579.533 563.437 579.868 C564.155 579.916 564.764 579.269 565.474 579.148 C566.469 578.977 567.496 578.895 568.5 579.001 C570.19 579.18 571.81 579.82 573.5 579.999 C574.504 580.105 575.535 580.044 576.526 579.852 C577.226 579.717 577.788 579.012 578.5 579.031 C579.55 579.059 580.458 579.878 581.503 579.985 C583.17 580.155 584.867 580.078 586.526 579.852 C587.232 579.756 587.787 579.031 588.5 579.031 C589.213 579.031 589.774 579.716 590.474 579.852 C591.465 580.044 592.49 580 593.5 580 C594.51 580 595.535 580.047 596.526 579.852 C597.228 579.714 597.792 579.09 598.503 579.015 C600.49 578.807 602.51 578.805 604.496 579.015 C605.541 579.126 606.45 579.941 607.5 579.969 C608.212 579.988 608.774 579.282 609.474 579.148 C610.463 578.959 611.487 578.97 612.493 579.014 C633.168 579.916 653.821 581.372 674.507 581.985 C676.203 582.036 677.805 581.079 679.5 581.001 C684.826 580.755 690.17 580.768 695.496 581.015 C696.23 581.049 696.809 581.908 697.54 581.837 C699.918 581.606 702.115 580.137 704.505 580.141 C709.184 580.148 713.765 581.589 718.437 581.868 C719.492 581.931 720.47 581.161 721.527 581.157 C721.919 581.156 722.097 581.747 722.474 581.852 C723.125 582.033 723.827 582.078 724.496 581.984 C725.546 581.836 726.512 580.985 727.563 581.135 C730.95 581.616 734.102 583.205 737.466 583.828 C737.878 583.905 738.118 583.147 738.536 583.168 C739.598 583.223 740.555 583.865 741.604 584.041 C745.872 584.757 750.16 585.366 754.462 585.842 M449.291 584.636 C449.291 584.636 449.291 584.636 449.291 584.636 C449.246 583.248 448.787 581.811 449.157 580.472 C449.282 580.021 450.134 579.913 450.529 580.166 C450.931 580.422 450.987 581.099 450.86 581.559 M454.555 577.821 C454.555 577.821 454.555 577.821 454.555 577.821 C454.377 577.382 454.078 576.974 454.019 576.504 C453.933 575.82 453.942 575.102 454.132 574.439 C455.168 570.839 456.31 567.261 457.679 563.773 C458.169 562.524 459.251 559.016 459.686 560.285 C460.791 563.506 460.135 567.094 459.985 570.496 C459.953 571.212 459.282 571.771 459.148 572.474 C458.928 573.631 459.705 575.107 458.938 576 M610.796 556.695 C610.796 556.695 610.796 556.695 610.796 556.695 C612.925 555.56 615.153 554.592 617.184 553.288 C617.865 552.852 618.587 552.29 618.851 551.526 C619.184 550.565 619.275 549.399 618.851 548.474 C618.319 547.312 617.148 546.56 616.19 545.715 C615.251 544.887 613.265 544.719 613.178 543.47 C613.056 541.708 614.697 540.262 615.711 538.816 C616.415 537.813 617.51 537.14 618.285 536.19 C619.226 535.036 620.255 533.896 620.842 532.528 C621.045 532.054 620.794 531.444 620.502 531.019 C619.991 530.274 619.433 529.124 618.53 529.159 C615.305 529.283 612.2 530.48 609.125 531.459 C608.169 531.763 607.287 532.322 606.528 532.977 C604.946 534.343 603.323 535.738 602.158 537.473 C601.871 537.901 602.203 538.558 602.498 538.981 C603.123 539.878 603.916 540.682 604.823 541.293 C606.404 542.359 608.919 542.315 609.884 543.96 C610.493 544.997 608.906 546.164 608.283 547.192 C607.525 548.441 606.478 549.503 605.753 550.772 C605.09 551.932 604.564 553.174 604.139 554.441 C604.024 554.785 603.983 555.212 604.158 555.529 C604.459 556.073 604.861 556.744 605.474 556.851 M607.57 555.844 C607.57 555.844 607.57 555.844 607.57 555.844 C607.099 555.74 606.404 555.945 606.157 555.531 C605.801 554.934 605.843 554.075 606.138 553.446 C607.397 550.761 609.108 548.31 610.713 545.817 C610.895 545.535 611.159 545.273 611.475 545.159 C611.805 545.039 612.238 544.96 612.527 545.158 C613.429 545.776 614.417 546.47 614.851 547.474 C615.256 548.407 615.276 549.601 614.851 550.526 C614.318 551.69 613.217 552.534 612.184 553.289 M611.313 542.692 C611.313 542.692 611.313 542.692 611.313 542.692 C610.48 542.223 609.571 541.869 608.814 541.286 C607.951 540.621 607.025 539.935 606.498 538.982 C606.089 538.243 605.812 537.248 606.149 536.474 C606.652 535.318 607.737 534.466 608.775 533.751 C609.874 532.992 611.142 532.443 612.441 532.134 C613.442 531.897 614.542 531.85 615.526 532.149 C616.124 532.33 616.623 532.892 616.851 533.474 C617.101 534.111 617.198 534.936 616.851 535.526 C616.083 536.833 614.639 537.616 613.712 538.815 M459.51 537.808 C459.51 537.808 459.51 537.808 459.51 537.808 C458.248 537.181 457.047 536.413 455.725 535.925 C453.599 535.141 451.207 535.065 449.203 534.007 C448.756 533.771 449.984 533.34 450.448 533.14 C450.774 532.999 451.151 533.014 451.505 533.014 C453.513 533.017 455.601 532.581 457.526 533.149 C458.578 533.458 459.422 534.466 459.851 535.474 "/></g>
</svg>